<?xml version="1.0" encoding="utf-8"?>
<!-- Generator: Adobe Illustrator 25.2.0, SVG Export Plug-In . SVG Version: 6.00 Build 0)  -->
<svg version="1.1" id="Layer_1" xmlns="http://www.w3.org/2000/svg" xmlns:xlink="http://www.w3.org/1999/xlink" x="0px" y="0px"
	 viewBox="0 0 390.7 143.7" style="enable-background:new 0 0 390.7 143.7;" xml:space="preserve">
<style type="text/css">
	.st0{fill:none;}
	.st1{fill:#48484A;}
	.st2{fill:#EB5124;}
</style>
<g>
	<path class="st0" d="M265.9,85.6c-2.1,0.2-4.5,1-6.5,1.7c-5.7,2.1-10.6,7.6-10.1,14.9L279,90C278.4,89,273.4,85,265.9,85.6z"/>
	<path class="st0" d="M340,88.8c-9.2,0-17.8-2.8-24.9-7.7c2.6,5.8,6.9,10.9,12.2,14.4l2.1,1.3l-4.8,12.1l15.2-7.8l1,0.2
		c11.6,2.1,22.6-0.7,31.1-7.6c7.9-6.5,12.5-16.2,12.6-26.5c0-3.8-0.5-7.5-1.7-11C377.6,74.9,360.5,88.8,340,88.8z"/>
	<path class="st0" d="M40.1,85.8c-9.9,0-17.9,8-17.9,17.9c0,9.9,8,17.9,17.9,17.9v0c9.9,0,17.9-8,17.9-17.9
		C58,93.9,50,85.8,40.1,85.8z"/>
	<path class="st1" d="M58,63.9l0,4.3c-16.7-8.4-37.1-4.1-48.8,10.5c-11.8,14.6-11.8,35.4,0,49.9c11.8,14.6,32.1,18.9,48.8,10.5v4.3
		h21.8l-0.1-79.6L58,63.9L58,63.9z M40.1,121.7L40.1,121.7c-9.9,0-17.9-8-17.9-17.9c0-9.9,8-17.9,17.9-17.9c9.9,0,17.9,8,17.9,17.9
		C58,113.6,50,121.6,40.1,121.7z"/>
	<polygon class="st1" points="90.3,143.5 112.2,143.5 112.2,17 90.3,17 	"/>
	<rect x="122.9" y="16.9" class="st1" width="21.8" height="23.6"/>
	<rect x="122.8" y="63.9" class="st1" width="21.9" height="79.6"/>
	<path class="st1" d="M285,107.7l20.5-8.2c0,0-4.4-13.2-7.8-18.4c-10.1-15.5-30.6-21.1-47.9-13.4c-17.3,7.8-26.7,26.7-22.4,45.2
		l0,0.2c0.7,3.2,1.9,6.3,3.4,9.2l0,0.1c1.1,2.2,2.5,4.2,4,6.1l0,0c7.9,9.8,19.9,15.4,32.5,15.3c11.9,0,25.2-5.4,34.4-15.4l-12-15.5
		l-2.8,2.3c-6.8,5.4-13.5,6.3-20,6.3c-3.2,0.1-6.5-0.7-9.2-2.4l24.3-10L285,107.7z M249.3,102.3c-0.6-7.3,4.4-12.8,10.1-14.9
		c2-0.7,4.4-1.5,6.5-1.7C273.4,85,278.4,89,279,90L249.3,102.3z"/>
	<polygon class="st1" points="208.1,64 190.9,115 173.6,64 150,64 179.4,143.6 201.3,143.6 231.8,64 	"/>
	<path class="st2" d="M384.4,44.5c0-24.5-19.8-44.3-44.3-44.3S295.8,20,295.8,44.5c0,11.1,4.1,21.2,10.9,29
		c1.7,10,7.3,19.5,15.4,25.6l-8.9,22.4l27.6-14.1c13,2.1,25.4-1.2,34.9-9.1c9.3-7.7,14.7-19,14.8-31c0.1-7.8-2-15.4-6.1-21.9
		C384.3,45.1,384.4,44.8,384.4,44.5z M346.5,45.5c-1.6-1.7-3.6-2.5-5.9-2.5c-1.6,0-3.1,0.5-4.7,1.4c-1.5,0.9-2.7,2.2-3.6,3.7
		l-11.2,0l3.7-21.6l0,0l1.7-9.9h31.3l0.1,9.6L335,26.5l-1.2,10c1.4-0.9,2.1-1.2,3.7-1.7c1.9-0.6,4-0.9,6.3-1c3,0,5.6,0.7,8.1,2.2
		c2.5,1.5,4.4,3.6,5.8,6.3c1.5,2.8,2.2,5.9,2.2,9.6c0,4-0.8,7.5-2.5,10.5c-1.7,3-4.1,5.4-7.1,7.1c-3,1.7-6.3,2.6-10,2.6
		c-3.4,0-6.6-0.6-9.6-2c-3-1.3-5.4-3.3-7.2-5.8c-1.8-2.5-2.8-5.5-2.9-8.8l11.5-0.2c0.4,2,1.4,3.6,3,4.7s3.5,1.6,5.6,1.6
		c2.4,0,4.3-0.9,5.9-2.6c1.6-1.7,2.3-4,2.3-6.8C348.9,49.3,348.1,47.1,346.5,45.5z M384.5,67.2c-0.1,10.3-4.7,19.9-12.6,26.4
		c-8.5,7-19.5,9.7-31.1,7.6l-1-0.2l-15.2,7.8l4.8-12.1l-2.1-1.3c-5.3-3.5-9.5-8.6-12.2-14.4c7.1,4.8,15.7,7.7,24.9,7.7
		c20.4,0,37.6-13.8,42.7-32.6C383.9,59.7,384.5,63.4,384.5,67.2z"/>
	<path class="st0" d="M340.7,61.5c-2.2,0-4-0.5-5.6-1.6c-1.6-1.1-2.6-2.6-3-4.7l-11.5,0.2c0.1,3.3,1.1,6.3,2.9,8.8
		c1.8,2.5,4.2,4.5,7.2,5.8c3,1.3,6.2,2,9.6,2c3.6,0,6.9-0.9,10-2.6s5.4-4.1,7.1-7.1s2.6-6.5,2.5-10.5c0-3.6-0.8-6.8-2.2-9.6
		c-1.4-2.7-3.4-4.8-5.8-6.3c-2.5-1.5-5.2-2.2-8.1-2.2c-2.4,0-4.5,0.4-6.3,1c-1.6,0.5-2.3,0.8-3.7,1.7l1.2-10l22.9-0.2l-0.1-9.6
		h-31.3l-1.7,9.9l0,0l-3.7,21.6l11.2,0c0.9-1.5,2.1-2.8,3.6-3.7c1.5-0.9,3.1-1.4,4.7-1.4c2.3,0,4.2,0.8,5.9,2.5
		c1.6,1.7,2.5,3.9,2.5,6.6c0,2.8-0.8,5.1-2.3,6.8C345.1,60.6,343.1,61.5,340.7,61.5z"/>
</g>
</svg>
