<?xml version="1.0" encoding="UTF-8"?>
<svg version="1.1" xmlns="http://www.w3.org/2000/svg" width="313" height="58">
<path d="M0 0 C103.29 0 206.58 0 313 0 C313 19.14 313 38.28 313 58 C209.71 58 106.42 58 0 58 C0 38.86 0 19.72 0 0 Z " fill="#FCFCFC" transform="translate(0,0)"/>
<path d="M0 0 C4.764375 -0.2475 9.52875 -0.495 14.4375 -0.75 C15.9217749 -0.85924805 17.4060498 -0.96849609 18.93530273 -1.08105469 C28.4594376 -1.31978376 28.4594376 -1.31978376 32.77001953 2.37304688 C35.13529408 5.47117448 37.09073088 8.60416128 39 12 C39.55131592 12.84884766 40.10263184 13.69769531 40.6706543 14.57226562 C44.77332373 20.94620736 47.76073428 27.80264837 50.75 34.75 C51.23082031 35.84699219 51.71164063 36.94398437 52.20703125 38.07421875 C58.221052 51.89473998 58.221052 51.89473998 57 58 C38.19 58 19.38 58 0 58 C0 38.86 0 19.72 0 0 Z " fill="#3F3F3F" transform="translate(0,0)"/>
<path d="M0 0 C9.57 0 19.14 0 29 0 C26.03 4.455 26.03 4.455 23 9 C13.50392559 23.44269872 6.7727308 38.75326142 1 55 C0.67 55 0.34 55 0 55 C0 36.85 0 18.7 0 0 Z " fill="#FDFDFD" transform="translate(0,0)"/>
<path d="M0 0 C1.32 0 2.64 0 4 0 C5.85584011 4.51886436 7.70713411 9.0395535 9.55419922 13.56201172 C10.18347884 15.10093664 10.81400811 16.63935118 11.44580078 18.17724609 C12.35255984 20.38506917 13.25484123 22.59467556 14.15625 24.8046875 C14.44060913 25.49432587 14.72496826 26.18396423 15.01794434 26.89450073 C17 31.77225659 17 31.77225659 17 34 C15.109375 33.75390625 15.109375 33.75390625 13 33 C11.55036313 30.44149911 10.89599095 27.8223715 10 25 C4.72 25 -0.56 25 -6 25 C-6.99 27.97 -7.98 30.94 -9 34 C-10.32 34 -11.64 34 -13 34 C-10.87555401 26.18300191 -7.9836327 18.82105482 -4.8125 11.375 C-4.34908203 10.27542969 -3.88566406 9.17585938 -3.40820312 8.04296875 C-2.27669493 5.36001117 -1.14056098 2.67911856 0 0 Z " fill="#232323" transform="translate(226,13)"/>
<path d="M0 0 C1.32 0 2.64 0 4 0 C5.85824533 4.35706827 7.70945639 8.71703168 9.55419922 13.07983398 C10.18280449 14.56372537 10.81332755 16.04680585 11.44580078 17.52905273 C12.35433737 19.65919308 13.25594736 21.7921501 14.15625 23.92578125 C14.44060913 24.58838455 14.72496826 25.25098785 15.01794434 25.93367004 C16.21997859 28.79901292 17 30.85793701 17 34 C15.109375 33.75390625 15.109375 33.75390625 13 33 C11.55036313 30.44149911 10.89599095 27.8223715 10 25 C4.72 25 -0.56 25 -6 25 C-7.98 29.455 -7.98 29.455 -10 34 C-10.99 34 -11.98 34 -13 34 C-10.6065288 26.50151713 -7.76336589 19.2325793 -4.8125 11.9375 C-4.11737305 10.20983398 -4.11737305 10.20983398 -3.40820312 8.44726562 C-2.2745028 5.63054626 -1.13838499 2.81482853 0 0 Z " fill="#1A1A1A" transform="translate(160,13)"/>
<path d="M0 0 C1.32 0 2.64 0 4 0 C5.85584011 4.51886436 7.70713411 9.0395535 9.55419922 13.56201172 C10.18347884 15.10093664 10.81400811 16.63935118 11.44580078 18.17724609 C12.35255984 20.38506917 13.25484123 22.59467556 14.15625 24.8046875 C14.44060913 25.49432587 14.72496826 26.18396423 15.01794434 26.89450073 C17 31.77225659 17 31.77225659 17 34 C15.109375 33.75390625 15.109375 33.75390625 13 33 C11.55036313 30.44149911 10.89599095 27.8223715 10 25 C4.72 25 -0.56 25 -6 25 C-7.98 29.455 -7.98 29.455 -10 34 C-10.99 34 -11.98 34 -13 34 C-10.87555401 26.18300191 -7.9836327 18.82105482 -4.8125 11.375 C-4.34908203 10.27542969 -3.88566406 9.17585938 -3.40820312 8.04296875 C-2.27669493 5.36001117 -1.14056098 2.67911856 0 0 Z " fill="#1F1F1F" transform="translate(291,13)"/>
<path d="M0 0 C1.32 0 2.64 0 4 0 C5.6965938 4.03603908 7.38706737 8.07457087 9.07202148 12.11547852 C9.64555792 13.48856843 10.22073402 14.86097471 10.79760742 16.23266602 C11.62855583 18.20930515 12.45349302 20.18836262 13.27734375 22.16796875 C13.77484131 23.35672607 14.27233887 24.5454834 14.78491211 25.77026367 C15.82845844 28.54403791 16.53581864 31.08263219 17 34 C15.109375 33.75390625 15.109375 33.75390625 13 33 C11.55036313 30.44149911 10.89599095 27.8223715 10 25 C4.72 25 -0.56 25 -6 25 C-7.98 29.455 -7.98 29.455 -10 34 C-10.99 34 -11.98 34 -13 34 C-10.6065288 26.50151713 -7.76336589 19.2325793 -4.8125 11.9375 C-4.11737305 10.20983398 -4.11737305 10.20983398 -3.40820312 8.44726562 C-2.2745028 5.63054626 -1.13838499 2.81482853 0 0 Z " fill="#212121" transform="translate(95,13)"/>
<path d="M0 0 C4.95123141 4.09757082 6.76675054 9.84506692 8 16 C8.09231291 17.99830289 8.13000107 19.99957227 8.125 22 C8.12757812 23.03125 8.13015625 24.0625 8.1328125 25.125 C8 28 8 28 7 32 C2.71 32 -1.58 32 -6 32 C-8.81407852 23.55776443 -7.37969731 14.40168901 -4.16796875 6.3046875 C-2.9880796 3.97647814 -1.63299807 2.03071967 0 0 Z " fill="#F6F6F6" transform="translate(29,2)"/>
<path d="M0 0 C0.89429374 1.5725165 1.76487427 3.15853741 2.625 4.75 C3.35589844 6.07257812 3.35589844 6.07257812 4.1015625 7.421875 C5 10 5 10 4.37890625 12.1640625 C0.53887505 17.27685192 -5.92293678 19.76398714 -12 21 C-15.66158961 21.4266893 -19.32253287 21.74729882 -23 22 C-22.34 21.67 -21.68 21.34 -21 21 C-20.87625 20.278125 -20.7525 19.55625 -20.625 18.8125 C-19.18222473 12.3200113 -14.01913177 7.14078371 -9 3 C-6.13927802 1.36200596 -3.3598047 0 0 0 Z " fill="#F7F7F7" transform="translate(23,36)"/>
<path d="M0 0 C7.39630549 1.12552475 12.0606861 5.57963987 17 11 C18.70486972 13.64669034 19.8245997 16.06149924 21 19 C19 21 19 21 15.9375 21.3125 C7.79280558 20.66609568 0.8173547 17.8173547 -5 12 C-4.59790008 8.96191175 -3.33378427 6.45248568 -1.9375 3.75 C-1.57527344 3.04359375 -1.21304688 2.3371875 -0.83984375 1.609375 C-0.56269531 1.07828125 -0.28554688 0.5471875 0 0 Z " fill="#F8F8F8" transform="translate(36,36)"/>
<path d="M0 0 C0.99 0 1.98 0 3 0 C4.70130557 2.06997214 6.19682845 4.09793502 7.6875 6.3125 C8.57371025 7.59280005 9.46043635 8.87274317 10.34765625 10.15234375 C11.01112061 11.11889893 11.01112061 11.11889893 11.68798828 12.10498047 C13.62068564 14.8964946 15.62055959 17.63452621 17.625 20.375 C19.295625 22.664375 19.295625 22.664375 21 25 C21.33 16.75 21.66 8.5 22 0 C22.99 0 23.98 0 25 0 C25 10.89 25 21.78 25 33 C20.077522 31.7693805 18.85940237 29.54735596 16.1875 25.5625 C15.78724609 24.98306641 15.38699219 24.40363281 14.97460938 23.80664062 C13.642326 21.87618921 12.3215127 19.93784051 11 18 C8.69 14.7 6.38 11.4 4 8 C3.67 16.58 3.34 25.16 3 34 C2.01 34 1.02 34 0 34 C0 22.78 0 11.56 0 0 Z " fill="#171717" transform="translate(248,13)"/>
<path d="M0 0 C0.99 0 1.98 0 3 0 C4.45458984 1.54125977 4.45458984 1.54125977 5.9609375 3.69140625 C6.51523438 4.47193359 7.06953125 5.25246094 7.640625 6.05664062 C8.21296875 6.88357422 8.7853125 7.71050781 9.375 8.5625 C9.93960938 9.36236328 10.50421875 10.16222656 11.0859375 10.98632812 C12.15733388 12.50537971 13.22471344 14.02727866 14.28662109 15.55297852 C16.50239738 18.71751623 18.754587 21.8564218 21 25 C21.33 16.75 21.66 8.5 22 0 C22.99 0 23.98 0 25 0 C25 10.89 25 21.78 25 33 C24.01 33 23.02 33 22 33 C20.43774414 31.35107422 20.43774414 31.35107422 18.78515625 29.0546875 C18.18123047 28.22453125 17.57730469 27.394375 16.95507812 26.5390625 C16.33052734 25.65992187 15.70597656 24.78078125 15.0625 23.875 C14.44181641 23.0190625 13.82113281 22.163125 13.18164062 21.28125 C10.02326747 16.90863541 6.99410318 12.49115478 4 8 C3.67 16.25 3.34 24.5 3 33 C2.01 33 1.02 33 0 33 C0 22.11 0 11.22 0 0 Z " fill="#161616" transform="translate(117,13)"/>
<path d="M0 0 C0.99 0 1.98 0 3 0 C3 4.62 3 9.24 3 14 C9.6 14 16.2 14 23 14 C23 9.38 23 4.76 23 0 C23.99 0 24.98 0 26 0 C26 10.89 26 21.78 26 33 C25.01 33 24.02 33 23 33 C23 27.72 23 22.44 23 17 C16.4 17 9.8 17 3 17 C3 22.28 3 27.56 3 33 C2.01 33 1.02 33 0 33 C0 22.11 0 11.22 0 0 Z " fill="#151515" transform="translate(182,13)"/>
<path d="M0 0 C4.48735045 5.60918807 7.24372027 11.24051436 10.3125 17.6875 C10.87517578 18.84056641 11.43785156 19.99363281 12.01757812 21.18164062 C12.54416016 22.28056641 13.07074219 23.37949219 13.61328125 24.51171875 C14.09579346 25.51678467 14.57830566 26.52185059 15.07543945 27.55737305 C15.38054443 28.36343994 15.68564941 29.16950684 16 30 C15.67 30.66 15.34 31.32 15 32 C14.50371094 31.52949219 14.00742187 31.05898438 13.49609375 30.57421875 C12.81675781 29.95160156 12.13742188 29.32898438 11.4375 28.6875 C10.77621094 28.07261719 10.11492188 27.45773438 9.43359375 26.82421875 C6.45028358 24.43836166 6.45028358 24.43836166 0 22 C0 14.74 0 7.48 0 0 Z " fill="#F2F2F2" transform="translate(37,13)"/>
<path d="M0 0 C1 2 1 2 0.56640625 4.13671875 C-0.14054044 7.71045613 -0.10758675 11.18821896 -0.0625 14.8125 C-0.05798828 15.50537109 -0.05347656 16.19824219 -0.04882812 16.91210938 C-0.03713156 18.60811068 -0.01919924 20.30406703 0 22 C-0.58007812 22.30292969 -1.16015625 22.60585938 -1.7578125 22.91796875 C-6.66195836 25.54807998 -10.85823175 28.28302849 -15 32 C-11.75121106 20.62923873 -5.91356874 10.18668441 0 0 Z " fill="#F3F3F3" transform="translate(21,13)"/>
<path d="M0 0 C0.66 0.66 1.32 1.32 2 2 C1.68647677 3.33813007 1.34665445 4.67006783 1 6 C0.97530557 9.45016508 1.0262581 12.88398933 1.12695312 16.33203125 C1.15664128 18.22159482 1.0850584 20.1121184 1 22 C0.34 22.66 -0.32 23.32 -1 24 C-2.03770764 18.94117527 -2.08396408 14.13113834 -2 9 C-2 7.68 -2 6.36 -2 5 C-6.70696251 14.20368848 -11.20802931 23.37422824 -15 33 C-14.48050781 32.51789062 -13.96101562 32.03578125 -13.42578125 31.5390625 C-6.49912127 25.26537786 -6.49912127 25.26537786 -2 24 C-1.67 24.66 -1.34 25.32 -1 26 C-2.175625 26.515625 -3.35125 27.03125 -4.5625 27.5625 C-12.73259759 31.69816002 -16.90293838 37.51674427 -20 46 C-20.66 46 -21.32 46 -22 46 C-20.05803985 39.02943418 -17.68271725 32.39028639 -14.8125 25.75 C-14.42247803 24.84411133 -14.03245605 23.93822266 -13.63061523 23.00488281 C-4.53092893 2.26546447 -4.53092893 2.26546447 0 0 Z " fill="#4D4D4D" transform="translate(22,11)"/>
<path d="M0 0 C0.72703125 0.59748047 0.72703125 0.59748047 1.46875 1.20703125 C6.15201331 4.90861052 10.3175548 7.17349976 16 9 C16 9.33 16 9.66 16 10 C5.44 10 -5.12 10 -16 10 C-14.68 9.34 -13.36 8.68 -12 8 C-10.28263501 7.01559141 -8.57463769 6.01470907 -6.875 5 C-6.00617187 4.484375 -5.13734375 3.96875 -4.2421875 3.4375 C-1.91703764 2.05946099 -1.91703764 2.05946099 0 0 Z " fill="#F7F7F7" transform="translate(29,48)"/>
<path d="M0 0 C0.66 0 1.32 0 2 0 C2.83986084 1.93467942 3.67168027 3.87285129 4.5 5.8125 C4.9640625 6.89144531 5.428125 7.97039063 5.90625 9.08203125 C7 12 7 12 7 15 C3.04 15 -0.92 15 -5 15 C-4.43174347 9.45949887 -2.37113483 4.96284034 0 0 Z " fill="#EBEBEB" transform="translate(161,19)"/>
<path d="M0 0 C0.66 0 1.32 0 2 0 C2.83986084 1.93467942 3.67168027 3.87285129 4.5 5.8125 C4.9640625 6.89144531 5.428125 7.97039063 5.90625 9.08203125 C7 12 7 12 7 15 C3.04 15 -0.92 15 -5 15 C-4.43174347 9.45949887 -2.37113483 4.96284034 0 0 Z " fill="#EAEAEA" transform="translate(96,19)"/>
<path d="M0 0 C0.66 0 1.32 0 2 0 C2.83986084 1.93467942 3.67168027 3.87285129 4.5 5.8125 C4.9640625 6.89144531 5.428125 7.97039063 5.90625 9.08203125 C7 12 7 12 7 15 C3.04 15 -0.92 15 -5 15 C-4.43174347 9.45949887 -2.37113483 4.96284034 0 0 Z " fill="#EDEDED" transform="translate(292,19)"/>
<path d="M0 0 C3.36610811 2.24407208 3.78288384 3.27258198 5.1875 6.9375 C5.53167969 7.81277344 5.87585938 8.68804687 6.23046875 9.58984375 C7 12 7 12 7 15 C3.04 15 -0.92 15 -5 15 C-4.43174347 9.45949887 -2.37113483 4.96284034 0 0 Z " fill="#EDEDED" transform="translate(227,19)"/>
<path d="M0 0 C0.99 0 1.98 0 3 0 C4.0067004 2.26807204 5.00551766 4.53907754 6 6.8125 C6.28617188 7.45509766 6.57234375 8.09769531 6.8671875 8.75976562 C8.13711041 11.67756469 9 13.78265714 9 17 C7.109375 16.75390625 7.109375 16.75390625 5 16 C3.55036313 13.44149911 2.89599095 10.8223715 2 8 C-3.28 7.67 -8.56 7.34 -14 7 C-13.34 5.68 -12.68 4.36 -12 3 C-8.04 3.33 -4.08 3.66 0 4 C0 2.68 0 1.36 0 0 Z " fill="#252525" transform="translate(168,30)"/>
<path d="M0 0 C3.63 0 7.26 0 11 0 C9.74194623 4.50802601 8.09592835 7.4912812 5 11 C2.17260969 7.07813602 0.97255 4.86275001 0 0 Z " fill="#F0F0F0" transform="translate(24,35)"/>
<path d="M0 0 C0.33 0.66 0.66 1.32 1 2 C1.99 2.33 2.98 2.66 4 3 C3.01 3.495 3.01 3.495 2 4 C1.15975027 5.90965547 1.15975027 5.90965547 0.5 8.1875 C0.2628125 8.94417969 0.025625 9.70085938 -0.21875 10.48046875 C-0.4765625 11.31191406 -0.734375 12.14335937 -1 13 C-1.66 14.98 -2.32 16.96 -3 19 C3.435 18.505 3.435 18.505 10 18 C10 18.66 10 19.32 10 20 C5.38 20 0.76 20 -4 20 C-4.33 19.34 -4.66 18.68 -5 18 C-5.66 18.33 -6.32 18.66 -7 19 C-4.94235079 12.54646385 -2.57616518 6.2638737 0 0 Z " fill="#262626" transform="translate(290,15)"/>
<path d="M0 0 C0.66 0.66 1.32 1.32 2 2 C1.68647677 3.33813007 1.34665445 4.67006783 1 6 C0.97530557 9.45016508 1.0262581 12.88398933 1.12695312 16.33203125 C1.15664128 18.22159482 1.0850584 20.1121184 1 22 C0.34 22.66 -0.32 23.32 -1 24 C-2.03770764 18.94117527 -2.08396408 14.13113834 -2 9 C-2 7.68 -2 6.36 -2 5 C-4.64 9.95 -7.28 14.9 -10 20 C-11 17 -11 17 -9.453125 13.49609375 C-8.72928507 12.1375633 -7.994426 10.78486007 -7.25 9.4375 C-6.8890625 8.75236328 -6.528125 8.06722656 -6.15625 7.36132812 C-4.36301817 4.05099618 -3.17939457 2.11959638 0 0 Z " fill="#515151" transform="translate(22,11)"/>
<path d="M0 0 C0.33 0.99 0.66 1.98 1 3 C5.29 3 9.58 3 14 3 C14 3.33 14 3.66 14 4 C9.38 4 4.76 4 0 4 C-0.99 7.63 -1.98 11.26 -3 15 C-4.32 15 -5.64 15 -7 15 C-5.51298598 9.19839226 -4.27495594 4.42236821 0 0 Z " fill="#0F0F0F" transform="translate(220,32)"/>
<path d="M0 0 C0.33 0.99 0.66 1.98 1 3 C5.29 3 9.58 3 14 3 C14 3.33 14 3.66 14 4 C9.38 4 4.76 4 0 4 C-0.4125 5.629375 -0.825 7.25875 -1.25 8.9375 C-1.953125 11.71484375 -1.953125 11.71484375 -3 14 C-5.109375 14.81640625 -5.109375 14.81640625 -7 15 C-5.51298598 9.19839226 -4.27495594 4.42236821 0 0 Z " fill="#0F0F0F" transform="translate(285,32)"/>
<path d="M0 0 C3.39417765 3.12621626 5.6062718 5.56541027 7 10 C6.34 10 5.68 10 5 10 C3.02 6.535 3.02 6.535 1 3 C-1.96865509 5.54456151 -3.3619751 8.48994665 -5 12 C-5.99 12 -6.98 12 -8 12 C-6.49087042 7.01987239 -3.44338151 3.75740058 0 0 Z " fill="#292929" transform="translate(29,0)"/>
<path d="M0 0 C1.65 0 3.3 0 5 0 C5.625 2.375 5.625 2.375 6 5 C5.34 5.66 4.68 6.32 4 7 C1.875 6.625 1.875 6.625 0 6 C-1.125 2.25 -1.125 2.25 0 0 Z " fill="#757575" transform="translate(307,12)"/>
<path d="M0 0 C0.33 0.66 0.66 1.32 1 2 C1.66 2.33 2.32 2.66 3 3 C2.34 4.98 1.68 6.96 1 9 C7.435 8.505 7.435 8.505 14 8 C14 8.66 14 9.32 14 10 C11.70858714 10.05384521 9.41681812 10.09272087 7.125 10.125 C5.21074219 10.15980469 5.21074219 10.15980469 3.2578125 10.1953125 C0 10 0 10 -2 8 C-1.63723355 5.17042171 -0.90305236 2.70915709 0 0 Z " fill="#272727" transform="translate(90,25)"/>
<path d="M0 0 C0.6875 1.625 0.6875 1.625 1 4 C-0.4375 7.25 -0.4375 7.25 -2 10 C-2.99 10 -3.98 10 -5 10 C-4.55090939 8.51800098 -4.09043436 7.03944764 -3.625 5.5625 C-3.36976563 4.73878906 -3.11453125 3.91507813 -2.8515625 3.06640625 C-2 1 -2 1 0 0 Z " fill="#272727" transform="translate(152,37)"/>
<path d="M0 0 C0.6875 1.625 0.6875 1.625 1 4 C-0.4375 7.25 -0.4375 7.25 -2 10 C-2.99 10 -3.98 10 -5 10 C-4.55090939 8.51800098 -4.09043436 7.03944764 -3.625 5.5625 C-3.36976562 4.73878906 -3.11453125 3.91507813 -2.8515625 3.06640625 C-2 1 -2 1 0 0 Z " fill="#272727" transform="translate(87,37)"/>
<path d="M0 0 C0.33 0.99 0.66 1.98 1 3 C5.29 3 9.58 3 14 3 C14 3.33 14 3.66 14 4 C9.38 4 4.76 4 0 4 C-0.33 4.66 -0.66 5.32 -1 6 C-1.66 6 -2.32 6 -3 6 C-2.625 3.5625 -2.625 3.5625 -2 1 C-1.34 0.67 -0.68 0.34 0 0 Z " fill="#0B0B0B" transform="translate(89,32)"/>
<path d="M0 0 C0.99 0 1.98 0 3 0 C3.66 2.31 4.32 4.62 5 7 C3.68 6.67 2.36 6.34 1 6 C0.67 4.02 0.34 2.04 0 0 Z " fill="#252525" transform="translate(303,40)"/>
<path d="M0 0 C0.66 0 1.32 0 2 0 C0.7874262 3.72433382 -0.50859979 7.37802806 -2 11 C-2.66 11 -3.32 11 -4 11 C-3.5247412 9.35303396 -3.04468109 7.70745272 -2.5625 6.0625 C-2.29566406 5.14597656 -2.02882812 4.22945312 -1.75390625 3.28515625 C-1 1 -1 1 0 0 Z " fill="#363636" transform="translate(4,46)"/>
<path d="M0 0 C0 1.98 0 3.96 0 6 C-1.32 6 -2.64 6 -4 6 C-3.625 3.5625 -3.625 3.5625 -3 1 C-1 0 -1 0 0 0 Z " fill="#363636" transform="translate(217,41)"/>
<path d="M0 0 C1 3 1 3 0.0625 5.1875 C-0.4634375 6.0846875 -0.4634375 6.0846875 -1 7 C-1.66 7 -2.32 7 -3 7 C-2.625 4.0625 -2.625 4.0625 -2 1 C-1.34 0.67 -0.68 0.34 0 0 Z " fill="#131313" transform="translate(94,20)"/>
<path d="M0 0 C0 1.65 0 3.3 0 5 C-1.32 5.33 -2.64 5.66 -4 6 C-3.625 3.5625 -3.625 3.5625 -3 1 C-1 0 -1 0 0 0 Z " fill="#2D2D2D" transform="translate(282,41)"/>
</svg>
