<?xml version="1.0" encoding="UTF-8"?>
<svg version="1.1" xmlns="http://www.w3.org/2000/svg" width="204" height="192">
<path d="M0 0 C67.32 0 134.64 0 204 0 C204 63.36 204 126.72 204 192 C136.68 192 69.36 192 0 192 C0 128.64 0 65.28 0 0 Z " fill="#FDFCFC" transform="translate(0,0)"/>
<path d="M0 0 C26.4 0 52.8 0 80 0 C78.12742485 4.68143788 76.7058533 6.77602847 73.375 10.375 C72.55773437 11.26960937 71.74046875 12.16421875 70.8984375 13.0859375 C64.79624127 19.38624285 57.91143333 24.79090348 50.875 30 C49.71677734 30.89525391 49.71677734 30.89525391 48.53515625 31.80859375 C42.91771067 35.95229722 42.91771067 35.95229722 38.84375 36.1640625 C35.32867858 34.72520085 32.53729546 32.76151277 29.625 30.375 C29.05845703 29.92495605 28.49191406 29.47491211 27.90820312 29.01123047 C24.05678477 25.92943705 20.30016215 22.74439273 16.6328125 19.4453125 C15.26573221 18.23521751 13.8272323 17.10646271 12.375 16 C9.21424473 13.33831135 6.41092173 10.36369148 4 7 C4 6.34 4 5.68 4 5 C3.34 5 2.68 5 2 5 C1.34 3.35 0.68 1.7 0 0 Z " fill="#4A871B" transform="translate(62,120)"/>
<path d="M0 0 C3.16629585 1.05543195 5.36881321 2.27531789 8.06640625 4.2890625 C12.38150365 7.41605127 17.01707006 9.53696842 21.875 11.6875 C22.72191406 12.07744141 23.56882812 12.46738281 24.44140625 12.86914062 C29.23497655 15.01633712 33.8292078 16.61497643 38.99047852 17.61035156 C41.04363996 18.00846184 43.04307285 18.52061436 45.0625 19.0625 C50.21051658 20.23709202 55.42060032 20.42696365 60.67993164 20.65844727 C65.90299496 20.90299496 65.90299496 20.90299496 67 22 C67.08758003 23.99964982 67.10696576 26.0023611 67.09765625 28.00390625 C67.09443359 29.21884766 67.09121094 30.43378906 67.08789062 31.68554688 C67.07951172 32.96494141 67.07113281 34.24433594 67.0625 35.5625 C67.05798828 36.84576172 67.05347656 38.12902344 67.04882812 39.45117188 C67.03699555 42.6341342 67.01905944 45.81707274 67 49 C72.94 50.485 72.94 50.485 79 52 C79 52.33 79 52.66 79 53 C73.06 53 67.12 53 61 53 C61 44.09 61 35.18 61 26 C57.37 26 53.74 26 50 26 C40.25360418 24.93675682 31.92505455 22.51000827 23.046875 18.40234375 C20.61788326 17.28438473 18.28644551 16.37923545 15.75 15.5625 C11.36309432 14.03415867 7.97329676 11.12701402 4.39453125 8.23046875 C2.0553569 6.69986824 2.0553569 6.69986824 -0.5 7.59765625 C-3.0484285 9.02716536 -5.41796455 10.57571065 -7.8125 12.25 C-14.78483405 16.77259506 -22.18440762 19.33264534 -30 22 C-30.85078125 22.33128906 -31.7015625 22.66257812 -32.578125 23.00390625 C-40.99913221 26.05136865 -50.16045683 25.68874848 -59 26 C-59 34.91 -59 43.82 -59 53 C-64.94 53 -70.88 53 -77 53 C-74.14521674 51.09681116 -72.58058692 50.5380901 -69.3125 49.875 C-68.10013672 49.62363281 -68.10013672 49.62363281 -66.86328125 49.3671875 C-66.24839844 49.24601562 -65.63351563 49.12484375 -65 49 C-65.00523682 48.18732666 -65.01047363 47.37465332 -65.01586914 46.53735352 C-65.03656994 42.87907678 -65.04963803 39.22081233 -65.0625 35.5625 C-65.07506836 33.6434082 -65.07506836 33.6434082 -65.08789062 31.68554688 C-65.09272461 29.86313477 -65.09272461 29.86313477 -65.09765625 28.00390625 C-65.10289307 26.87799072 -65.10812988 25.7520752 -65.11352539 24.59204102 C-65 22 -65 22 -64 21 C-62.65217206 20.83281011 -61.29700401 20.72397565 -59.94140625 20.640625 C-41.29036435 19.31067554 -26.14388186 15.45706689 -10 6 C-8.21040545 5.0170513 -6.41908059 4.0372367 -4.625 3.0625 C-2.14709863 1.7477476 -2.14709863 1.7477476 0 0 Z " fill="#143268" transform="translate(101,29)"/>
<path d="M0 0 C2.55069921 1.2753496 5.09926728 2.55381921 7.64453125 3.83984375 C9.03382631 4.53911786 10.42315005 5.23833497 11.8125 5.9375 C12.49892578 6.28490234 13.18535156 6.63230469 13.89257812 6.99023438 C14.57384766 7.33248047 15.25511719 7.67472656 15.95703125 8.02734375 C16.56522705 8.33406006 17.17342285 8.64077637 17.80004883 8.95678711 C20.82673123 10.39203446 23.92110542 11.68047375 27 13 C27 22.9 27 32.8 27 43 C18.09 43 9.18 43 0 43 C0 28.81 0 14.62 0 0 Z " fill="#598E33" transform="translate(103,39)"/>
<path d="M0 0 C0.66 0 1.32 0 2 0 C2 14.19 2 28.38 2 43 C-6.91 43 -15.82 43 -25 43 C-25 33.1 -25 23.2 -25 13 C-20.71 11.35 -16.42 9.7 -12 8 C-8.47065666 6.1515905 -8.47065666 6.1515905 -5.75 4.25 C-4.85796875 3.65703125 -3.9659375 3.0640625 -3.046875 2.453125 C-1.10363925 1.15939034 -1.10363925 1.15939034 0 0 Z " fill="#1184BB" transform="translate(99,39)"/>
<path d="M0 0 C26.4 0 52.8 0 80 0 C77.43735886 6.40660286 77.43735886 6.40660286 75 8 C72.41225229 8.26153069 70.07100347 8.34958438 67.48828125 8.29296875 C66.76005661 8.28872391 66.03183197 8.28447906 65.28153992 8.28010559 C62.95814873 8.26332733 60.6356285 8.22567855 58.3125 8.1875 C56.73634066 8.17245197 55.16016771 8.15876377 53.58398438 8.14648438 C49.72232123 8.11342685 45.86130822 8.06165194 42 8 C42 9.65 42 11.3 42 13 C43.98 13 45.96 13 48 13 C48 13.66 48 14.32 48 15 C47.01 15.66 46.02 16.32 45 17 C44.7497843 20.08365871 44.7497843 20.08365871 45 23 C43.63875 22.443125 43.63875 22.443125 42.25 21.875 C39.11902985 20.69640701 39.11902985 20.69640701 36.625 21.875 C36.08875 22.24625 35.5525 22.6175 35 23 C35.061875 22.05125 35.12375 21.1025 35.1875 20.125 C35.125625 19.09375 35.06375 18.0625 35 17 C34.01 16.34 33.02 15.68 32 15 C32 14.34 32 13.68 32 13 C33.98 13 35.96 13 38 13 C38 11.35 38 9.7 38 8 C28.1 8 18.2 8 8 8 C7.67 8.99 7.34 9.98 7 11 C4 7.25 4 7.25 4 5 C3.34 5 2.68 5 2 5 C1.34 3.35 0.68 1.7 0 0 Z " fill="#75A91F" transform="translate(62,120)"/>
<path d="M0 0 C16.70836184 -1.83571015 16.70836184 -1.83571015 21.984375 2.390625 C24.19036952 5.50404989 26.09549829 8.69560814 28 12 C33.23029059 18.15082174 39.59349175 23.13596159 46 28 C46.57153809 28.44263184 47.14307617 28.88526367 47.73193359 29.34130859 C49.57956052 30.76583728 51.44333903 32.16638317 53.3125 33.5625 C53.89918457 34.0167334 54.48586914 34.4709668 55.09033203 34.93896484 C57.67094891 36.8285687 59.3689122 38.00658363 62.62109375 37.97265625 C65.29934094 36.87760937 67.4103312 35.58005275 69.75 33.875 C70.62140625 33.24078125 71.4928125 32.6065625 72.390625 31.953125 C73.25171875 31.30859375 74.1128125 30.6640625 75 30 C76.13695313 29.15695313 76.13695313 29.15695313 77.296875 28.296875 C86.9123486 21.00002624 97.36319067 12.72435299 103.6484375 2.25390625 C106.73364618 -0.70317915 108.60777613 -0.5229657 112.75 -0.43945312 C113.575 -0.39755859 114.4 -0.35566406 115.25 -0.3125 C116.09046875 -0.28994141 116.9309375 -0.26738281 117.796875 -0.24414062 C119.86534964 -0.18537714 121.93290488 -0.09569885 124 0 C120.91834402 1.72486131 118.14082878 2.40309493 114.6875 3.0625 C108.04616844 4.80231691 105.63688866 8.4563027 102 14 C94.32251931 24.23664092 83.22919956 31.52374076 73 39 C72.15953125 39.63808594 71.3190625 40.27617187 70.453125 40.93359375 C69.68484375 41.49175781 68.9165625 42.04992187 68.125 42.625 C67.46757813 43.11226562 66.81015625 43.59953125 66.1328125 44.1015625 C63.06427432 45.39417016 61.17358496 44.87701898 58 44 C55.578125 42.65234375 55.578125 42.65234375 53.25 40.9375 C52.38890625 40.30457031 51.5278125 39.67164063 50.640625 39.01953125 C22.83974775 17.75761773 22.83974775 17.75761773 17.2265625 7.87890625 C14.39164157 4.21340322 11.59666432 3.52062649 7.25 2.625 C6.55261719 2.46128906 5.85523438 2.29757813 5.13671875 2.12890625 C3.42930313 1.73128891 1.71518033 1.36266251 0 1 C0 0.67 0 0.34 0 0 Z " fill="#0C2C64" transform="translate(40,120)"/>
<path d="M0 0 C7.8125 1.9375 7.8125 1.9375 10.19848633 2.54272461 C16.26860023 4.0073139 21.59547662 4.4177706 28 5 C28 12.92 28 20.84 28 29 C18.76 29 9.52 29 0 29 C0 19.43 0 9.86 0 0 Z " fill="#EA3D12" transform="translate(132,53)"/>
<path d="M0 0 C0 9.57 0 19.14 0 29 C-8.91 29 -17.82 29 -27 29 C-27.61012019 22.89879812 -28.12167227 17.41057129 -28.0625 11.375 C-28.05347656 10.16585937 -28.04445312 8.95671875 -28.03515625 7.7109375 C-28.02355469 6.81632812 -28.01195312 5.92171875 -28 5 C-27.42032471 4.91959473 -26.84064941 4.83918945 -26.2434082 4.75634766 C-23.59880997 4.38576028 -20.95569328 4.0054735 -18.3125 3.625 C-16.94448242 3.43550781 -16.94448242 3.43550781 -15.54882812 3.2421875 C-10.33409174 2.48368039 -5.10575842 0 0 0 Z " fill="#821215" transform="translate(72,53)"/>
<path d="M0 0 C2.5037806 1.46387172 4.88081508 3.01766096 7.2578125 4.6796875 C14.20474583 9.20700868 21.6730895 11.70688053 29.4453125 14.4296875 C30.61670776 14.93737671 30.61670776 14.93737671 31.81176758 15.45532227 C34.6459299 16.5039124 37.1852246 16.92850069 40.18359375 17.28125 C41.78364258 17.47460938 41.78364258 17.47460938 43.41601562 17.671875 C44.51880859 17.79820313 45.62160156 17.92453125 46.7578125 18.0546875 C47.87994141 18.18875 49.00207031 18.3228125 50.15820312 18.4609375 C52.91990778 18.78999167 55.68220266 19.11268743 58.4453125 19.4296875 C55.68945312 22.37548828 55.68945312 22.37548828 53.4921875 22.86328125 C44.45264604 22.87865462 35.9649692 20.26957307 27.4453125 17.4296875 C27.4453125 26.9996875 27.4453125 36.5696875 27.4453125 46.4296875 C27.1153125 46.4296875 26.7853125 46.4296875 26.4453125 46.4296875 C26.4453125 36.5296875 26.4453125 26.6296875 26.4453125 16.4296875 C23.4753125 15.4396875 20.5053125 14.4496875 17.4453125 13.4296875 C15.00404484 12.31541595 12.58473341 11.15118519 10.1953125 9.9296875 C9.03515625 9.341875 7.875 8.7540625 6.6796875 8.1484375 C3.88609554 6.66392003 1.15802063 5.05731238 -1.5546875 3.4296875 C-1.5546875 17.6196875 -1.5546875 31.8096875 -1.5546875 46.4296875 C-1.8846875 46.4296875 -2.2146875 46.4296875 -2.5546875 46.4296875 C-2.5546875 32.2396875 -2.5546875 18.0496875 -2.5546875 3.4296875 C-5.8546875 5.7396875 -9.1546875 8.0496875 -12.5546875 10.4296875 C-15.2572765 11.7179552 -17.7711666 12.85002096 -20.5546875 13.8671875 C-21.20824219 14.12177734 -21.86179688 14.37636719 -22.53515625 14.63867188 C-27.21786557 16.4296875 -27.21786557 16.4296875 -29.5546875 16.4296875 C-29.5546875 26.3296875 -29.5546875 36.2296875 -29.5546875 46.4296875 C-29.8846875 46.4296875 -30.2146875 46.4296875 -30.5546875 46.4296875 C-30.5546875 36.8596875 -30.5546875 27.2896875 -30.5546875 17.4296875 C-35.0096875 18.9146875 -35.0096875 18.9146875 -39.5546875 20.4296875 C-42.12532685 20.90097138 -44.71024305 21.30230161 -47.3046875 21.6171875 C-48.55765625 21.77574219 -49.810625 21.93429688 -51.1015625 22.09765625 C-53.95909721 22.3724192 -56.69056083 22.45570832 -59.5546875 22.4296875 C-59.50868408 23.08565918 -59.46268066 23.74163086 -59.4152832 24.41748047 C-59.21656687 27.37906258 -59.041596 30.34157885 -58.8671875 33.3046875 C-58.79435547 34.33722656 -58.72152344 35.36976562 -58.64648438 36.43359375 C-58.59169922 37.41972656 -58.53691406 38.40585938 -58.48046875 39.421875 C-58.42286377 40.33308105 -58.36525879 41.24428711 -58.3059082 42.18310547 C-58.38800537 42.92447754 -58.47010254 43.66584961 -58.5546875 44.4296875 C-59.5446875 45.0896875 -60.5346875 45.7496875 -61.5546875 46.4296875 C-61.5546875 37.5196875 -61.5546875 28.6096875 -61.5546875 19.4296875 C-58.7909375 19.2234375 -56.0271875 19.0171875 -53.1796875 18.8046875 C-43.72526101 17.92612424 -35.28222804 15.5034685 -26.43603516 12.140625 C-24.84500185 11.53939362 -23.23833823 10.97977373 -21.62890625 10.4296875 C-15.44491501 8.22041471 -10.54635491 4.79588744 -5.31640625 0.84375 C-2.5546875 -0.5703125 -2.5546875 -0.5703125 0 0 Z " fill="#E3EBF1" transform="translate(103.5546875,35.5703125)"/>
<path d="M0 0 C27.39 0 54.78 0 83 0 C83.495 1.485 83.495 1.485 84 3 C74.59386845 17.41643277 57.82179113 32.68341211 42 40 C37.32061016 39.28685956 33.96455207 36.49066545 30.1875 33.8125 C29.44209961 33.2851123 28.69669922 32.75772461 27.92871094 32.21435547 C18.0831165 25.0832785 8.32455539 16.77525249 1 7 C1 6.01 1 5.02 1 4 C1.66 4 2.32 4 3 4 C3 4.66 3 5.32 3 6 C3.66 6 4.32 6 5 6 C8 9.46153846 8 9.46153846 8 12 C8.99 12.33 9.98 12.66 11 13 C12.16347119 14.12925145 13.32117739 15.26504303 14.44921875 16.4296875 C19.93391871 21.98346429 25.94577092 26.89128643 32.1875 31.5625 C32.76943115 32.0164917 33.3513623 32.4704834 33.95092773 32.93823242 C36.72794873 34.96502735 38.55843186 35.99031399 42.02734375 36.06640625 C45.67341245 34.75842103 48.41409309 32.80142798 51.375 30.375 C51.94226807 29.92423096 52.50953613 29.47346191 53.09399414 29.0090332 C56.92316067 25.94428237 60.66616174 22.78503263 64.30859375 19.5 C65.81620927 18.16299224 67.40404653 16.91771414 69 15.6875 C73.70171607 11.82768901 78.27810136 6.44379729 81 1 C54.27 1.33 27.54 1.66 0 2 C0 1.34 0 0.68 0 0 Z " fill="#D8E1CF" transform="translate(61,119)"/>
<path d="M0 0 C10.56 0 21.12 0 32 0 C27.7141494 6.4287759 23.59764914 11.85883406 17 16 C12.75772791 16.52355607 9.1260966 16.05132653 5 15 C4.67 14.01 4.34 13.02 4 12 C3.34 12 2.68 12 2 12 C2.3125 10.0625 2.3125 10.0625 3 8 C3.99 7.67 4.98 7.34 6 7 C6 6.34 6 5.68 6 5 C4.02 5 2.04 5 0 5 C0 3.35 0 1.7 0 0 Z " fill="#609820" transform="translate(104,128)"/>
<path d="M0 0 C0 0.33 0 0.66 0 1 C1.98 1.33 3.96 1.66 6 2 C2.44623078 4.36917948 0.03228221 4.59170756 -4.1875 5.125 C-5.45980469 5.29257812 -6.73210938 5.46015625 -8.04296875 5.6328125 C-12.01346703 6.00124966 -16.01244404 6 -20 6 C-20 14.91 -20 23.82 -20 33 C-25.94 33 -31.88 33 -38 33 C-35.14521674 31.09681116 -33.58058692 30.5380901 -30.3125 29.875 C-29.50425781 29.70742187 -28.69601563 29.53984375 -27.86328125 29.3671875 C-27.24839844 29.24601562 -26.63351563 29.12484375 -26 29 C-26.00523682 28.18732666 -26.01047363 27.37465332 -26.01586914 26.53735352 C-26.03656994 22.87907678 -26.04963803 19.22081233 -26.0625 15.5625 C-26.07506836 13.6434082 -26.07506836 13.6434082 -26.08789062 11.68554688 C-26.09272461 9.86313477 -26.09272461 9.86313477 -26.09765625 8.00390625 C-26.10289307 6.87799072 -26.10812988 5.7520752 -26.11352539 4.59204102 C-26 2 -26 2 -25 1 C-16.69649368 0.05269858 -8.34952325 -0.15335859 0 0 Z " fill="#1C376B" transform="translate(62,49)"/>
<path d="M0 0 C8.66666667 4.33333333 17.33333333 8.66666667 26 13 C26 14.32 26 15.64 26 17 C17.75 17 9.5 17 1 17 C1 25.58 1 34.16 1 43 C0.67 43 0.34 43 0 43 C0 28.81 0 14.62 0 0 Z " fill="#5E971D" transform="translate(103,39)"/>
<path d="M0 0 C1.65 0.66 3.3 1.32 5 2 C5.66 1.34 6.32 0.68 7 0 C7.33 0.66 7.66 1.32 8 2 C10.58605332 2.4683265 10.58605332 2.4683265 13.5625 2.625 C15.08037109 2.73714844 15.08037109 2.73714844 16.62890625 2.8515625 C17.80259766 2.92503906 17.80259766 2.92503906 19 3 C15.8147367 6.51477329 12.30979194 9.46497765 8.5625 12.375 C7.65628906 13.08398438 6.75007813 13.79296875 5.81640625 14.5234375 C3 16 3 16 0.11328125 16.0703125 C-4.07778786 14.62946816 -6.98980183 12.30568616 -10.375 9.5 C-11.01566406 8.98824219 -11.65632813 8.47648438 -12.31640625 7.94921875 C-13.90473905 6.66568329 -15.4560927 5.33664303 -17 4 C-17 3.67 -17 3.34 -17 3 C-16.02417969 3.03480469 -15.04835938 3.06960937 -14.04296875 3.10546875 C-12.13451172 3.14607422 -12.13451172 3.14607422 -10.1875 3.1875 C-8.29064453 3.23970703 -8.29064453 3.23970703 -6.35546875 3.29296875 C-3.03403555 3.30827421 -3.03403555 3.30827421 -1.05078125 1.48828125 C-0.70402344 0.99714844 -0.35726562 0.50601563 0 0 Z " fill="#286B1C" transform="translate(101,140)"/>
<path d="M0 0 C0.66 0 1.32 0 2 0 C2.2475 1.03125 2.495 2.0625 2.75 3.125 C3.55439226 6.02780684 4.30978116 7.43733811 6.125 10 C8.44124195 13.70598712 8.71582697 15.70503819 8 20 C5.41830549 22.96135546 3.81118865 23.86756104 -0.0625 24.5 C-3 24 -3 24 -5.375 22.5 C-7.63809947 19.0183085 -7.61820596 15.97737326 -7 12 C-5.40606014 7.29787742 -3.40721013 3.62703014 0 0 Z " fill="#F1F3F6" transform="translate(84,55)"/>
<path d="M0 0 C1.32 0 2.64 0 4 0 C4 4.29 4 8.58 4 13 C5.98 13 7.96 13 10 13 C10 13.99 10 14.98 10 16 C6.7 16 3.4 16 0 16 C0 15.01 0 14.02 0 13 C-0.66 13 -1.32 13 -2 13 C-2 13.66 -2 14.32 -2 15 C-5.3 15 -8.6 15 -12 15 C-12 10.38 -12 5.76 -12 1 C-10.205625 1.020625 -8.41125 1.04125 -6.5625 1.0625 C-4.70833878 1.0838122 -2.85287502 1.07226502 -1 1 C-0.67 0.67 -0.34 0.34 0 0 Z " fill="#DCDEE5" transform="translate(171,86)"/>
<path d="M0 0 C26.4 0 52.8 0 80 0 C79.67 0.99 79.34 1.98 79 3 C78.06483551 3.01030746 77.12967102 3.02061493 76.16616821 3.03123474 C67.36647105 3.12885946 58.56684633 3.23158304 49.76726723 3.33933926 C45.24298186 3.3945769 40.71869003 3.44799825 36.19433594 3.49731445 C31.83063392 3.54494559 27.46701183 3.59728795 23.103405 3.65294075 C21.43600827 3.67336998 19.76858962 3.69208211 18.10115433 3.70907402 C15.77129415 3.7331055 13.44158565 3.76316166 11.11181641 3.79467773 C10.41770157 3.8004332 9.72358673 3.80618866 9.00843811 3.81211853 C5.38144521 3.82920692 5.38144521 3.82920692 2 5 C1.34 3.35 0.68 1.7 0 0 Z " fill="#81B319" transform="translate(62,120)"/>
<path d="M0 0 C1.32 0 2.64 0 4 0 C4.12375 0.804375 4.2475 1.60875 4.375 2.4375 C4.58125 3.283125 4.7875 4.12875 5 5 C5.66 5.33 6.32 5.66 7 6 C7 5.01 7 4.02 7 3 C7.99 3 8.98 3 10 3 C10 4.32 10 5.64 10 7 C9.01 7 8.02 7 7 7 C7 8.32 7 9.64 7 11 C8.98 10.67 10.96 10.34 13 10 C13.33 11.32 13.66 12.64 14 14 C12.02 14 10.04 14 8 14 C7.67 14.66 7.34 15.32 7 16 C8.32 16.33 9.64 16.66 11 17 C10.67 17.99 10.34 18.98 10 20 C8.0625 19.625 8.0625 19.625 6 19 C5.67 18.34 5.34 17.68 5 17 C4.01 17 3.02 17 2 17 C2.33 18.32 2.66 19.64 3 21 C2.01 21 1.02 21 0 21 C-0.33 19.68 -0.66 18.36 -1 17 C-1.66 17 -2.32 17 -3 17 C-3.33 17.99 -3.66 18.98 -4 20 C-5.65 19.67 -7.3 19.34 -9 19 C-8.505 17.515 -8.505 17.515 -8 16 C-6.68 16 -5.36 16 -4 16 C-4 14.35 -4 12.7 -4 11 C-5.65 11 -7.3 11 -9 11 C-9 10.01 -9 9.02 -9 8 C-6.03 8.495 -6.03 8.495 -3 9 C-3 8.34 -3 7.68 -3 7 C-1.68 6.67 -0.36 6.34 1 6 C0.34 4.35 -0.32 2.7 -1 1 C-0.67 0.67 -0.34 0.34 0 0 Z " fill="#F7F8F7" transform="translate(114,58)"/>
<path d="M0 0 C0.33 0 0.66 0 1 0 C1 1.65 1 3.3 1 5 C1.99 5 2.98 5 4 5 C4 5.66 4 6.32 4 7 C3.01 7.495 3.01 7.495 2 8 C1.67 8.99 1.34 9.98 1 11 C2.65 11 4.3 11 6 11 C6 12.65 6 14.3 6 16 C4.68 16.33 3.36 16.66 2 17 C2 17.66 2 18.32 2 19 C3.32 19.33 4.64 19.66 6 20 C6.33 18.68 6.66 17.36 7 16 C8.32 16.66 9.64 17.32 11 18 C10.67 18.99 10.34 19.98 10 21 C10.99 21 11.98 21 13 21 C12.67 19.68 12.34 18.36 12 17 C13.32 16.67 14.64 16.34 16 16 C16.33 16.99 16.66 17.98 17 19 C17.99 19 18.98 19 20 19 C20 18.34 20 17.68 20 17 C19.01 16.67 18.02 16.34 17 16 C17.33 15.01 17.66 14.02 18 13 C20.31 13.66 22.62 14.32 25 15 C25 17.97 25 20.94 25 24 C16.75 24 8.5 24 0 24 C0 16.08 0 8.16 0 0 Z " fill="#145D1B" transform="translate(104,58)"/>
<path d="M0 0 C2.625 1.8125 2.625 1.8125 5 4 C5.61875 4.495 6.2375 4.99 6.875 5.5 C8 7 8 7 7.75 9.125 C7 11 7 11 6 12 C3.32941149 12.14115161 0.67567762 12.04247107 -2 12 C-1.938125 13.423125 -1.938125 13.423125 -1.875 14.875 C-2 18 -2 18 -4 20 C-4.33 17.69 -4.66 15.38 -5 13 C-7.31 12.34 -9.62 11.68 -12 11 C-12.33 9.35 -12.66 7.7 -13 6 C-11.78294994 4.98528829 -10.55073116 3.9887539 -9.3125 3 C-8.62800781 2.443125 -7.94351563 1.88625 -7.23828125 1.3125 C-4.561061 -0.25738832 -3.05655883 -0.38393969 0 0 Z " fill="#FEF7F2" transform="translate(149,58)"/>
<path d="M0 0 C2.1346875 -0.0309375 2.1346875 -0.0309375 4.3125 -0.0625 C5.51326172 -0.07990234 5.51326172 -0.07990234 6.73828125 -0.09765625 C9 0 9 0 12 1 C14.12843779 4.19265669 14.54997924 6.2413296 14.4375 10.05859375 C14 12 14 12 11.5 14.5 C8 16 8 16 0 16 C0 10.72 0 5.44 0 0 Z " fill="#3A4978" transform="translate(6,86)"/>
<path d="M0 0 C0.33 0 0.66 0 1 0 C1 5.61 1 11.22 1 17 C-7.25 17 -15.5 17 -24 17 C-24.1953125 6.2578125 -24.1953125 6.2578125 -24 3 C-23.34 2.34 -22.68 1.68 -22 1 C-21.96261719 1.61488281 -21.92523438 2.22976562 -21.88671875 2.86328125 C-21.82097656 3.67152344 -21.75523438 4.47976562 -21.6875 5.3125 C-21.62949219 6.11300781 -21.57148437 6.91351563 -21.51171875 7.73828125 C-20.90672582 10.41225763 -20.17150025 11.3623053 -18 13 C-14.17229616 13.58247667 -12.49556421 13.30835107 -9.1875 11.25 C-6.87666127 9.25468742 -6.87666127 9.25468742 -6.5 6.9375 C-6 5 -6 5 -3.5 3.375 C-2.675 2.92125 -1.85 2.4675 -1 2 C-0.67 1.34 -0.34 0.68 0 0 Z " fill="#0C2A62" transform="translate(99,65)"/>
<path d="M0 0 C8.415 1.98 8.415 1.98 17 4 C17 4.33 17 4.66 17 5 C15.700625 5.37125 15.700625 5.37125 14.375 5.75 C10.81697746 7.06778613 8.0773845 8.80186822 5 11 C5.33 12.65 5.66 14.3 6 16 C8.31 16.33 10.62 16.66 13 17 C13 18.98 13 20.96 13 23 C11.02 23 9.04 23 7 23 C7 22.34 7 21.68 7 21 C5.02 21 3.04 21 1 21 C1 23.64 1 26.28 1 29 C0.67 29 0.34 29 0 29 C0 19.43 0 9.86 0 0 Z " fill="#FCA107" transform="translate(132,53)"/>
<path d="M0 0 C9.24838941 -0.60844667 9.24838941 -0.60844667 12.625 2.125 C14.2303891 5.48172266 14.62488268 7.32881427 14 11 C12.625 13.375 12.625 13.375 10 15 C6.59266913 15.33111993 3.4389618 15.18099799 0 15 C0 10.05 0 5.1 0 0 Z " fill="#10205F" transform="translate(184,86)"/>
<path d="M0 0 C3.96 0 7.92 0 12 0 C12 4.95 12 9.9 12 15 C8.04 15 4.08 15 0 15 C0 10.05 0 5.1 0 0 Z " fill="#D1D4DC" transform="translate(87,86)"/>
<path d="M0 0 C3.16115776 1.36983503 3.9927092 1.9890638 6 5 C6.99 4.67 7.98 4.34 9 4 C10.20883939 8.31447553 10.64937235 12.54716103 10 17 C8 19.0625 8 19.0625 6 20 C5.87625 18.88625 5.7525 17.7725 5.625 16.625 C5.3534187 12.96896323 5.3534187 12.96896323 3 11 C2.67 12.32 2.34 13.64 2 15 C1.01 15 0.02 15 -1 15 C-1.33 16.65 -1.66 18.3 -2 20 C-3.32 19.34 -4.64 18.68 -6 18 C-6.08159574 13.83861737 -5.98248524 10.0527516 -5 6 C-4.01 6.33 -3.02 6.66 -2 7 C-1.34 4.69 -0.68 2.38 0 0 Z " fill="#F7E4E5" transform="translate(56,58)"/>
<path d="M0 0 C9.9 0 19.8 0 30 0 C30 1.65 30 3.3 30 5 C24.4617717 6.0668279 18.93207988 6.46875938 13.3125 6.8125 C12.36310547 6.88919922 11.41371094 6.96589844 10.43554688 7.04492188 C9.52482422 7.09841797 8.61410156 7.15191406 7.67578125 7.20703125 C6.4369519 7.29174683 6.4369519 7.29174683 5.1730957 7.37817383 C3 7 3 7 1.20776367 5.17456055 C0 3 0 3 0 0 Z " fill="#679E1D" transform="translate(70,128)"/>
<path d="M0 0 C0 8.25 0 16.5 0 25 C-0.33 25 -0.66 25 -1 25 C-1 21.04 -1 17.08 -1 13 C-7.93 13 -14.86 13 -22 13 C-22.33 12.34 -22.66 11.68 -23 11 C-21.7315625 10.56300781 -21.7315625 10.56300781 -20.4375 10.1171875 C-14.06050784 7.81277442 -8.67680201 5.54751691 -3.48828125 1.13671875 C-2 0 -2 0 0 0 Z " fill="#2EA4D6" transform="translate(101,39)"/>
<path d="M0 0 C3.63 0 7.26 0 11 0 C11 7.92 11 15.84 11 24 C10.67 24 10.34 24 10 24 C9.67 21.36 9.34 18.72 9 16 C7.02 16 5.04 16 3 16 C3 16.66 3 17.32 3 18 C2.34 18 1.68 18 1 18 C1 18.66 1 19.32 1 20 C-0.97746603 20.73080266 -2.98072489 21.39421747 -5 22 C-5.66 21.67 -6.32 21.34 -7 21 C-7 20.34 -7 19.68 -7 19 C-5.68 18.67 -4.36 18.34 -3 18 C-2.67 16.02 -2.34 14.04 -2 12 C0.64 11.67 3.28 11.34 6 11 C6.5534764 8.92446352 7 7.15634036 7 5 C6.21625 4.731875 5.4325 4.46375 4.625 4.1875 C2 3 2 3 0 0 Z " fill="#F27217" transform="translate(149,58)"/>
<path d="M0 0 C1.60875 -0.04125 3.2175 -0.0825 4.875 -0.125 C5.77992187 -0.14820312 6.68484375 -0.17140625 7.6171875 -0.1953125 C10 0 10 0 12 2 C12.20066595 4.54176872 12.10909327 6.59999133 11.4375 9.0625 C10.91957523 11.35616685 11.2883622 12.78601575 12 15 C11.01 15 10.02 15 9 15 C8.34 13.02 7.68 11.04 7 9 C5.68 9 4.36 9 3 9 C3 10.98 3 12.96 3 15 C2.01 15 1.02 15 0 15 C0 10.05 0 5.1 0 0 Z " fill="#304072" transform="translate(100,86)"/>
<path d="M0 0 C1.32 0 2.64 0 4 0 C4 1.98 4 3.96 4 6 C6.31 6 8.62 6 11 6 C11 4.02 11 2.04 11 0 C11.99 0 12.98 0 14 0 C14 4.95 14 9.9 14 15 C13.01 15 12.02 15 11 15 C11 13.02 11 11.04 11 9 C8.69 9 6.38 9 4 9 C4 11.31 4 13.62 4 16 C2.68 16 1.36 16 0 16 C0 10.72 0 5.44 0 0 Z " fill="#48527E" transform="translate(135,86)"/>
<path d="M0 0 C0 9.57 0 19.14 0 29 C-0.33 29 -0.66 29 -1 29 C-1.33 21.74 -1.66 14.48 -2 7 C-5.63 7 -9.26 7 -13 7 C-13.99 6.34 -14.98 5.68 -16 5 C-16.33 6.32 -16.66 7.64 -17 9 C-17 8.34 -17 7.68 -17 7 C-19.97 7 -22.94 7 -26 7 C-22.32850906 3.32850906 -20.68904257 3.44987366 -15.625 2.9375 C-10.29909142 2.38600059 -5.17359608 0 0 0 Z " fill="#D8242A" transform="translate(72,53)"/>
<path d="M0 0 C6.27 0 12.54 0 19 0 C19 3 19 3 16.6875 5.75 C13.50695786 8.31742558 11.11724407 8.18854363 7.125 7.8125 C5.41266981 7.56820756 3.70239543 7.30594651 2 7 C1.67 6.01 1.34 5.02 1 4 C0.34 4 -0.32 4 -1 4 C-0.67 2.68 -0.34 1.36 0 0 Z " fill="#47841C" transform="translate(107,136)"/>
<path d="M0 0 C1.65 0.66 3.3 1.32 5 2 C5.66 1.34 6.32 0.68 7 0 C7.33 0.66 7.66 1.32 8 2 C10.58605332 2.4683265 10.58605332 2.4683265 13.5625 2.625 C15.08037109 2.73714844 15.08037109 2.73714844 16.62890625 2.8515625 C17.80259766 2.92503906 17.80259766 2.92503906 19 3 C17.35 4.65 15.7 6.3 14 8 C13.67 7.34 13.34 6.68 13 6 C5.08 6 -2.84 6 -11 6 C-11.33 6.66 -11.66 7.32 -12 8 C-13.65 6.35 -15.3 4.7 -17 3 C-16.02417969 3.03480469 -15.04835938 3.06960937 -14.04296875 3.10546875 C-12.13451172 3.14607422 -12.13451172 3.14607422 -10.1875 3.1875 C-8.29064453 3.23970703 -8.29064453 3.23970703 -6.35546875 3.29296875 C-3.03403555 3.30827421 -3.03403555 3.30827421 -1.05078125 1.48828125 C-0.70402344 0.99714844 -0.35726562 0.50601563 0 0 Z " fill="#34771D" transform="translate(101,140)"/>
<path d="M0 0 C1.39664108 0.11562606 2.79231199 0.242992 4.1875 0.375 C4.96480469 0.44460937 5.74210938 0.51421875 6.54296875 0.5859375 C9 1 9 1 11.29492188 1.97265625 C14.16455564 3.0624955 16.69384835 3.49339392 19.73828125 3.8515625 C21.33833008 4.04492188 21.33833008 4.04492188 22.97070312 4.2421875 C24.07349609 4.36851563 25.17628906 4.49484375 26.3125 4.625 C27.43462891 4.7590625 28.55675781 4.893125 29.71289062 5.03125 C32.47459528 5.36030417 35.23689016 5.68299993 38 6 C35.24414062 8.94580078 35.24414062 8.94580078 33.046875 9.43359375 C24.00733354 9.44896712 15.5196567 6.83988557 7 4 C7 13.57 7 23.14 7 33 C6.67 33 6.34 33 6 33 C6 23.1 6 13.2 6 3 C4.02 2.34 2.04 1.68 0 1 C0 0.67 0 0.34 0 0 Z " fill="#EAEBE4" transform="translate(124,49)"/>
<path d="M0 0 C9 4.5 9 4.5 18 9 C18 9.33 18 9.66 18 10 C12.39 10 6.78 10 1 10 C1 20.89 1 31.78 1 43 C0.67 43 0.34 43 0 43 C0 28.81 0 14.62 0 0 Z " fill="#7EAA3F" transform="translate(103,39)"/>
<path d="M0 0 C1.32 0 2.64 0 4 0 C4.81381795 1.93694678 5.62600916 3.87457711 6.4375 5.8125 C7.11619141 7.43091797 7.11619141 7.43091797 7.80859375 9.08203125 C8.60375013 11.0295126 9.33479648 13.00438943 10 15 C9.01 15 8.02 15 7 15 C6.67 14.34 6.34 13.68 6 13 C3.36 13 0.72 13 -2 13 C-2.33 13.66 -2.66 14.32 -3 15 C-3.99 14.67 -4.98 14.34 -6 14 C-5.65066406 13.24074219 -5.30132812 12.48148438 -4.94140625 11.69921875 C-4.25884766 10.20841797 -4.25884766 10.20841797 -3.5625 8.6875 C-3.11003906 7.70136719 -2.65757813 6.71523437 -2.19140625 5.69921875 C-0.94268008 2.98434301 -0.94268008 2.98434301 0 0 Z " fill="#142762" transform="translate(48,86)"/>
<path d="M0 0 C0.66 0 1.32 0 2 0 C2.33 1.32 2.66 2.64 3 4 C5.97 4.495 5.97 4.495 9 5 C9 5.66 9 6.32 9 7 C8.01 7.66 7.02 8.32 6 9 C5.7497843 12.08365871 5.7497843 12.08365871 6 15 C5.0925 14.62875 4.185 14.2575 3.25 13.875 C0.11902985 12.69640701 0.11902985 12.69640701 -2.375 13.875 C-2.91125 14.24625 -3.4475 14.6175 -4 15 C-3.9071875 13.576875 -3.9071875 13.576875 -3.8125 12.125 C-3.874375 11.09375 -3.93625 10.0625 -4 9 C-4.99 8.34 -5.98 7.68 -7 7 C-7 6.34 -7 5.68 -7 5 C-5.02 4.67 -3.04 4.34 -1 4 C-0.67 2.68 -0.34 1.36 0 0 Z " fill="#E5EDE1" transform="translate(101,128)"/>
<path d="M0 0 C2.64 0 5.28 0 8 0 C8.33 0.99 8.66 1.98 9 3 C6.36 3 3.72 3 1 3 C1 3.99 1 4.98 1 6 C3.64 6.66 6.28 7.32 9 8 C9.625 10.375 9.625 10.375 10 13 C8 15 8 15 5.8359375 15.1953125 C4.61777344 15.16050781 4.61777344 15.16050781 3.375 15.125 C2.55773437 15.10695313 1.74046875 15.08890625 0.8984375 15.0703125 C0.27195312 15.04710938 -0.35453125 15.02390625 -1 15 C-1.33 14.01 -1.66 13.02 -2 12 C0.64 12 3.28 12 6 12 C6.33 11.34 6.66 10.68 7 10 C5.88625 9.87625 4.7725 9.7525 3.625 9.625 C0 9 0 9 -2 7 C-2.125 4.375 -2.125 4.375 -2 2 C-1.34 2 -0.68 2 0 2 C0 1.34 0 0.68 0 0 Z " fill="#3B4778" transform="translate(123,86)"/>
<path d="M0 0 C2.01822917 0.06510417 4.03645833 0.13020833 6.0546875 0.1953125 C5.7246875 1.5153125 5.3946875 2.8353125 5.0546875 4.1953125 C2.0846875 3.7003125 2.0846875 3.7003125 -0.9453125 3.1953125 C-0.6153125 4.1853125 -0.2853125 5.1753125 0.0546875 6.1953125 C3.06316168 7.42051514 3.06316168 7.42051514 6.0546875 8.1953125 C6.6796875 10.5703125 6.6796875 10.5703125 7.0546875 13.1953125 C5.0546875 15.1953125 5.0546875 15.1953125 2.890625 15.390625 C1.67246094 15.35582031 1.67246094 15.35582031 0.4296875 15.3203125 C-0.38757812 15.30226563 -1.20484375 15.28421875 -2.046875 15.265625 C-2.67335937 15.24242188 -3.29984375 15.21921875 -3.9453125 15.1953125 C-3.9453125 14.2053125 -3.9453125 13.2153125 -3.9453125 12.1953125 C-1.6353125 12.1953125 0.6746875 12.1953125 3.0546875 12.1953125 C3.3846875 11.5353125 3.7146875 10.8753125 4.0546875 10.1953125 C2.9409375 10.0921875 1.8271875 9.9890625 0.6796875 9.8828125 C-1.1146875 9.5425 -1.1146875 9.5425 -2.9453125 9.1953125 C-4.9453125 6.1953125 -4.9453125 6.1953125 -4.6953125 4.1328125 C-3.6954112 1.54973413 -2.84476666 0.28561914 0 0 Z " fill="#424E7C" transform="translate(63.9453125,85.8046875)"/>
<path d="M0 0 C0.33 1.32 0.66 2.64 1 4 C-1.31 3.67 -3.62 3.34 -6 3 C-5.67 3.99 -5.34 4.98 -5 6 C-1.99152582 7.22520264 -1.99152582 7.22520264 1 8 C1.625 10.375 1.625 10.375 2 13 C0 15 0 15 -2.1640625 15.1953125 C-3.38222656 15.16050781 -3.38222656 15.16050781 -4.625 15.125 C-5.44226562 15.10695313 -6.25953125 15.08890625 -7.1015625 15.0703125 C-7.72804688 15.04710938 -8.35453125 15.02390625 -9 15 C-9.33 14.01 -9.66 13.02 -10 12 C-7.36 12 -4.72 12 -2 12 C-2 11.34 -2 10.68 -2 10 C-4.31 9.34 -6.62 8.68 -9 8 C-9.6875 5.6875 -9.6875 5.6875 -10 3 C-7.7638263 -1.05306482 -4.16821004 -0.23593642 0 0 Z " fill="#21356C" transform="translate(39,86)"/>
<path d="M0 0 C3.63 0.66 7.26 1.32 11 2 C11.33 2.99 11.66 3.98 12 5 C10.5625 7.1875 10.5625 7.1875 9 9 C9 8.01 9 7.02 9 6 C8.34 6 7.68 6 7 6 C7.020625 6.804375 7.04125 7.60875 7.0625 8.4375 C7 11 7 11 6 12 C4.33382885 12.04063832 2.66611905 12.042721 1 12 C0.67 12.66 0.34 13.32 0 14 C0 9.38 0 4.76 0 0 Z " fill="#CF171E" transform="translate(44,58)"/>
<path d="M0 0 C3.63 0 7.26 0 11 0 C11 4.62 11 9.24 11 14 C10.34 13.01 9.68 12.02 9 11 C5.91634129 10.7497843 5.91634129 10.7497843 3 11 C3 9.68 3 8.36 3 7 C3.99 7 4.98 7 6 7 C6 5.68 6 4.36 6 3 C5.01 3 4.02 3 3 3 C3 3.99 3 4.98 3 6 C1.68 5.34 0.36 4.68 -1 4 C-0.67 2.68 -0.34 1.36 0 0 Z " fill="#4A871D" transform="translate(118,58)"/>
<path d="M0 0 C3.3 0 6.6 0 10 0 C10 0.66 10 1.32 10 2 C7.69 2 5.38 2 3 2 C3 2.99 3 3.98 3 5 C5.31 5 7.62 5 10 5 C10 5.99 10 6.98 10 8 C7.69 8 5.38 8 3 8 C3 9.32 3 10.64 3 12 C5.31 12 7.62 12 10 12 C10 12.66 10 13.32 10 14 C6.7 14 3.4 14 0 14 C0 9.38 0 4.76 0 0 Z " fill="#4D5982" transform="translate(159,87)"/>
<path d="M0 0 C10.56 0 21.12 0 32 0 C31.01 1.32 30.02 2.64 29 4 C27.88367188 3.83886719 26.76734375 3.67773438 25.6171875 3.51171875 C20.78049766 2.90953061 15.99433263 2.81628054 11.125 2.8125 C10.27164063 2.80025391 9.41828125 2.78800781 8.5390625 2.77539062 C7.724375 2.77345703 6.9096875 2.77152344 6.0703125 2.76953125 C4.96840576 2.76336792 4.96840576 2.76336792 3.84423828 2.75708008 C1.75185529 2.84233797 1.75185529 2.84233797 0 5 C0 3.35 0 1.7 0 0 Z " fill="#679E1E" transform="translate(104,128)"/>
<path d="M0 0 C0.33 0.99 0.66 1.98 1 3 C-3.62 3.33 -8.24 3.66 -13 4 C-12.89300781 5.56492187 -12.78601562 7.12984375 -12.67578125 8.7421875 C-12.55387806 10.78641022 -12.43282839 12.83068397 -12.3125 14.875 C-12.23966797 15.90753906 -12.16683594 16.94007812 -12.09179688 18.00390625 C-12.03701172 18.99003906 -11.98222656 19.97617188 -11.92578125 20.9921875 C-11.86817627 21.90339355 -11.81057129 22.81459961 -11.7512207 23.75341797 C-11.83331787 24.49479004 -11.91541504 25.23616211 -12 26 C-12.99 26.66 -13.98 27.32 -15 28 C-15 19.09 -15 10.18 -15 1 C-9.74120549 0.34265069 -5.20615812 -0.10846163 0 0 Z " fill="#D7C7CD" transform="translate(57,54)"/>
<path d="M0 0 C3.3 0 6.6 0 10 0 C11.28571429 9.57142857 11.28571429 9.57142857 10 14 C9.01 14 8.02 14 7 14 C6.34 15.32 5.68 16.64 5 18 C4.34 17.67 3.68 17.34 3 17 C3.66 16.34 4.32 15.68 5 15 C5.24360073 11.87185486 5.24360073 11.87185486 5.125 8.375 C5.09792969 6.59222656 5.09792969 6.59222656 5.0703125 4.7734375 C5.04710938 3.85820313 5.02390625 2.94296875 5 2 C4.34 2 3.68 2 3 2 C2.67 2.99 2.34 3.98 2 5 C1.34 3.35 0.68 1.7 0 0 Z " fill="#BC151C" transform="translate(60,60)"/>
<path d="M0 0 C0.33 0 0.66 0 1 0 C1.027193 1.58323688 1.04648306 3.16661062 1.0625 4.75 C1.07410156 5.63171875 1.08570312 6.5134375 1.09765625 7.421875 C1 10 1 10 0 14 C-3.96 14 -7.92 14 -12 14 C-11.195625 13.2575 -10.39125 12.515 -9.5625 11.75 C-6.89544914 9.34363334 -6.89544914 9.34363334 -6.5 6.875 C-6 5 -6 5 -3.5 3.375 C-2.675 2.92125 -1.85 2.4675 -1 2 C-0.67 1.34 -0.34 0.68 0 0 Z " fill="#0A4D84" transform="translate(99,65)"/>
<path d="M0 0 C0.97646484 0.00322266 1.95292969 0.00644531 2.95898438 0.00976562 C3.96638672 0.01814453 4.97378906 0.02652344 6.01171875 0.03515625 C7.03845703 0.03966797 8.06519531 0.04417969 9.12304688 0.04882812 C11.64849757 0.06057441 14.1738278 0.0770006 16.69921875 0.09765625 C17.02921875 1.08765625 17.35921875 2.07765625 17.69921875 3.09765625 C14.31285566 3.84281524 11.07978772 4.26536188 7.6171875 4.4140625 C6.22016602 4.4769043 6.22016602 4.4769043 4.79492188 4.54101562 C3.83521484 4.58033203 2.87550781 4.61964844 1.88671875 4.66015625 C0.90767578 4.70333984 -0.07136719 4.74652344 -1.08007812 4.79101562 C-3.48685152 4.89667885 -5.89372108 4.99877952 -8.30078125 5.09765625 C-8.96078125 3.77765625 -9.62078125 2.45765625 -10.30078125 1.09765625 C-6.80085429 0.30058857 -3.58655815 -0.02097402 0 0 Z " fill="#5F971F" transform="translate(81.30078125,129.90234375)"/>
<path d="M0 0 C0.99 0.495 0.99 0.495 2 1 C1.67 6.28 1.34 11.56 1 17 C4.96 17 8.92 17 13 17 C13 18.98 13 20.96 13 23 C11.02 23 9.04 23 7 23 C7 22.34 7 21.68 7 21 C5.02 21 3.04 21 1 21 C1 23.64 1 26.28 1 29 C0.67 29 0.34 29 0 29 C0 19.43 0 9.86 0 0 Z " fill="#F38545" transform="translate(132,53)"/>
<path d="M0 0 C3.3 0 6.6 0 10 0 C10 8.58 10 17.16 10 26 C19.9 25.505 19.9 25.505 30 25 C30 25.66 30 26.32 30 27 C23.07 27 16.14 27 9 27 C7.74161443 24.48322887 7.79181027 22.58706712 7.68359375 19.7734375 C7.64169922 18.7421875 7.59980469 17.7109375 7.55664062 16.6484375 C7.51732422 15.56820312 7.47800781 14.48796875 7.4375 13.375 C7.39431641 12.28703125 7.35113281 11.1990625 7.30664062 10.078125 C7.2003547 7.3855483 7.09831943 4.69287747 7 2 C4.69 1.67 2.38 1.34 0 1 C0 0.67 0 0.34 0 0 Z " fill="#F3EEEB" transform="translate(152,56)"/>
<path d="M0 0 C1.18239258 0.01353516 1.18239258 0.01353516 2.38867188 0.02734375 C4.32174666 0.05077496 6.2546638 0.08664162 8.1875 0.125 C8.1875 1.445 8.1875 2.765 8.1875 4.125 C1.2575 4.125 -5.6725 4.125 -12.8125 4.125 C-13.1425 3.465 -13.4725 2.805 -13.8125 2.125 C-9.18433267 -0.23082065 -5.05715865 -0.11021469 0 0 Z " fill="#1293CA" transform="translate(91.8125,47.875)"/>
<path d="M0 0 C0.33 0 0.66 0 1 0 C1.33 6.6 1.66 13.2 2 20 C6.95 21.65 11.9 23.3 17 25 C17 25.33 17 25.66 17 26 C11.06 26 5.12 26 -1 26 C-0.67 17.42 -0.34 8.84 0 0 Z " fill="#0C2761" transform="translate(163,56)"/>
<path d="M0 0 C3.3 0 6.6 0 10 0 C10 0.33 10 0.66 10 1 C7.69 1 5.38 1 3 1 C3 2.65 3 4.3 3 6 C5.31 6 7.62 6 10 6 C10 6.66 10 7.32 10 8 C7.69 8 5.38 8 3 8 C3 9.32 3 10.64 3 12 C5.31 12 7.62 12 10 12 C10 12.66 10 13.32 10 14 C6.7 14 3.4 14 0 14 C0 9.38 0 4.76 0 0 Z " fill="#1E3266" transform="translate(87,87)"/>
<path d="M0 0 C0.33 0 0.66 0 1 0 C1 1.65 1 3.3 1 5 C3.31 5 5.62 5 8 5 C7 7.5 7 7.5 6 10 C5.67 10.9075 5.34 11.815 5 12.75 C4 15 4 15 2 16 C1.52998967 19.27555608 1.52998967 19.27555608 1.375 23.0625 C1.30023438 24.35285156 1.22546875 25.64320312 1.1484375 26.97265625 C1.09945312 27.97167969 1.05046875 28.97070312 1 30 C0.67 30 0.34 30 0 30 C0 20.1 0 10.2 0 0 Z " fill="#3C7EAA" transform="translate(74,52)"/>
<path d="M0 0 C4.29 0 8.58 0 13 0 C13 0.99 13 1.98 13 3 C11.35 3 9.7 3 8 3 C8 6.96 8 10.92 8 15 C7.01 15 6.02 15 5 15 C5 11.04 5 7.08 5 3 C3.35 3 1.7 3 0 3 C0 2.01 0 1.02 0 0 Z " fill="#25346B" transform="translate(72,86)"/>
<path d="M0 0 C2.58340384 -0.02703562 5.16652308 -0.04685611 7.75 -0.0625 C8.47960937 -0.07087891 9.20921875 -0.07925781 9.9609375 -0.08789062 C13.48670558 -0.10391684 16.61034916 0.04707287 20 1 C20 2.32 20 3.64 20 5 C19.319375 4.814375 18.63875 4.62875 17.9375 4.4375 C14.4188418 3.91344452 11.49540781 4.41743203 8 5 C2 5 2 5 -1 4 C-0.67 2.68 -0.34 1.36 0 0 Z " fill="#E59092" transform="translate(99,109)"/>
<path d="M0 0 C0 1.98 0 3.96 0 6 C-1.32 5.67 -2.64 5.34 -4 5 C-4 4.34 -4 3.68 -4 3 C-4.66 3 -5.32 3 -6 3 C-6 3.66 -6 4.32 -6 5 C-10.3164922 5.76173392 -13.74433453 6.16063604 -18 5 C-17.67 3.68 -17.34 2.36 -17 1 C-13.33333333 1 -9.66666667 1 -6 1 C-3 0 -3 0 0 0 Z " fill="#E48F91" transform="translate(66,108)"/>
<path d="M0 0 C5.61 0 11.22 0 17 0 C12 5 12 5 9.0625 6.0625 C4.99118467 5.97941193 3.08544061 4.57120051 0 2 C0 1.34 0 0.68 0 0 Z " fill="#236524" transform="translate(94,150)"/>
<path d="M0 0 C0.66 0 1.32 0 2 0 C6.57142857 7.28571429 6.57142857 7.28571429 6 12 C4.02 12.99 4.02 12.99 2 14 C-2.04885993 8.84690554 -2.04885993 8.84690554 -1.8125 4.75 C-1 2 -1 2 0 0 Z " fill="#F7F9FA" transform="translate(92,56)"/>
<path d="M0 0 C2.97 0.495 2.97 0.495 6 1 C6 1.99 6 2.98 6 4 C6.66 4 7.32 4 8 4 C9.02196992 4.97753644 10.01979625 5.9805881 11 7 C11.99 7.66 12.98 8.32 14 9 C13.01 9 12.02 9 11 9 C11.33 10.32 11.66 11.64 12 13 C11.01 13 10.02 13 9 13 C8.67 11.68 8.34 10.36 8 9 C7.34 9 6.68 9 6 9 C5.67 9.99 5.34 10.98 5 12 C3.35 11.67 1.7 11.34 0 11 C0.33 10.01 0.66 9.02 1 8 C2.32 8 3.64 8 5 8 C5 6.35 5 4.7 5 3 C3.35 3 1.7 3 0 3 C0 2.01 0 1.02 0 0 Z " fill="#B9C9BA" transform="translate(105,66)"/>
<path d="M0 0 C3.63 0 7.26 0 11 0 C11 7.92 11 15.84 11 24 C10.67 24 10.34 24 10 24 C9.67 18.06 9.34 12.12 9 6 C8.01 6.495 8.01 6.495 7 7 C7 6.34 7 5.68 7 5 C6.21625 4.731875 5.4325 4.46375 4.625 4.1875 C2 3 2 3 0 0 Z " fill="#FA9E27" transform="translate(149,58)"/>
<path d="M0 0 C1.98 0 3.96 0 6 0 C7.38125018 2.76250036 7.19079306 4.94731099 7 8 C6.34 8.66 5.68 9.32 5 10 C3.35 10 1.7 10 0 10 C0 6.7 0 3.4 0 0 Z " fill="#EDEEF1" transform="translate(187,89)"/>
<path d="M0 0 C3.06273831 -0.05410136 6.12451452 -0.09372225 9.1875 -0.125 C10.48397461 -0.15013672 10.48397461 -0.15013672 11.80664062 -0.17578125 C16.32208103 -0.21038233 19.90081483 -0.15567916 24 2 C24 2.33 24 2.66 24 3 C16.08 3 8.16 3 0 3 C0 2.01 0 1.02 0 0 Z " fill="#679E1E" transform="translate(104,49)"/>
<path d="M0 0 C1.32 0 2.64 0 4 0 C4 5.28 4 10.56 4 16 C2.68 16 1.36 16 0 16 C0 10.72 0 5.44 0 0 Z " fill="#4C5481" transform="translate(152,86)"/>
<path d="M0 0 C1.65 0 3.3 0 5 0 C7 2 7 2 7.3125 5 C7.209375 5.99 7.10625 6.98 7 8 C4 10 4 10 0 10 C0 6.7 0 3.4 0 0 Z " fill="#F2F3F5" transform="translate(10,89)"/>
<path d="M0 0 C3.3125 -0.25 3.3125 -0.25 7 0 C8.9375 1.875 8.9375 1.875 10 4 C10 4.66 10 5.32 10 6 C8.68 6.33 7.36 6.66 6 7 C6 7.66 6 8.32 6 9 C4.35 8.67 2.7 8.34 1 8 C1.66 7.67 2.32 7.34 3 7 C3 6.34 3 5.68 3 5 C2.01 5 1.02 5 0 5 C0 3.35 0 1.7 0 0 Z " fill="#498521" transform="translate(105,58)"/>
<path d="M0 0 C2.97 0 5.94 0 9 0 C9 0.66 9 1.32 9 2 C7.02 2 5.04 2 3 2 C3 3.65 3 5.3 3 7 C4.32 7.33 5.64 7.66 7 8 C5.68 8 4.36 8 3 8 C3 9.98 3 11.96 3 14 C2.01 14 1.02 14 0 14 C0 9.38 0 4.76 0 0 Z " fill="#192E67" transform="translate(100,87)"/>
<path d="M0 0 C0.68707555 2.49064888 1 4.37886292 1 7 C-1.41854446 7.13536629 -3.82949783 7.23420279 -6.25 7.3125 C-7.27287109 7.3753418 -7.27287109 7.3753418 -8.31640625 7.43945312 C-10.328125 7.48828125 -10.328125 7.48828125 -14 7 C-15.32 5.35 -16.64 3.7 -18 2 C-12.06 2.33 -6.12 2.66 0 3 C0 2.01 0 1.02 0 0 Z " fill="#42801E" transform="translate(97,137)"/>
<path d="M0 0 C0.99 0 1.98 0 3 0 C3 3.96 3 7.92 3 12 C4.98 12 6.96 12 9 12 C9 12.66 9 13.32 9 14 C6.03 14 3.06 14 0 14 C0 9.38 0 4.76 0 0 Z " fill="#00205E" transform="translate(172,87)"/>
<path d="M0 0 C1.65 0 3.3 0 5 0 C5.94220126 5.52708611 6.12116149 10.83758352 6.0625 16.4375 C6.05798828 17.26443359 6.05347656 18.09136719 6.04882812 18.94335938 C6.03715811 20.96227146 6.01922718 22.98114574 6 25 C5.67 25 5.34 25 5 25 C4.95101562 23.96359375 4.90203125 22.9271875 4.8515625 21.859375 C4.77650403 20.48955792 4.70095753 19.11976752 4.625 17.75 C4.5940625 17.06808594 4.563125 16.38617188 4.53125 15.68359375 C4.21413994 10.23987102 2.96226223 7.44339334 0 3 C0 2.01 0 1.02 0 0 Z " fill="#3076A4" transform="translate(95,57)"/>
<path d="M0 0 C6.6 0.66 13.2 1.32 20 2 C17 5 17 5 14.8359375 5.36328125 C8.9979326 5.24281448 3.64000602 4.52579873 -2 3 C-1.34 2.01 -0.68 1.02 0 0 Z " fill="#D8C2AE" transform="translate(142,53)"/>
<path d="M0 0 C6.75 0.75 6.75 0.75 9 3 C8.44444444 7.55555556 8.44444444 7.55555556 7 9 C5.48071962 9.07179964 3.95832518 9.08392007 2.4375 9.0625 C1.61121094 9.05347656 0.78492188 9.04445313 -0.06640625 9.03515625 C-0.70449219 9.02355469 -1.34257813 9.01195313 -2 9 C-2 8.01 -2 7.02 -2 6 C0.31 6 2.62 6 5 6 C5 5.34 5 4.68 5 4 C2.525 3.01 2.525 3.01 0 2 C0 1.34 0 0.68 0 0 Z " fill="#0D1B5B" transform="translate(62,92)"/>
<path d="M0 0 C0.33 0 0.66 0 1 0 C1 1.65 1 3.3 1 5 C1.99 5 2.98 5 4 5 C4 5.66 4 6.32 4 7 C3.01 7.495 3.01 7.495 2 8 C1.67 8.99 1.34 9.98 1 11 C2.65 11 4.3 11 6 11 C6 12.65 6 14.3 6 16 C4.34385343 16.38218767 2.67542976 16.71395102 1 17 C0 16 0 16 -0.09765625 12.40234375 C-0.0909822 10.91403133 -0.07902183 9.42573568 -0.0625 7.9375 C-0.05798828 7.17888672 -0.05347656 6.42027344 -0.04882812 5.63867188 C-0.0370068 3.75908129 -0.01907078 1.87953101 0 0 Z " fill="#2C7124" transform="translate(104,58)"/>
<path d="M0 0 C1.65 0 3.3 0 5 0 C5.36122881 1.31057393 5.71380311 2.62353624 6.0625 3.9375 C6.25972656 4.66839844 6.45695312 5.39929688 6.66015625 6.15234375 C6.77230469 6.76207031 6.88445313 7.37179688 7 8 C6 9 6 9 2.9375 9.0625 C1.968125 9.041875 0.99875 9.02125 0 9 C0 6.03 0 3.06 0 0 Z " fill="#9D090C" transform="translate(45,70)"/>
<path d="M0 0 C2.97 0.495 2.97 0.495 6 1 C6.625 3.375 6.625 3.375 7 6 C5 8 5 8 2.8359375 8.1953125 C1.61777344 8.16050781 1.61777344 8.16050781 0.375 8.125 C-0.44226563 8.10695313 -1.25953125 8.08890625 -2.1015625 8.0703125 C-2.72804688 8.04710938 -3.35453125 8.02390625 -4 8 C-4.33 7.01 -4.66 6.02 -5 5 C-2.36 5 0.28 5 3 5 C3 4.34 3 3.68 3 3 C2.01 2.67 1.02 2.34 0 2 C0 1.34 0 0.68 0 0 Z " fill="#192864" transform="translate(126,93)"/>
<path d="M0 0 C2.375 -0.125 2.375 -0.125 5 0 C5.66 0.66 6.32 1.32 7 2 C6.44444444 6.55555556 6.44444444 6.55555556 5 8 C3.48071962 8.07179964 1.95832518 8.08392007 0.4375 8.0625 C-0.38878906 8.05347656 -1.21507812 8.04445313 -2.06640625 8.03515625 C-2.70449219 8.02355469 -3.34257812 8.01195313 -4 8 C-4.33 7.01 -4.66 6.02 -5 5 C-2.36 5 0.28 5 3 5 C3.22609337 2.87635519 3.22609337 2.87635519 1.5 1.375 C1.005 0.92125 0.51 0.4675 0 0 Z " fill="#132460" transform="translate(34,93)"/>
<path d="M0 0 C3.3 0 6.6 0 10 0 C10 0.33 10 0.66 10 1 C7.03 1 4.06 1 1 1 C1.33 4.63 1.66 8.26 2 12 C4.64 12 7.28 12 10 12 C10 12.66 10 13.32 10 14 C6.7 14 3.4 14 0 14 C0 9.38 0 4.76 0 0 Z " fill="#081056" transform="translate(159,87)"/>
<path d="M0 0 C0.99 0 1.98 0 3 0 C3 4.95 3 9.9 3 15 C2.01 15 1.02 15 0 15 C0 10.05 0 5.1 0 0 Z " fill="#212E66" transform="translate(23,86)"/>
<path d="M0 0 C0.99 1.485 0.99 1.485 2 3 C4.05003955 4.19232613 4.05003955 4.19232613 6 5 C5.67 5.33 5.34 5.66 5 6 C11.6 6.33 18.2 6.66 25 7 C25 7.33 25 7.66 25 8 C16.75 8 8.5 8 0 8 C0 5.36 0 2.72 0 0 Z " fill="#1B541D" transform="translate(104,74)"/>
<path d="M0 0 C0.82741699 0.01047363 1.65483398 0.02094727 2.50732422 0.03173828 C3.40322266 0.03818359 4.29912109 0.04462891 5.22216797 0.05126953 C6.62789062 0.07640625 6.62789062 0.07640625 8.06201172 0.10205078 C9.00689453 0.11107422 9.95177734 0.12009766 10.92529297 0.12939453 C13.26278464 0.15300556 15.59977295 0.18593562 17.93701172 0.22705078 C17.93701172 0.88705078 17.93701172 1.54705078 17.93701172 2.22705078 C15.0303171 3.08010246 12.62652299 3.29994793 9.60888672 3.10595703 C8.80966797 3.05761719 8.01044922 3.00927734 7.18701172 2.95947266 C6.36201172 2.90339844 5.53701172 2.84732422 4.68701172 2.78955078 C3.84654297 2.73734375 3.00607422 2.68513672 2.14013672 2.63134766 C0.07207652 2.50209389 -1.99551048 2.36530804 -4.06298828 2.22705078 C-2.06298828 0.22705078 -2.06298828 0.22705078 0 0 Z " fill="#568F20" transform="translate(112.06298828125,133.77294921875)"/>
<path d="M0 0 C3.29159316 -0.05790353 6.58305603 -0.09356261 9.875 -0.125 C10.81214844 -0.14175781 11.74929687 -0.15851563 12.71484375 -0.17578125 C13.61074219 -0.18222656 14.50664063 -0.18867188 15.4296875 -0.1953125 C16.25710449 -0.20578613 17.08452148 -0.21625977 17.93701172 -0.22705078 C20 0 20 0 22 2 C18.57851142 3.71074429 14.77061317 3.22665255 11 3.25 C10.16726562 3.270625 9.33453125 3.29125 8.4765625 3.3125 C7.67992188 3.31765625 6.88328125 3.3228125 6.0625 3.328125 C4.96615234 3.34214355 4.96615234 3.34214355 3.84765625 3.35644531 C3.23792969 3.23881836 2.62820312 3.12119141 2 3 C1.34 2.01 0.68 1.02 0 0 Z " fill="#538E1C" transform="translate(74,134)"/>
<path d="M0 0 C0 1.98 0 3.96 0 6 C-2.97 5.505 -2.97 5.505 -6 5 C-6 4.34 -6 3.68 -6 3 C-6.66 3 -7.32 3 -8 3 C-8 3.66 -8 4.32 -8 5 C-9.65 5 -11.3 5 -13 5 C-12.67 3.68 -12.34 2.36 -12 1 C-10.906875 1.20625 -9.81375 1.4125 -8.6875 1.625 C-4.50002298 2.05084512 -3.7438956 0 0 0 Z " fill="#DF7578" transform="translate(91,108)"/>
<path d="M0 0 C1.125 3.75 1.125 3.75 0 6 C-3.63 6 -7.26 6 -11 6 C-10.01 5.67 -9.02 5.34 -8 5 C-8 4.34 -8 3.68 -8 3 C-7.34 3 -6.68 3 -6 3 C-6 2.34 -6 1.68 -6 1 C-4.02 0.67 -2.04 0.34 0 0 Z " fill="#EE540E" transform="translate(158,73)"/>
<path d="M0 0 C1.98 0 3.96 0 6 0 C6 0.66 6 1.32 6 2 C6.99 2 7.98 2 9 2 C9.33 1.34 9.66 0.68 10 0 C10 0.66 10 1.32 10 2 C10.66 2.33 11.32 2.66 12 3 C11.01 3 10.02 3 9 3 C9 3.66 9 4.32 9 5 C6.36 5 3.72 5 1 5 C0.67 3.35 0.34 1.7 0 0 Z " fill="#ED5312" transform="translate(133,74)"/>
<path d="M0 0 C2.475 0.495 2.475 0.495 5 1 C4.938125 2.0725 4.87625 3.145 4.8125 4.25 C4.64365332 7.93191204 4.64365332 7.93191204 6.5625 10.0625 C8 12 8 12 7.6875 15.25 C7.460625 16.1575 7.23375 17.065 7 18 C6.67 18 6.34 18 6 18 C5.7525 16.80375 5.505 15.6075 5.25 14.375 C4.25421132 10.29082325 2.36773701 7.47268095 0 4 C0 2.68 0 1.36 0 0 Z " fill="#4A8BB4" transform="translate(86,56)"/>
<path d="M0 0 C1.953125 0.13020833 3.90625 0.26041667 5.859375 0.390625 C5.859375 1.710625 5.859375 3.030625 5.859375 4.390625 C1.899375 4.390625 -2.060625 4.390625 -6.140625 4.390625 C-2.140625 0.390625 -2.140625 0.390625 0 0 Z " fill="#154578" transform="translate(93.140625,74.609375)"/>
<path d="M0 0 C0.66 0 1.32 0 2 0 C2.33 1.98 2.66 3.96 3 6 C5.31 6.33 7.62 6.66 10 7 C10 7.33 10 7.66 10 8 C7.36 8 4.72 8 2 8 C2 9.98 2 11.96 2 14 C1.34 14 0.68 14 0 14 C0 9.38 0 4.76 0 0 Z " fill="#0F2360" transform="translate(136,87)"/>
<path d="M0 0 C3.3 0 6.6 0 10 0 C10 0.33 10 0.66 10 1 C7.69 1.33 5.38 1.66 3 2 C2.34 5.63 1.68 9.26 1 13 C3.97 13 6.94 13 10 13 C10 13.33 10 13.66 10 14 C6.7 14 3.4 14 0 14 C0 9.38 0 4.76 0 0 Z " fill="#00064F" transform="translate(87,87)"/>
<path d="M0 0 C9.04090125 -0.77641328 9.04090125 -0.77641328 12.625 2.125 C14.16925913 5.35390546 14.3289276 7.46402825 14 11 C13.67 11 13.34 11 13 11 C13 9.35 13 7.7 13 6 C12.34 6 11.68 6 11 6 C10.67 7.32 10.34 8.64 10 10 C9.67 7.03 9.34 4.06 9 1 C6.03 1 3.06 1 0 1 C0 0.67 0 0.34 0 0 Z " fill="#576288" transform="translate(184,86)"/>
<path d="M0 0 C1.32 0.66 2.64 1.32 4 2 C3.67 2.99 3.34 3.98 3 5 C3.99 5.33 4.98 5.66 6 6 C5 7 5 7 3.15234375 7.09765625 C1.1015625 7.06510417 -0.94921875 7.03255208 -3 7 C-2.01 4.69 -1.02 2.38 0 0 Z " fill="#0C5714" transform="translate(111,74)"/>
<path d="M0 0 C1.98 0 3.96 0 6 0 C6.042721 1.66611905 6.04063832 3.33382885 6 5 C5 6 5 6 2.4375 6.0625 C1.2309375 6.0315625 1.2309375 6.0315625 0 6 C0 4.02 0 2.04 0 0 Z " fill="#BC0C15" transform="translate(45,64)"/>
<path d="M0 0 C2 1 2 1 4 3 C4.36933645 5.75372909 4.18336678 8.20365661 4 11 C3.67 11 3.34 11 3 11 C2.67 9.35 2.34 7.7 2 6 C1.01 6.33 0.02 6.66 -1 7 C-1.66 6.67 -2.32 6.34 -3 6 C-3 7.65 -3 9.3 -3 11 C-3.99 10.67 -4.98 10.34 -6 10 C-5.34 10 -4.68 10 -4 10 C-4 8.35 -4 6.7 -4 5 C-3.34 4.67 -2.68 4.34 -2 4 C-1.34 4.33 -0.68 4.66 0 5 C0 3.35 0 1.7 0 0 Z " fill="#B24547" transform="translate(58,68)"/>
<path d="M0 0 C3.3 0 6.6 0 10 0 C10 1.32 10 2.64 10 4 C8.35 4 6.7 4 5 4 C5 3.34 5 2.68 5 2 C4.34 2 3.68 2 3 2 C2.67 2.99 2.34 3.98 2 5 C1.34 3.35 0.68 1.7 0 0 Z " fill="#D00811" transform="translate(60,60)"/>
<path d="M0 0 C0.66 0.33 1.32 0.66 2 1 C2.1953125 7.0546875 2.1953125 7.0546875 2 9 C0 11 0 11 -1.9453125 11.1953125 C-3.96354167 11.13020833 -5.98177083 11.06510417 -8 11 C-7.401875 10.71125 -6.80375 10.4225 -6.1875 10.125 C-3.80672208 8.95257974 -3.80672208 8.95257974 -1 7 C-0.26393501 3.43230448 -0.26393501 3.43230448 0 0 Z " fill="#0B2461" transform="translate(18,89)"/>
<path d="M0 0 C0.33 0 0.66 0 1 0 C1 3.3 1 6.6 1 10 C-1.97 10 -4.94 10 -8 10 C-5.6875 7.5 -5.6875 7.5 -3 5 C-2.01 5 -1.02 5 0 5 C0 3.35 0 1.7 0 0 Z " fill="#930A0E" transform="translate(70,69)"/>
<path d="M0 0 C3.96 0 7.92 0 12 0 C12 0.66 12 1.32 12 2 C12.99 2 13.98 2 15 2 C15 2.66 15 3.32 15 4 C9.76119922 3.44854729 5.02649303 2.57077907 0 1 C0 0.67 0 0.34 0 0 Z " fill="#1B3169" transform="translate(40,120)"/>
<path d="M0 0 C0.66 0 1.32 0 2 0 C3.65 3.3 5.3 6.6 7 10 C6.01 10.33 5.02 10.66 4 11 C3.67 10.34 3.34 9.68 3 9 C-0.02934491 8.34227572 -0.02934491 8.34227572 -3 8 C-3 7.67 -3 7.34 -3 7 C-1.35 7 0.3 7 2 7 C1.34 4.69 0.68 2.38 0 0 Z " fill="#071D5D" transform="translate(51,90)"/>
<path d="M0 0 C0.33 0 0.66 0 1 0 C1 2.31 1 4.62 1 7 C-0.98 7 -2.96 7 -5 7 C-5 5.35 -5 3.7 -5 2 C-3.35 2 -1.7 2 0 2 C0 1.34 0 0.68 0 0 Z " fill="#930A0D" transform="translate(60,72)"/>
<path d="M0 0 C-3.77222089 1.75163456 -6.666639 2.22490027 -10.8125 2.125 C-12.27623047 2.09792969 -12.27623047 2.09792969 -13.76953125 2.0703125 C-14.50558594 2.04710937 -15.24164063 2.02390625 -16 2 C-11.06735595 -0.59844642 -5.0064213 -3.75481597 0 0 Z " fill="#F0DBDD" transform="translate(69,54)"/>
<path d="M0 0 C3.96 0 7.92 0 12 0 C8.61885051 1.69057475 6.3700175 2.45815467 2.75 3.125 C1.41195312 3.37636719 1.41195312 3.37636719 0.046875 3.6328125 C-0.62859375 3.75398438 -1.3040625 3.87515625 -2 4 C-2 3.34 -2 2.68 -2 2 C-1.34 2 -0.68 2 0 2 C0 1.34 0 0.68 0 0 Z " fill="#1A3068" transform="translate(152,120)"/>
<path d="M0 0 C0.33 0 0.66 0 1 0 C1.04898438 0.61488281 1.09796875 1.22976562 1.1484375 1.86328125 C1.22320312 2.67152344 1.29796875 3.47976562 1.375 4.3125 C1.44460937 5.11300781 1.51421875 5.91351563 1.5859375 6.73828125 C1.89564426 9.27224441 1.89564426 9.27224441 4 12 C2.68 12.33 1.36 12.66 0 13 C-1.32630565 8.85529486 -1.98384711 3.96769422 0 0 Z " fill="#1D4B7E" transform="translate(76,66)"/>
<path d="M0 0 C3.15330554 0.60694155 5.18888867 1.6416665 7.75 3.5625 C8.67039062 4.24505859 8.67039062 4.24505859 9.609375 4.94140625 C10.29773438 5.46541016 10.29773438 5.46541016 11 6 C9.234375 6.64453125 9.234375 6.64453125 7 7 C5.078125 6.07421875 5.078125 6.07421875 3.25 4.6875 C2.63640625 4.23761719 2.0228125 3.78773438 1.390625 3.32421875 C0.93171875 2.88722656 0.4728125 2.45023438 0 2 C0 1.34 0 0.68 0 0 Z " fill="#E5E9E7" transform="translate(86,147)"/>
<path d="M0 0 C3 1 3 1 4 2 C4.99 2 5.98 2 7 2 C7 3.32 7 4.64 7 6 C4.69 6 2.38 6 0 6 C-0.38218767 4.34385343 -0.71395102 2.67542976 -1 1 C-0.67 0.67 -0.34 0.34 0 0 Z " fill="#E18587" transform="translate(136,108)"/>
<path d="M0 0 C1.98 0.66 3.96 1.32 6 2 C6 3.65 6 5.3 6 7 C4.68 6.67 3.36 6.34 2 6 C2 5.34 2 4.68 2 4 C1.01 3.67 0.02 3.34 -1 3 C-0.67 2.01 -0.34 1.02 0 0 Z " fill="#236721" transform="translate(122,71)"/>
<path d="M0 0 C2.64 0.33 5.28 0.66 8 1 C8 2.98 8 4.96 8 7 C7.34 6.01 6.68 5.02 6 4 C2.91634129 3.7497843 2.91634129 3.7497843 0 4 C0 2.68 0 1.36 0 0 Z " fill="#267219" transform="translate(121,65)"/>
<path d="M0 0 C5.26053037 -0.31563182 8.44573816 0.33409063 13 3 C11.296875 4.1171875 11.296875 4.1171875 9 5 C6.640625 4.3203125 6.640625 4.3203125 4.25 3.125 C3.45078125 2.73570313 2.6515625 2.34640625 1.828125 1.9453125 C0.92320313 1.47738281 0.92320313 1.47738281 0 1 C0 0.67 0 0.34 0 0 Z " fill="#D4DAD5" transform="translate(114,45)"/>
<path d="M0 0 C2.33944736 0.28730055 4.6739143 0.61936779 7 1 C7 1.99 7 2.98 7 4 C4.69 4.33 2.38 4.66 0 5 C-0.5625 3.0625 -0.5625 3.0625 -1 1 C-0.67 0.67 -0.34 0.34 0 0 Z " fill="#E48B8D" transform="translate(126,109)"/>
<path d="M0 0 C0 1.32 0 2.64 0 4 C-6.52307692 3.38461538 -6.52307692 3.38461538 -8.9375 1.4375 C-9.288125 0.963125 -9.63875 0.48875 -10 0 C-6.30458414 -0.95024979 -3.69541586 -0.95024979 0 0 Z " fill="#E28284" transform="translate(119,110)"/>
<path d="M0 0 C0 0.66 0 1.32 0 2 C-0.66 2 -1.32 2 -2 2 C-2 2.66 -2 3.32 -2 4 C-3.97746603 4.73080266 -5.98072489 5.39421747 -8 6 C-8.66 5.67 -9.32 5.34 -10 5 C-10 4.34 -10 3.68 -10 3 C-9.13375 2.814375 -9.13375 2.814375 -8.25 2.625 C-5.96658543 2.06807595 -5.96658543 2.06807595 -3.875 0.9375 C-2 0 -2 0 0 0 Z " fill="#F2845D" transform="translate(152,74)"/>
<path d="M0 0 C1.32 0 2.64 0 4 0 C4 1.98 4 3.96 4 6 C2.68 5.67 1.36 5.34 0 5 C0 3.35 0 1.7 0 0 Z " fill="#E9A5A7" transform="translate(120,108)"/>
<path d="M0 0 C6.75 0.75 6.75 0.75 9 3 C8.625 5.125 8.625 5.125 8 7 C7.67 6.01 7.34 5.02 7 4 C3.48809191 2.77030122 3.48809191 2.77030122 0 2 C0 1.34 0 0.68 0 0 Z " fill="#102662" transform="translate(62,92)"/>
<path d="M0 0 C0.66 0 1.32 0 2 0 C2 0.66 2 1.32 2 2 C3.32 2.33 4.64 2.66 6 3 C4.68 3 3.36 3 2 3 C2 4.98 2 6.96 2 9 C1.01 8.67 0.02 8.34 -1 8 C-0.67 5.36 -0.34 2.72 0 0 Z " fill="#001D5C" transform="translate(101,92)"/>
<path d="M0 0 C1.98 0 3.96 0 6 0 C5.67 1.32 5.34 2.64 5 4 C3.35 4 1.7 4 0 4 C0 2.68 0 1.36 0 0 Z " fill="#E8EAED" transform="translate(103,89)"/>
<path d="M0 0 C0.99 0.33 1.98 0.66 3 1 C4.1875 4.0625 4.1875 4.0625 5 7 C3.35 7 1.7 7 0 7 C0 4.69 0 2.38 0 0 Z " fill="#F67F08" transform="translate(133,63)"/>
<path d="M0 0 C0.33 0 0.66 0 1 0 C1 1.65 1 3.3 1 5 C1.99 5 2.98 5 4 5 C4 5.66 4 6.32 4 7 C3.01 7.495 3.01 7.495 2 8 C1.59270772 10.32156597 1.25561323 12.6568787 1 15 C0.67 15 0.34 15 0 15 C0 10.05 0 5.1 0 0 Z " fill="#287506" transform="translate(104,58)"/>
<path d="M0 0 C2.64 0.33 5.28 0.66 8 1 C7.67 1.99 7.34 2.98 7 4 C4.83125748 3.49396008 3.00032373 3.00016187 1 2 C0.67 2.66 0.34 3.32 0 4 C0 2.68 0 1.36 0 0 Z " fill="#E28386" transform="translate(144,109)"/>
<path d="M0 0 C4.75 0.75 4.75 0.75 7 3 C6.34 3.66 5.68 4.32 5 5 C5 4.34 5 3.68 5 3 C3.35 3.66 1.7 4.32 0 5 C0 3.35 0 1.7 0 0 Z " fill="#E17D80" transform="translate(40,108)"/>
<path d="M0 0 C1.4606285 2.64738916 2 3.89448334 2 7 C0.35 7 -1.3 7 -3 7 C-1.125 2.25 -1.125 2.25 0 0 Z " fill="#9B2023" transform="translate(49,72)"/>
<path d="M0 0 C0.99 0 1.98 0 3 0 C3 1.32 3 2.64 3 4 C2.01 4 1.02 4 0 4 C-0.66 5.32 -1.32 6.64 -2 8 C-2.66 7.67 -3.32 7.34 -4 7 C-3.525625 6.21625 -3.05125 5.4325 -2.5625 4.625 C-1.66101977 3.11051322 -0.78820515 1.5764103 0 0 Z " fill="#A21317" transform="translate(67,70)"/>
<path d="M0 0 C0 0.99 0 1.98 0 3 C-2.31 3 -4.62 3 -7 3 C-6.67 2.01 -6.34 1.02 -6 0 C-3.50907189 -1.24546405 -2.58919267 -0.7767578 0 0 Z " fill="#D2DDD1" transform="translate(128,69)"/>
<path d="M0 0 C0.99 0 1.98 0 3 0 C3 1.32 3 2.64 3 4 C2.01 4 1.02 4 0 4 C-0.33 4.66 -0.66 5.32 -1 6 C-1 5.34 -1 4.68 -1 4 C-2.32 3.67 -3.64 3.34 -5 3 C-4.67 2.34 -4.34 1.68 -4 1 C-2.68 1.66 -1.36 2.32 0 3 C0 2.01 0 1.02 0 0 Z " fill="#B3C8AC" transform="translate(121,61)"/>
<path d="M0 0 C0.66 0 1.32 0 2 0 C2 0.66 2 1.32 2 2 C2.66 2 3.32 2 4 2 C4.66 3.32 5.32 4.64 6 6 C5.34 6.66 4.68 7.32 4 8 C0 3.375 0 3.375 0 0 Z " fill="#DCE3DA" transform="translate(62,123)"/>
<path d="M0 0 C3 3.75 3 3.75 3 6 C1.35 6 -0.3 6 -2 6 C-1.125 1.125 -1.125 1.125 0 0 Z " fill="#CDD0D9" transform="translate(50,90)"/>
<path d="M0 0 C0.33 0 0.66 0 1 0 C1 2.64 1 5.28 1 8 C-0.98 8 -2.96 8 -5 8 C-4.34 7.01 -3.68 6.02 -3 5 C-2.01 5 -1.02 5 0 5 C0 3.35 0 1.7 0 0 Z " fill="#065610" transform="translate(128,73)"/>
<path d="M0 0 C1.32 0 2.64 0 4 0 C4 1.32 4 2.64 4 4 C3.34 4 2.68 4 2 4 C1.67 4.66 1.34 5.32 1 6 C0.34 4.35 -0.32 2.7 -1 1 C-0.67 0.67 -0.34 0.34 0 0 Z " fill="#E8EEE8" transform="translate(114,58)"/>
<path d="M0 0 C-0.33 0.66 -0.66 1.32 -1 2 C-3.375 2.75 -3.375 2.75 -6 3 C-6.99 2.34 -7.98 1.68 -9 1 C-5.64919071 -1.10976881 -3.77897651 -1.0497157 0 0 Z " fill="#C3D1DF" transform="translate(88,46)"/>
<path d="M0 0 C3.45925163 1.2491742 6.14693203 2.67527795 9 5 C5.625 4.75 5.625 4.75 2 4 C0.5625 1.9375 0.5625 1.9375 0 0 Z " fill="#E9EFE3" transform="translate(108,40)"/>
<path d="M0 0 C0 1.98 0 3.96 0 6 C-1.32 5.67 -2.64 5.34 -4 5 C-4 3.68 -4 2.36 -4 1 C-2 0 -2 0 0 0 Z " fill="#EAA9AB" transform="translate(91,108)"/>
<path d="M0 0 C0.33 0.66 0.66 1.32 1 2 C3.02463255 2.65213292 3.02463255 2.65213292 5 3 C4.67 3.99 4.34 4.98 4 6 C2.68 5.67 1.36 5.34 0 5 C0 3.35 0 1.7 0 0 Z " fill="#D3DDD4" transform="translate(120,72)"/>
<path d="M0 0 C0.99 0 1.98 0 3 0 C3 1.98 3 3.96 3 6 C1.68 5.67 0.36 5.34 -1 5 C-1 4.34 -1 3.68 -1 3 C-0.34 3 0.32 3 1 3 C0.67 2.01 0.34 1.02 0 0 Z " fill="#E9A8AA" transform="translate(63,108)"/>
<path d="M0 0 C1.32 0 2.64 0 4 0 C4 1.32 4 2.64 4 4 C2.35 3.67 0.7 3.34 -1 3 C-0.67 2.01 -0.34 1.02 0 0 Z " fill="#EDF1EE" transform="translate(106,74)"/>
<path d="M0 0 C0.33 0 0.66 0 1 0 C1 2.31 1 4.62 1 7 C-0.65 7 -2.3 7 -4 7 C-3.67 6.01 -3.34 5.02 -3 4 C-2.01 4 -1.02 4 0 4 C0 2.68 0 1.36 0 0 Z " fill="#3F7F13" transform="translate(128,59)"/>
<path d="M0 0 C-0.66 1.32 -1.32 2.64 -2 4 C-2.33 3.67 -2.66 3.34 -3 3 C-4.51469448 2.76807135 -6.03754562 2.58784762 -7.5625 2.4375 C-8.38878906 2.35371094 -9.21507812 2.26992188 -10.06640625 2.18359375 C-10.70449219 2.12300781 -11.34257813 2.06242187 -12 2 C-12 1.67 -12 1.34 -12 1 C-10.56274129 0.83126522 -9.12518162 0.66509263 -7.6875 0.5 C-6.88699219 0.4071875 -6.08648437 0.314375 -5.26171875 0.21875 C-3 0 -3 0 0 0 Z " fill="#D9292E" transform="translate(61,56)"/>
<path d="M0 0 C3.73487777 0.4979837 5.81237635 0.87491756 9 3 C8.34 3 7.68 3 7 3 C6.67 3.66 6.34 4.32 6 5 C3.98079663 3.69593116 1.98075027 2.36176581 0 1 C0 0.67 0 0.34 0 0 Z " fill="#D3D7DC" transform="translate(94,154)"/>
<path d="M0 0 C0.66 0 1.32 0 2 0 C2.1875 2.875 2.1875 2.875 2 6 C1.01 6.66 0.02 7.32 -1 8 C-0.67 5.36 -0.34 2.72 0 0 Z " fill="#031C5C" transform="translate(195,92)"/>
<path d="M0 0 C1.32 0 2.64 0 4 0 C4.33 1.32 4.66 2.64 5 4 C3.68 4.33 2.36 4.66 1 5 C0.67 3.35 0.34 1.7 0 0 Z " fill="#3B4C7A" transform="translate(48,86)"/>
<path d="M0 0 C2.31 0 4.62 0 7 0 C7.33 1.32 7.66 2.64 8 4 C5.125 3.6875 5.125 3.6875 2 3 C1.34 2.01 0.68 1.02 0 0 Z " fill="#444F7C" transform="translate(32,86)"/>
<path d="M0 0 C0.33 0.66 0.66 1.32 1 2 C-0.47169811 5.73584906 -0.47169811 5.73584906 -3 7 C-3 5.02 -3 3.04 -3 1 C-2.01 0.67 -1.02 0.34 0 0 Z " fill="#106BA5" transform="translate(78,61)"/>
</svg>
