<?xml version="1.0" encoding="UTF-8"?>
<svg version="1.1" xmlns="http://www.w3.org/2000/svg" width="217" height="79">
<path d="M0 0 C2.49605741 1.97963174 2.96415463 2.89246389 4 6 C4.13281695 9.67106043 4.04323297 13.32519714 4 17 C10.93 19.475 10.93 19.475 18 22 C18.680625 20.453125 19.36125 18.90625 20.0625 17.3125 C23.52135074 10.45293047 27.51372455 7.71553808 34.6875 5.3125 C35.77611328 4.99732422 35.77611328 4.99732422 36.88671875 4.67578125 C39.02577176 4.06653058 39.02577176 4.06653058 40.9296875 2.9375 C45.01790296 1.08623262 49.61308411 1.57105711 54 2 C57.125 3.3125 57.125 3.3125 59 5 C59.495 6.485 59.495 6.485 60 8 C61.03640625 7.98839844 62.0728125 7.97679687 63.140625 7.96484375 C64.51041486 7.95546163 65.88020668 7.94636188 67.25 7.9375 C67.93191406 7.92912109 68.61382812 7.92074219 69.31640625 7.91210938 C72.73637221 7.8955076 75.70262586 8.16053089 79 9 C79.99 8.67 80.98 8.34 82 8 C83.47686111 7.90752619 84.95775501 7.87000929 86.4375 7.875 C87.58025391 7.87113281 87.58025391 7.87113281 88.74609375 7.8671875 C91 8 91 8 92.97265625 8.55078125 C97.00560354 9.44440155 101.12961789 8.2400887 105 7 C105.680625 6.319375 106.36125 5.63875 107.0625 4.9375 C109.75012135 2.24987865 112.09273043 2.09985913 115.8046875 1.82421875 C119.1679243 2.09351707 120.81379514 3.53170419 123 6 C123 6.66 123 7.32 123 8 C129.47997672 7.74835042 132.95265074 7.25039938 138 3 C141.57354086 1.97486303 144.85253255 1.61751085 148.4375 2.8125 C150 4 150 4 151 6 C151.44468131 9.61157157 151.60713352 13.24301308 151.8125 16.875 C151.88919922 17.88175781 151.96589844 18.88851563 152.04492188 19.92578125 C152.12516602 21.38177734 152.12516602 21.38177734 152.20703125 22.8671875 C152.2635083 23.75519043 152.31998535 24.64319336 152.37817383 25.55810547 C152 28 152 28 150.65405273 30.29638672 C146.42876022 33.0085651 142.23940688 32.49127206 137.328125 32.390625 C136.29057068 32.38496521 135.25301636 32.37930542 134.184021 32.37347412 C130.87221008 32.35109491 127.56148356 32.30089419 124.25 32.25 C122.00392188 32.22993706 119.75782679 32.21168594 117.51171875 32.1953125 C112.00744291 32.15122518 106.50379893 32.08429741 101 32 C101.99 33.98 101.99 33.98 103 36 C104.051875 35.95875 105.10375 35.9175 106.1875 35.875 C110.61080324 36.02002634 113.48870349 36.43015447 116.61328125 39.67578125 C118.43118738 42.72269434 118.43341747 44.90611235 118.4375 48.4375 C118.45683594 49.54996094 118.47617188 50.66242187 118.49609375 51.80859375 C117.89958499 55.64597687 116.72808832 57.28177818 114 60 C110.82923837 61.05692054 108.55990104 61.12918539 105.23046875 61.1328125 C103.52600586 61.13474609 103.52600586 61.13474609 101.78710938 61.13671875 C100.59923828 61.13285156 99.41136719 61.12898438 98.1875 61.125 C97.01123047 61.12886719 95.83496094 61.13273437 94.62304688 61.13671875 C93.48287109 61.13542969 92.34269531 61.13414063 91.16796875 61.1328125 C90.12922607 61.13168457 89.0904834 61.13055664 88.02026367 61.12939453 C85 61 85 61 81.80200195 60.42919922 C78.92723273 59.77079904 78.92723273 59.77079904 76 61 C72.58410519 61.12890169 69.48432667 61.09475957 66.125 60.4375 C63.28012697 60.03921778 61.30860566 60.12896347 58.5 60.5 C54.73944946 60.99596576 51.74288982 60.71672358 48 60 C46.62521155 59.9758809 45.24981117 59.97721307 43.875 60 C40 60 40 60 37.75 59.375 C35.92469877 58.78595958 35.92469877 58.78595958 34.17578125 59.984375 C31.64001357 61.16803675 30.19918338 61.16471975 27.4375 60.875 C26.67308594 60.81054688 25.90867187 60.74609375 25.12109375 60.6796875 C23 60 23 60 21.19921875 58.359375 C19.55880757 55.13198623 19.94830074 52.94156178 20.375 49.375 C21.09760833 45.0387583 21.09760833 45.0387583 20 41 C19.95977609 38.6670134 19.95679753 36.33293334 20 34 C18.2675 34.680625 18.2675 34.680625 16.5 35.375 C12.38742433 36.92455976 8.27872379 38.00672483 4 39 C4.165 39.66 4.33 40.32 4.5 41 C5.68163178 48.08979071 5.27210061 54.50966051 2 61 C-1 63 -1 63 -3.95703125 62.921875 C-7.73500849 61.77732734 -8.59811635 60.54236211 -10.6875 57.25 C-11.24824219 56.38890625 -11.80898438 55.5278125 -12.38671875 54.640625 C-12.91910156 53.76921875 -13.45148437 52.8978125 -14 52 C-14.56332031 51.12859375 -15.12664063 50.2571875 -15.70703125 49.359375 C-17 47 -17 47 -17 44 C-17.70125 44.2165625 -18.4025 44.433125 -19.125 44.65625 C-26.33758739 46.7729876 -32.07343363 48.21366597 -39.4375 45.9375 C-42 44 -42 44 -43.375 40.8125 C-42.80850562 35.05314045 -39.3128637 32.56179049 -35 29 C-31.29054054 26 -31.29054054 26 -29 26 C-29.74056641 24.62328125 -29.74056641 24.62328125 -30.49609375 23.21875 C-37.1229116 10.63722623 -37.1229116 10.63722623 -37 4 C-36.0625 1.5 -36.0625 1.5 -35 0 C-27.26247962 -0.8759457 -22.49679169 1.98727572 -16 6 C-15.46375 5.05125 -14.9275 4.1025 -14.375 3.125 C-10.20126043 -2.36676259 -6.12762726 -2.85955939 0 0 Z M35 31 C35 31.66 35 32.32 35 33 C36.32 32.67 37.64 32.34 39 32 C39 31.34 39 30.68 39 30 C36.9254644 29.8509288 36.9254644 29.8509288 35 31 Z M74.0234375 30.98046875 C72.50175586 32.47983024 72.50175586 32.47983024 71 35 C74.64260543 37.2766284 78.7201334 38.36895402 83 38 C85.52741928 36.60831977 86.97332807 35.12800553 89 33 C89 32.67 89 32.34 89 32 C81.41940634 29.83744428 81.41940634 29.83744428 74.0234375 30.98046875 Z M51 32 C51.66 33.65 52.32 35.3 53 37 C54.32 36.34 55.64 35.68 57 35 C55.68798827 33.43750191 55.68798827 33.43750191 54 32 C53.01 32 52.02 32 51 32 Z M63 37 C63.33 37.66 63.66 38.32 64 39 C64.99 38.67 65.98 38.34 67 38 C65.68 37.67 64.36 37.34 63 37 Z " fill="#080A0A" transform="translate(58,10)"/>
<path d="M0 0 C0.5534764 2.07553648 1 3.84365964 1 6 C1.15594965 7.54278761 1.32392903 9.08437905 1.5 10.625 C1.5928125 11.44226562 1.685625 12.25953125 1.78125 13.1015625 C1.88953125 14.04128906 1.88953125 14.04128906 2 15 C2.66 14.34 3.32 13.68 4 13 C7.625 12.875 7.625 12.875 11 13 C10.01 11.515 10.01 11.515 9 10 C8.34 10.66 7.68 11.32 7 12 C5.68 12 4.36 12 3 12 C3.3125 10.125 3.3125 10.125 4 8 C7.78089726 5.47940183 10.55914016 5.26758261 15 6 C18.57826241 8.88569549 18.50520216 12.62928579 19 17 C19.33 17.33 19.66 17.66 20 18 C20.02712153 16.083412 20.04645097 14.1667127 20.0625 12.25 C20.07410156 11.18265625 20.08570313 10.1153125 20.09765625 9.015625 C20.01510087 6.46631499 19.74617558 4.42066409 19 2 C20.4774746 1.63883954 21.95704675 1.28624952 23.4375 0.9375 C24.26121094 0.74027344 25.08492188 0.54304687 25.93359375 0.33984375 C26.95646484 0.17162109 26.95646484 0.17162109 28 0 C30.32673396 2.32673396 29.47862517 7.85724624 29.625 11 C29.6765625 11.94101562 29.728125 12.88203125 29.78125 13.8515625 C29.82507813 14.74617188 29.86890625 15.64078125 29.9140625 16.5625 C29.9548291 17.38878906 29.9955957 18.21507813 30.03759766 19.06640625 C30 21 30 21 29 22 C21.70588235 22.23529412 21.70588235 22.23529412 18 21 C16.32577014 21.29299023 14.65821773 21.62690101 13 22 C10.5282507 22 8.36722561 21.79628191 5.9375 21.4375 C2.22018139 20.66355461 2.22018139 20.66355461 0 22 C-6.47058824 22.35294118 -6.47058824 22.35294118 -10 20 C-10.99 20.66 -11.98 21.32 -13 22 C-15.875 22.4375 -15.875 22.4375 -19 22 C-21.57285724 19.827365 -23.48996919 18.02006162 -25 15 C-27.31 15.33 -29.62 15.66 -32 16 C-29.69 16 -27.38 16 -25 16 C-25.3125 17.875 -25.3125 17.875 -26 20 C-29.51824511 22.34549674 -30.85775694 22.57991403 -35 22 C-37.875 19.5 -37.875 19.5 -40 17 C-40.7425 17.804375 -41.485 18.60875 -42.25 19.4375 C-44.75304829 21.76988591 -45.7180955 22.63534394 -49 23 C-49.33 24.32 -49.66 25.64 -50 27 C-52.97 26.67 -55.94 26.34 -59 26 C-59.33 24.68 -59.66 23.36 -60 22 C-59.67 21.67 -59.34 21.34 -59 21 C-58.76807135 19.48530552 -58.58784762 17.96245438 -58.4375 16.4375 C-58.35371094 15.61121094 -58.26992187 14.78492188 -58.18359375 13.93359375 C-58.12300781 13.29550781 -58.06242187 12.65742188 -58 12 C-58.66 12 -59.32 12 -60 12 C-60 10.68 -60 9.36 -60 8 C-56.48188275 5.83899432 -53.52566342 5.67150925 -49.4375 5.625 C-48.30183594 5.59664062 -47.16617188 5.56828125 -45.99609375 5.5390625 C-43 6 -43 6 -41.09765625 8.0234375 C-40.73542969 8.67570312 -40.37320313 9.32796875 -40 10 C-39.319375 9.34 -38.63875 8.68 -37.9375 8 C-34.29704773 5.5213942 -32.32351988 5.43954372 -28 6 C-26.0625 7.5 -26.0625 7.5 -25 9 C-24.071875 8.5359375 -24.071875 8.5359375 -23.125 8.0625 C-17.69925917 5.34962959 -12.90520778 5.56843448 -7 7 C-7.66 6.34 -8.32 5.68 -9 5 C-9 4.01 -9 3.02 -9 2 C-5.5647952 -0.29013653 -4.014669 -0.17842973 0 0 Z " fill="#2579B7" transform="translate(176,15)"/>
<path d="M0 0 C0.9796875 -0.01417969 1.959375 -0.02835938 2.96875 -0.04296875 C5.5 0.1875 5.5 0.1875 7.5 2.1875 C7.75 4.6875 7.75 4.6875 7.5 7.1875 C6.84 7.8475 6.18 8.5075 5.5 9.1875 C6.015625 9.55875 6.53125 9.93 7.0625 10.3125 C8.5 12.1875 8.5 12.1875 8.375 15.1875 C7.49393555 18.20829239 6.99565487 19.36375221 4.5 21.1875 C0.91155176 22.38364941 -1.72452277 22.44346456 -5.5 22.1875 C-6.49 21.61 -7.48 21.0325 -8.5 20.4375 C-9.49 20.025 -10.48 19.6125 -11.5 19.1875 C-13.4611064 19.99989597 -15.068998 21.06687033 -16.828125 22.25 C-18.5 23.1875 -18.5 23.1875 -21.3125 23.0625 C-23.5 22.1875 -23.5 22.1875 -25.5 20.1875 C-26.1806846 13.2672066 -26.1806846 13.2672066 -23.6875 9.3125 C-19.53300624 5.27670607 -19.53300624 5.27670607 -16.23828125 4.9921875 C-15.03751953 5.02699219 -15.03751953 5.02699219 -13.8125 5.0625 C-12.60013672 5.08957031 -12.60013672 5.08957031 -11.36328125 5.1171875 C-10.44095703 5.15199219 -10.44095703 5.15199219 -9.5 5.1875 C-9.21125 4.548125 -8.9225 3.90875 -8.625 3.25 C-6.58762068 -0.48519543 -3.93508582 0.02588872 0 0 Z " fill="#2473AF" transform="translate(107.5,14.8125)"/>
<path d="M0 0 C0.495 6.93 0.495 6.93 1 14 C1.33 13.67 1.66 13.34 2 13 C1.979375 12.030625 1.95875 11.06125 1.9375 10.0625 C2 7 2 7 4 5 C6.3828125 4.8046875 6.3828125 4.8046875 9.125 4.875 C10.03507812 4.89304687 10.94515625 4.91109375 11.8828125 4.9296875 C12.58148438 4.95289063 13.28015625 4.97609375 14 5 C14.495 7.475 14.495 7.475 15 10 C14.01 10.33 13.02 10.66 12 11 C12.99 11.66 13.98 12.32 15 13 C15.4375 15.4375 15.4375 15.4375 15 18 C13.5 19.875 13.5 19.875 11 21 C8.24353606 20.93899174 5.73502985 20.47754489 3 20 C-0.0942809 19.92928932 -0.0942809 19.92928932 -3.5 20.5 C-8.2337013 21.17624304 -12.57317757 21.42262004 -16.8125 18.9375 C-18.74024259 15.79223577 -18.51277927 12.53247944 -18 9 C-16.875 6.5625 -16.875 6.5625 -15 5 C-11.8125 4.25 -11.8125 4.25 -9 4 C-9.33 3.01 -9.66 2.02 -10 1 C-5.81354102 -1.03342293 -4.92422885 -0.98484577 0 0 Z " fill="#2475B2" transform="translate(157,45)"/>
<path d="M0 0 C0.19592461 3.31205884 0.38032746 6.62465854 0.5625 9.9375 C0.61857422 10.88302734 0.67464844 11.82855469 0.73242188 12.80273438 C0.78076172 13.70185547 0.82910156 14.60097656 0.87890625 15.52734375 C0.9260376 16.35999756 0.97316895 17.19265137 1.02172852 18.05053711 C1 20 1 20 0 21 C-7.29411765 21.23529412 -7.29411765 21.23529412 -11 20 C-12.67422986 20.29299023 -14.34178227 20.62690101 -16 21 C-19.41099168 21 -22.63088314 20.50854594 -26 20 C-26.625 17.125 -26.625 17.125 -27 14 C-25 12 -25 12 -21.375 11.875 C-19.704375 11.936875 -19.704375 11.936875 -18 12 C-18.66 11.01 -19.32 10.02 -20 9 C-20.66 9.66 -21.32 10.32 -22 11 C-23.32 11 -24.64 11 -26 11 C-25.6875 9.125 -25.6875 9.125 -25 7 C-21.21910274 4.47940183 -18.44085984 4.26758261 -14 5 C-10.42173759 7.88569549 -10.49479784 11.62928579 -10 16 C-9.67 16.33 -9.34 16.66 -9 17 C-8.97287847 15.083412 -8.95354903 13.1667127 -8.9375 11.25 C-8.92589844 10.18265625 -8.91429687 9.1153125 -8.90234375 8.015625 C-8.98489913 5.46631499 -9.25382442 3.42066409 -10 1 C-3.375 -1.125 -3.375 -1.125 0 0 Z " fill="#2579B8" transform="translate(205,16)"/>
<path d="M0 0 C2.5 2 2.5 2 4 4 C4.495 3.34 4.99 2.68 5.5 2 C9.18823674 -0.95058939 11.34507137 -0.51721429 16 0 C18 1.1875 18 1.1875 19 3 C19.1875 5.6875 19.1875 5.6875 19 8 C16.36 8 13.72 8 11 8 C11.33 8.66 11.66 9.32 12 10 C14.31 10 16.62 10 19 10 C18.66260373 12.530472 18.3938922 13.6818563 16.375 15.3125 C12.95884427 16.30138718 10.43229769 15.81127036 7 15 C4.94061784 13.42114034 4.15428789 12.30857577 3 10 C2.9175 10.61875 2.835 11.2375 2.75 11.875 C2 14 2 14 0.375 15.3125 C-3.07640766 16.31159169 -5.54258755 15.88006862 -9 15 C-11.81972931 12.63506574 -11.97850831 11.1719335 -12.4375 7.5 C-12 4 -12 4 -10.5 1.5625 C-7.00871154 -0.61955529 -4.01539204 -0.85573929 0 0 Z " fill="#2476B3" transform="translate(119,50)"/>
<path d="M0 0 C6.74841438 -0.8435518 6.74841438 -0.8435518 10.3125 1.55859375 C12.28606831 3.31013563 14.17370978 5.0959953 16 7 C15.814375 6.030625 15.62875 5.06125 15.4375 4.0625 C15.293125 3.051875 15.14875 2.04125 15 1 C16 0 16 0 17.84765625 -0.09765625 C19.8984375 -0.06510417 21.94921875 -0.03255208 24 0 C24.33 1.32 24.66 2.64 25 4 C24.01 4.495 24.01 4.495 23 5 C22.68758545 7.71446979 22.48663408 10.33909361 22.375 13.0625 C22.33632812 13.82111328 22.29765625 14.57972656 22.2578125 15.36132812 C22.16326438 17.24047195 22.08053244 19.12020336 22 21 C17.21861363 21 16.615713 20.16772988 13.25 17 C12.45078125 16.2575 11.6515625 15.515 10.828125 14.75 C10.22484375 14.1725 9.6215625 13.595 9 13 C9.33 15.31 9.66 17.62 10 20 C7 22 7 22 3.8125 21.625 C2.884375 21.41875 1.95625 21.2125 1 21 C1 18.72002197 1.0069331 16.43995959 1.03515625 14.16015625 C1.04417969 13.13792969 1.05320312 12.11570312 1.0625 11.0625 C1.07410156 10.04285156 1.08570312 9.02320313 1.09765625 7.97265625 C1.00629075 5.19149042 0.63236802 2.70374675 0 0 Z " fill="#267BBA" transform="translate(82,44)"/>
<path d="M0 0 C1.14726563 -0.01675781 2.29453125 -0.03351562 3.4765625 -0.05078125 C4.91128906 0.12904297 4.91128906 0.12904297 6.375 0.3125 C9.049053 4.3235795 9.07407091 7.59803397 8.375 12.3125 C6.46456046 15.04169934 5.2614184 16.0170272 2.125 17.0625 C1.25875 17.18625 1.25875 17.18625 0.375 17.3125 C0.045 18.6325 -0.285 19.9525 -0.625 21.3125 C-3.595 20.9825 -6.565 20.6525 -9.625 20.3125 C-9.955 18.9925 -10.285 17.6725 -10.625 16.3125 C-10.295 15.9825 -9.965 15.6525 -9.625 15.3125 C-9.39307135 13.79780552 -9.21284762 12.27495438 -9.0625 10.75 C-8.97871094 9.92371094 -8.89492187 9.09742188 -8.80859375 8.24609375 C-8.74800781 7.60800781 -8.68742187 6.96992188 -8.625 6.3125 C-9.285 6.3125 -9.945 6.3125 -10.625 6.3125 C-10.625 4.9925 -10.625 3.6725 -10.625 2.3125 C-7.08397088 0.1233416 -4.11731127 0.01394123 0 0 Z " fill="#2576B3" transform="translate(126.625,20.6875)"/>
<path d="M0 0 C2 2 2 2 2.375 4.8125 C1.90186276 8.83416655 0.92699044 10.22311164 -2 13 C-8.32944605 16.90540288 -14.74146202 16.29470756 -22 16 C-22 12 -22 12 -20.27734375 10 C-7.37430691 -1.02897306 -7.37430691 -1.02897306 0 0 Z " fill="#E51E26" transform="translate(42,35)"/>
<path d="M0 0 C3.75 0.375 3.75 0.375 6.625 2.75 C10.02968284 6.95578469 9.93289291 10.07423677 9.9375 15.3125 C9.94974609 16.04146484 9.96199219 16.77042969 9.97460938 17.52148438 C9.98512685 21.3463391 9.92095624 23.11856564 7.75 26.375 C7.09 26.375 6.43 26.375 5.75 26.375 C4.32187785 24.3161239 3.0220176 22.27729066 1.75 20.125 C1.39421875 19.53847656 1.0384375 18.95195313 0.671875 18.34765625 C-3.14278229 12.01361709 -4.61198655 8.73539325 -4.25 1.375 C-3.25 0.375 -3.25 0.375 0 0 Z " fill="#F7C532" transform="translate(48.25,41.625)"/>
<path d="M0 0 C4.29879606 1.50538364 7.90077324 3.74040275 11.625 6.3125 C12.19734375 6.69083984 12.7696875 7.06917969 13.359375 7.45898438 C16.89708132 9.89012907 19.1731777 12.09931182 21 16 C20.9375 18.1875 20.9375 18.1875 20 20 C17.55012318 21.90545975 16.17433375 22.00741846 13.0625 21.875 C8.50497638 20.57285039 6.13403648 18.78828829 3.578125 14.7578125 C0.80000393 9.62297075 -0.63367385 5.82979944 0 0 Z " fill="#267DBE" transform="translate(26,12)"/>
<path d="M0 0 C2.89526013 0.87600684 5.69162767 1.94175141 8.5 3.0625 C9.22703125 3.34416016 9.9540625 3.62582031 10.703125 3.91601562 C12.47191255 4.60258448 14.23643041 5.30013682 16 6 C15 9 15 9 11.75 10.6875 C6.07738306 12.6159846 -0.10434549 12.95870438 -6 12 C-9.53072198 9.73510005 -10.78301519 8.86793925 -11.8125 4.75 C-11.874375 3.8425 -11.93625 2.935 -12 2 C-8.31320378 -1.84041273 -4.81189716 -1.00423577 0 0 Z " fill="#78AF40" transform="translate(61,30)"/>
<path d="M0 0 C0.5534764 2.07553648 1 3.84365964 1 6 C1.1599643 8.54228983 1.32651199 11.08363504 1.5 13.625 C1.54769531 14.33140625 1.59539062 15.0378125 1.64453125 15.765625 C1.7624253 17.51045701 1.88113515 19.25523386 2 21 C-1.01324195 22.50662097 -3.68286377 22.17770373 -7 22 C-8.95216435 20.04783565 -9.84826645 18.46800047 -11 16 C-12.65 16 -14.3 16 -16 16 C-16.33 14.35 -16.66 12.7 -17 11 C-16.4225 11.350625 -15.845 11.70125 -15.25 12.0625 C-13.09820927 13.14095683 -13.09820927 13.14095683 -11 12.9375 C-8.15179495 11.60240388 -6.8078171 9.51803096 -5 7 C-6.32 6.34 -7.64 5.68 -9 5 C-9 4.01 -9 3.02 -9 2 C-5.5647952 -0.29013653 -4.014669 -0.17842973 0 0 Z " fill="#2578B7" transform="translate(176,15)"/>
<path d="M0 0 C1.8871875 0.061875 1.8871875 0.061875 3.8125 0.125 C4.125 2.375 4.125 2.375 3.8125 5.125 C0.7322537 8.29325333 -1.80929908 9.62463418 -6.1875 10.125 C-6.1875 11.115 -6.1875 12.105 -6.1875 13.125 C-5.094375 12.650625 -4.00125 12.17625 -2.875 11.6875 C-0.65273745 10.72312191 1.50750485 9.89333172 3.8125 9.125 C3.75 11.375 3.75 11.375 2.8125 14.125 C-0.21271178 16.75065551 -2.97503337 18.17888741 -7 18 C-9.1875 17.125 -9.1875 17.125 -11.1875 15.125 C-11.8681846 8.2047066 -11.8681846 8.2047066 -9.375 4.25 C-6.24102661 1.20556871 -4.33437751 -0.14211074 0 0 Z " fill="#E89637" transform="translate(93.1875,19.875)"/>
<path d="M0 0 C2.375 1 2.375 1 3.6875 2.625 C4.64650704 5.93793342 4.74268883 8.5682376 4.375 12 C2.6875 14.5 2.6875 14.5 0.375 16 C-2.25 15.9375 -2.25 15.9375 -4.625 15 C-7.07949095 11.31826358 -7.32060229 8.27666592 -6.625 4 C-4.59028508 0.91024772 -3.73253696 0 0 0 Z " fill="#ED9A38" transform="translate(53.625,11)"/>
<path d="M0 0 C1.32 0 2.64 0 4 0 C4.3125 2.25 4.3125 2.25 4 5 C1.24384275 7.75615725 -1.11497836 9.42444124 -5 10 C-4.49967382 5.62214594 -3.11840922 3.11840922 0 0 Z " fill="#D58A33" transform="translate(93,20)"/>
<path d="M0 0 C0.625 1.875 0.625 1.875 1 4 C-1 6 -1 6 -4.625 6.125 C-5.73875 6.08375 -6.8525 6.0425 -8 6 C-8.33 4.68 -8.66 3.36 -9 2 C-5.5647952 -0.29013653 -4.014669 -0.17842973 0 0 Z " fill="#E98B20" transform="translate(176,15)"/>
<path d="M0 0 C0.99 1.32 1.98 2.64 3 4 C1.58957044 4.84384675 0.17135868 5.67469496 -1.25 6.5 C-2.43335937 7.19609375 -2.43335937 7.19609375 -3.640625 7.90625 C-6 9 -6 9 -10 9 C-10 8.01 -10 7.02 -10 6 C-9.44570312 5.73445313 -8.89140625 5.46890625 -8.3203125 5.1953125 C-7.59585938 4.84210937 -6.87140625 4.48890625 -6.125 4.125 C-5.40570313 3.77695312 -4.68640625 3.42890625 -3.9453125 3.0703125 C-1.84864981 2.03442457 -1.84864981 2.03442457 0 0 Z " fill="#0A0B0B" transform="translate(97,24)"/>
<path d="M0 0 C0.86625 0.5259375 0.86625 0.5259375 1.75 1.0625 C4.39392586 2.16413578 5.36171148 1.96737246 8 1 C8.66 0.67 9.32 0.34 10 0 C10 2.31 10 4.62 10 7 C9.01 7.495 9.01 7.495 8 8 C7.34 7.01 6.68 6.02 6 5 C3.41619823 4.74969023 3.41619823 4.74969023 1 5 C0.67 3.35 0.34 1.7 0 0 Z " fill="#05090A" transform="translate(159,26)"/>
<path d="M0 0 C0.33 1.32 0.66 2.64 1 4 C-3.43076923 6.09230769 -3.43076923 6.09230769 -6.3125 5.625 C-6.869375 5.41875 -7.42625 5.2125 -8 5 C-8 4.34 -8 3.68 -8 3 C-5.36 3 -2.72 3 0 3 C0 2.01 0 1.02 0 0 Z " fill="#11324B" transform="translate(138,55)"/>
<path d="M0 0 C-4.5 3 -4.5 3 -9 6 C-8.649375 5.38125 -8.29875 4.7625 -7.9375 4.125 C-7.628125 3.42375 -7.31875 2.7225 -7 2 C-7.33 1.34 -7.66 0.68 -8 0 C-4.71023192 -1.09658936 -3.28696233 -0.79953138 0 0 Z " fill="#131212" transform="translate(153,41)"/>
<path d="M0 0 C3.16115776 1.36983503 3.9927092 1.9890638 6 5 C4.35 5 2.7 5 1 5 C0.67 3.35 0.34 1.7 0 0 Z " fill="#071016" transform="translate(159,26)"/>
</svg>
