<?xml version="1.0" encoding="UTF-8"?>
<svg version="1.1" xmlns="http://www.w3.org/2000/svg" width="512" height="206">
<path d="M0 0 C168.96 0 337.92 0 512 0 C512 67.98 512 135.96 512 206 C343.04 206 174.08 206 0 206 C0 138.02 0 70.04 0 0 Z " fill="#FCFCFD" transform="translate(0,0)"/>
<path d="M0 0 C2.50609441 1.13525697 4.04133226 2.66959661 5.97748566 4.6241312 C6.77801361 5.42488575 7.57854156 6.2256403 8.40332794 7.05066013 C9.25763397 7.92045002 10.11194 8.79023991 10.99213409 9.68638706 C11.8743161 10.57281391 12.75649811 11.45924076 13.6654129 12.37252903 C16.00529487 14.72636138 18.33846308 17.08646835 20.66864777 19.44987583 C23.04965572 21.86161498 25.43921762 24.2648456 27.82807159 26.66880894 C32.5104769 31.3843114 37.18421638 36.10827237 41.85150909 40.83873081 C45.17302426 39.39573719 47.30625951 37.60478899 49.82221222 35.01573277 C50.58980865 34.23184681 51.35740509 33.44796085 52.14826202 32.64032078 C52.96814606 31.7944289 53.78803009 30.94853703 54.63275909 30.07701206 C56.37842373 28.30119951 58.12453088 26.52582186 59.87104034 24.75084019 C62.62162339 21.94431892 65.36814525 19.13411264 68.10688019 16.31602573 C70.75034997 13.60032353 73.40899148 10.90025924 76.07025909 8.20201206 C77.30008514 6.92406521 77.30008514 6.92406521 78.55475616 5.62030125 C79.3223526 4.84587177 80.08994904 4.0714423 80.88080597 3.27354527 C81.55268951 2.58452625 82.22457306 1.89550724 82.91681671 1.18560886 C84.85150909 -0.16126919 84.85150909 -0.16126919 86.8418045 -0.11253262 C89.40148057 1.09905154 90.98245017 2.61015551 92.97748566 4.6241312 C93.77801361 5.42488575 94.57854156 6.2256403 95.40332794 7.05066013 C96.25763397 7.92045002 97.11194 8.79023991 97.99213409 9.68638706 C99.3154071 11.01602734 99.3154071 11.01602734 100.6654129 12.37252903 C103.00529487 14.72636138 105.33846308 17.08646835 107.66864777 19.44987583 C110.04965572 21.86161498 112.43921762 24.2648456 114.82807159 26.66880894 C119.5104769 31.3843114 124.18421638 36.10827237 128.85150909 40.83873081 C132.17302426 39.39573719 134.30625951 37.60478899 136.82221222 35.01573277 C137.58980865 34.23184681 138.35740509 33.44796085 139.14826202 32.64032078 C139.96814606 31.7944289 140.78803009 30.94853703 141.63275909 30.07701206 C143.37842373 28.30119951 145.12453088 26.52582186 146.87104034 24.75084019 C149.62162339 21.94431892 152.36814525 19.13411264 155.10688019 16.31602573 C157.75034997 13.60032353 160.40899148 10.90025924 163.07025909 8.20201206 C163.89014313 7.35004749 164.71002716 6.49808292 165.55475616 5.62030125 C166.3223526 4.84587177 167.08994904 4.0714423 167.88080597 3.27354527 C168.55268951 2.58452625 169.22457306 1.89550724 169.91681671 1.18560886 C171.85150909 -0.16126919 171.85150909 -0.16126919 173.68136215 -0.01354599 C176.63566757 1.14669156 178.26648401 2.88214102 180.50855255 5.12828159 C181.43960815 6.05376804 182.37066376 6.97925449 183.32993317 7.93278599 C184.3545211 8.96639635 185.37896071 10.00015375 186.40326691 11.03404331 C187.48695029 12.11693588 188.57128672 13.19917526 189.65622711 14.28080845 C192.60076977 17.22021432 195.53588546 20.16887247 198.46928501 23.11939335 C201.53650959 26.20163926 204.61182351 29.27579342 207.68616486 32.35093784 C212.84592414 37.51439012 218.00001098 42.68344836 223.15033722 47.85630894 C229.77042378 54.50530052 236.3997757 61.14497327 243.03210068 67.78175449 C248.7246826 73.47830986 254.41299499 79.17912304 260.10062313 84.88062382 C261.93406771 86.71817436 263.76810406 88.55513272 265.60221863 90.3920145 C268.47746208 93.27213682 271.35003891 96.15489302 274.22052383 99.03975773 C275.27749581 100.10126724 276.33532499 101.16192397 277.39404678 102.22168827 C278.83249004 103.66186663 280.26754994 105.10542195 281.70240021 106.54918003 C282.50838276 107.35813725 283.31436531 108.16709446 284.14477158 109.00056553 C285.85150909 110.83873081 285.85150909 110.83873081 285.85150909 111.83873081 C268.69150909 111.83873081 251.53150909 111.83873081 233.85150909 111.83873081 C233.52150909 104.57873081 233.19150909 97.31873081 232.85150909 89.83873081 C228.86257731 83.75834674 228.86257731 83.75834674 224.20012665 78.80812168 C223.59777128 78.25820183 222.99541592 77.70828197 222.37480736 77.14169788 C221.75739237 76.58023438 221.13997738 76.01877087 220.50385284 75.44029331 C219.24517347 74.22090726 217.99114113 72.99670814 216.741539 71.76802158 C213.47993826 68.58564819 210.16046662 65.47149603 206.82337189 62.36863804 C203.41353987 59.17578882 200.06424031 55.9206907 196.70893097 52.67076206 C190.14669188 46.33203087 183.52143993 40.06390994 176.85150909 33.83873081 C173.97494622 35.14354983 171.91052143 36.53013909 169.68178558 38.76121616 C169.08032715 39.35848011 168.47886871 39.95574406 167.85918427 40.57110691 C166.88725883 41.5514616 166.88725883 41.5514616 165.89569855 42.55162144 C165.20421722 43.24120441 164.5127359 43.93078739 163.8003006 44.64126682 C161.51688253 46.92098131 159.24074246 49.20781452 156.96479034 51.49498081 C155.38143003 53.07953311 153.79770002 54.66371606 152.21361542 56.24754429 C148.89603953 59.56668425 145.58185113 62.88915769 142.27021027 66.21421909 C138.01800995 70.48342984 133.75923567 74.74600739 129.4981432 79.00634098 C126.22857962 82.27617599 122.96162514 85.54860704 119.69555473 88.82193089 C118.12561218 90.39506264 116.55505702 91.96758326 114.98388863 93.5394907 C112.79310522 95.7324338 110.60564174 97.92863301 108.41913605 100.12584019 C107.76511307 100.77940998 107.11109009 101.43297977 106.43724823 102.10635471 C105.84424927 102.70361866 105.25125031 103.30088261 104.64028168 103.91624546 C104.12282033 104.43538265 103.60535898 104.95451984 103.07221699 105.48938847 C101.73711171 106.84385148 101.73711171 106.84385148 100.85150909 108.83873081 C101.808638 109.02048862 101.808638 109.02048862 102.78510284 109.20591831 C103.61139191 109.37349644 104.43768097 109.54107456 105.28900909 109.71373081 C106.11272003 109.87615269 106.93643097 110.03857456 107.78510284 110.20591831 C108.46701691 110.41474644 109.14893097 110.62357456 109.85150909 110.83873081 C110.18150909 111.49873081 110.51150909 112.15873081 110.85150909 112.83873081 C94.02150909 112.83873081 77.19150909 112.83873081 59.85150909 112.83873081 C60.18150909 100.29873081 60.51150909 87.75873081 60.85150909 74.83873081 C66.64713409 74.98310581 72.44275909 75.12748081 78.41400909 75.27623081 C93.28115297 75.51590529 93.28115297 75.51590529 105.81806183 68.40342808 C108.47411135 65.34270073 110.73864377 62.30182959 112.85150909 58.83873081 C111.29329455 55.10236111 108.98569611 52.728764 106.13275909 49.88951206 C105.20076691 48.95945347 104.26877472 48.02939487 103.30854034 47.07115269 C102.82336945 46.5921854 102.33819855 46.11321812 101.8383255 45.61973667 C100.35121955 44.15094483 98.87232952 42.67424977 97.39447784 41.19615269 C93.02765643 36.48319407 93.02765643 36.48319407 87.85150909 32.83873081 C87.62973495 33.39806812 87.40796082 33.95740543 87.17946625 34.53369236 C85.43504547 37.56161909 83.22680018 39.40916064 80.60419464 41.71934605 C73.42068192 48.14882194 66.61752179 54.92727955 59.80854034 61.74888706 C58.50543765 63.05131424 57.2021867 64.35359311 55.89879608 65.65573215 C53.19545671 68.35761142 50.49389887 71.06125548 47.79364777 73.76622105 C44.32917385 77.23644888 40.86015128 80.70208985 37.38982868 84.16646767 C34.71068243 86.84201112 32.03390891 89.51991813 29.35786247 92.19856167 C28.07832692 93.47876432 26.79804806 94.7582245 25.51701546 96.03692913 C23.73912489 97.81229167 21.964451 99.5908072 20.19062042 101.37022495 C19.39675179 102.16105724 19.39675179 102.16105724 18.5868454 102.96786594 C15.88179516 105.64891141 15.88179516 105.64891141 13.85150909 108.83873081 C14.98588409 109.12748081 16.12025909 109.41623081 17.28900909 109.71373081 C19.05244659 110.27060581 19.05244659 110.27060581 20.85150909 110.83873081 C21.18150909 111.49873081 21.51150909 112.15873081 21.85150909 112.83873081 C5.02150909 112.83873081 -11.80849091 112.83873081 -29.14849091 112.83873081 C-29.14849091 112.17873081 -29.14849091 111.51873081 -29.14849091 110.83873081 C-28.48849091 110.83873081 -27.82849091 110.83873081 -27.14849091 110.83873081 C-27.14849091 98.95873081 -27.14849091 87.07873081 -27.14849091 74.83873081 C-9.39849091 75.02623081 -9.39849091 75.02623081 -3.87602997 75.17149448 C4.58851509 75.20266674 10.55297172 74.60142582 16.80463409 68.51451206 C18.52595513 66.65802419 20.21307569 64.76876432 21.85150909 62.83873081 C23.17357355 61.49422305 24.50253056 60.15623318 25.85150909 58.83873081 C24.29329455 55.10236111 21.98569611 52.728764 19.13275909 49.88951206 C18.20076691 48.95945347 17.26877472 48.02939487 16.30854034 47.07115269 C15.82336945 46.5921854 15.33819855 46.11321812 14.8383255 45.61973667 C13.35121955 44.15094483 11.87232952 42.67424977 10.39447784 41.19615269 C6.02765643 36.48319407 6.02765643 36.48319407 0.85150909 32.83873081 C0.62111435 33.39444263 0.3907196 33.95015446 0.1533432 34.52270603 C-1.50581371 37.47442507 -3.57620928 39.50553191 -5.97783661 41.8951273 C-6.4675293 42.38511204 -6.95722198 42.87509678 -7.46175385 43.37992954 C-9.0778967 44.99468204 -10.70100691 46.60223481 -12.32427216 48.20982456 C-13.45330525 49.33512368 -14.58189475 50.46086803 -15.71006012 51.58703709 C-18.68098951 54.55033712 -21.65786907 57.50758877 -24.63603973 60.46360874 C-27.6535298 63.46071309 -30.66544259 66.46341014 -33.67778778 69.46568394 C-38.98891474 74.7576823 -44.30492813 80.04472809 -49.62451935 85.32821751 C-51.38926147 87.08354971 -53.12915601 88.86405848 -54.84958649 90.66284275 C-57.14849091 92.83873081 -57.14849091 92.83873081 -59.14849091 92.83873081 C-59.64349091 94.32373081 -59.64349091 94.32373081 -60.14849091 95.83873081 C-61.89067841 97.55748081 -61.89067841 97.55748081 -64.02349091 99.33873081 C-69.11189793 103.34303773 -69.11189793 103.34303773 -72.14849091 108.83873081 C-69.17849091 109.82873081 -66.20849091 110.81873081 -63.14849091 111.83873081 C-63.14849091 112.16873081 -63.14849091 112.49873081 -63.14849091 112.83873081 C-79.97849091 112.83873081 -96.80849091 112.83873081 -114.14849091 112.83873081 C-114.14849091 112.17873081 -114.14849091 111.51873081 -114.14849091 110.83873081 C-112.76382065 109.47629642 -112.76382065 109.47629642 -110.797966 107.86106968 C-105.49750873 103.34882934 -100.64558461 98.43001378 -95.75688934 93.48130894 C-94.73784313 92.45377725 -93.71852795 91.42651224 -92.69896698 90.39949131 C-90.51955391 88.20347467 -88.34155512 86.00606853 -86.16453552 83.80767918 C-82.72282753 80.33316389 -79.27500048 76.86476443 -75.82579803 73.39769077 C-74.6420019 72.20763513 -73.45820598 71.01757928 -72.27441025 69.82752323 C-71.68209626 69.23209311 -71.08978227 68.636663 -70.47951937 68.02318954 C-62.45995866 59.96068134 -54.44510023 51.89358049 -46.44438934 43.81236362 C-41.03183345 38.34544025 -35.61052676 32.88736497 -30.17890954 27.43937731 C-27.30825663 24.55933653 -24.44240233 21.67484959 -21.58726501 18.7794199 C-18.90889 16.06334382 -16.21924239 13.35897908 -13.52032471 10.66331959 C-12.53070013 9.67071335 -11.54538838 8.67378636 -10.56468964 7.67236042 C-9.22932022 6.31002258 -7.87705867 4.96430289 -6.52391815 3.6196146 C-5.77106411 2.86085278 -5.01821007 2.10209095 -4.24254227 1.32033634 C-2.14849091 -0.16126919 -2.14849091 -0.16126919 0 0 Z " fill="#093280" transform="translate(169.14849090576172,1.161269187927246)"/>
<path d="M0 0 C4.41233044 0.04666759 8.82417926 0.01126808 13.23658431 -0.01317537 C21.84600533 -0.04820778 30.45352293 -0.00932727 39.06270688 0.05577674 C49.09936966 0.12891788 59.13563492 0.12796199 69.17251403 0.12456868 C87.07635517 0.12107602 104.97931601 0.18489876 122.8828398 0.2868582 C140.24270317 0.38566958 157.601793 0.43504332 174.96194136 0.43041289 C176.03349602 0.4301332 177.10505068 0.4298535 178.2090767 0.42956533 C179.27881565 0.42928285 180.3485546 0.42900037 181.45070988 0.42870933 C201.2528584 0.42388118 221.05467982 0.46507696 240.85672225 0.52778184 C247.84982835 0.54887873 254.84287427 0.55633637 261.83600867 0.55950797 C270.34855235 0.56428242 278.86054339 0.59553121 287.3728525 0.65983763 C291.71421155 0.69214502 296.05486405 0.71348956 300.39635146 0.70467818 C304.37056082 0.69700305 308.34320811 0.72169071 312.31709165 0.77221785 C313.75390919 0.78489154 315.19088828 0.78584144 316.62771165 0.77384683 C327.39812597 0.6938912 327.39812597 0.6938912 331.31641936 3.31280923 C333.0325342 5.03364587 334.47274766 6.80050735 335.94460738 8.72753203 C336.60460738 9.05753203 337.26460738 9.38753203 337.94460738 9.72753203 C335.80830191 14.33601541 333.54320168 17.385063 328.94460738 19.72753203 C323.758685 20.61291801 318.61325154 20.51236044 313.37284529 20.44905913 C311.76637515 20.45167669 310.15990751 20.45693222 308.55345351 20.46459413 C304.14512919 20.47800035 299.73768074 20.45402565 295.32946801 20.42392576 C290.5735826 20.39800749 285.81774631 20.40678375 281.06181014 20.4113394 C272.82391408 20.41448506 264.58630323 20.39566509 256.34847891 20.36191237 C244.43802775 20.31314362 232.52771445 20.29752303 220.61717426 20.28998442 C201.29305361 20.27685365 181.96908495 20.2369267 162.64504683 20.18016875 C143.87389571 20.12509206 125.10278588 20.08262273 106.33157027 20.05712187 C104.59589744 20.05475736 104.59589744 20.05475736 102.82516051 20.05234508 C97.02023557 20.04451484 91.21531033 20.0369326 85.41038489 20.02947366 C37.25502068 19.96727644 -10.90017856 19.86160017 -59.05539262 19.72753203 C-41.36200283 1.68239252 -23.89941085 -0.33755263 0 0 Z " fill="#1D4186" transform="translate(106.05539262294769,186.27246797084808)"/>
<path d="M0 0 C58.08 0 116.16 0 176 0 C173.525 1.98 173.525 1.98 171 4 C169.59628259 5.32263458 168.21385432 6.66818525 166.85229492 8.03417969 C166.07186325 8.81468689 165.29143158 9.59519409 164.48735046 10.39935303 C163.6600795 11.23178528 162.83280853 12.06421753 161.98046875 12.921875 C161.12189774 13.78186096 160.26332672 14.64184692 159.3787384 15.52789307 C156.64596323 18.26625095 153.91669212 21.00807149 151.1875 23.75 C149.33161047 25.61090676 147.47549327 27.47158648 145.61914062 29.33203125 C141.07678508 33.88539288 136.53729901 38.44159995 132 43 C128.67848484 41.55700638 126.54524958 39.76605818 124.02929688 37.17700195 C123.26170044 36.393116 122.494104 35.60923004 121.70324707 34.80158997 C120.47342102 33.53275215 120.47342102 33.53275215 119.21875 32.23828125 C117.47308536 30.4624687 115.72697821 28.68709105 113.98046875 26.91210938 C111.2298857 24.10558811 108.48336384 21.29538183 105.74462891 18.47729492 C103.10115912 15.76159272 100.44251762 13.06152842 97.78125 10.36328125 C96.55142395 9.0853344 96.55142395 9.0853344 95.29675293 7.78157043 C94.52915649 7.00714096 93.76156006 6.23271149 92.97070312 5.43481445 C92.29881958 4.74579544 91.62693604 4.05677643 90.93469238 3.34687805 C89.1204519 1.80079881 89.1204519 1.80079881 87.00970459 2.04873657 C84.45002852 3.26032072 82.86905892 4.77142469 80.87402344 6.78540039 C80.07349548 7.58615494 79.27296753 8.38690948 78.44818115 9.21192932 C77.59387512 10.08171921 76.73956909 10.95150909 75.859375 11.84765625 C74.97719299 12.7340831 74.09501099 13.62050995 73.18609619 14.53379822 C70.84621423 16.88763056 68.51304602 19.24773754 66.18286133 21.61114502 C63.80185337 24.02288417 61.41229147 26.42611479 59.0234375 28.83007812 C54.3410322 33.54558059 49.66729272 38.26954156 45 43 C41.69905427 41.5587039 39.52890063 39.77253497 36.99755859 37.22460938 C36.22350677 36.45040649 35.44945496 35.67620361 34.65194702 34.87854004 C33.82578888 34.04205933 32.99963074 33.20557861 32.1484375 32.34375 C31.29319489 31.48567749 30.43795227 30.62760498 29.55679321 29.74353027 C26.82480053 27.00034409 24.09983852 24.25029084 21.375 21.5 C19.53170987 19.64667792 17.68796522 17.79380779 15.84375 15.94140625 C11.78967733 11.86765474 7.74002372 7.78956843 3.69418335 3.7076416 C2.46543394 2.46913126 1.23363953 1.23363953 0 0 Z " fill="#FDFDFE" transform="translate(168,0)"/>
<path d="M0 0 C1.41100983 0.0001133 1.41100983 0.0001133 2.8505249 0.00022888 C3.85794739 0.00539017 4.86536987 0.01055145 5.90332031 0.01586914 C6.94087463 0.01728409 7.97842896 0.01869904 9.04742432 0.02015686 C12.35879407 0.02575092 15.67009602 0.03830236 18.98144531 0.05102539 C21.22753809 0.05604116 23.47363192 0.06060393 25.71972656 0.06469727 C31.22365592 0.0757184 36.72754577 0.09245065 42.23144531 0.11352539 C41.58300445 4.30635657 40.71927885 8.3785246 39.66894531 12.48852539 C39.39953125 13.54813477 39.13011719 14.60774414 38.85253906 15.69946289 C38.64757812 16.49610352 38.44261719 17.29274414 38.23144531 18.11352539 C37.27778076 18.13334473 36.32411621 18.15316406 35.34155273 18.17358398 C31.80222232 18.24967554 28.26330115 18.338387 24.72436523 18.4309082 C23.19287192 18.46918337 21.66128916 18.50403888 20.12963867 18.53540039 C17.92757202 18.58108346 15.72612035 18.63907076 13.52441406 18.69946289 C12.83993698 18.7110141 12.1554599 18.72256531 11.45024109 18.73446655 C7.84683694 18.84626283 6.31552701 19.05747092 3.23144531 21.11352539 C2.90144531 22.10352539 2.57144531 23.09352539 2.23144531 24.11352539 C3.18398193 24.13539917 3.18398193 24.13539917 4.15576172 24.15771484 C7.05657612 24.23257628 9.95628737 24.32910965 12.85644531 24.42602539 C13.85546875 24.44858398 14.85449219 24.47114258 15.88378906 24.49438477 C21.35598531 24.69370317 25.53126804 25.00042096 30.23144531 28.11352539 C33.12149916 31.48525488 33.71723654 34.44781974 33.50878906 38.87524414 C32.58004576 46.37059503 30.26847538 51.79430951 25.34082031 57.51977539 C19.60784707 61.85135517 12.55216221 61.38338994 5.70410156 61.30883789 C4.22072548 61.30459305 4.22072548 61.30459305 2.7073822 61.30026245 C-0.43055664 61.28912681 -3.56820308 61.26403442 -6.70605469 61.23852539 C-8.84211825 61.22848704 -10.97818632 61.21936269 -13.11425781 61.21118164 C-18.33245542 61.18920919 -23.55048415 61.15579793 -28.76855469 61.11352539 C-28.11886719 60.42516602 -28.11886719 60.42516602 -27.45605469 59.72290039 C-26.62074219 58.80250977 -26.62074219 58.80250977 -25.76855469 57.86352539 C-25.21167969 57.26024414 -24.65480469 56.65696289 -24.08105469 56.03540039 C-22.39258026 53.95087239 -22.39258026 53.95087239 -22.76855469 50.11352539 C-25.73855469 46.64852539 -25.73855469 46.64852539 -28.76855469 43.11352539 C-17.54855469 42.78352539 -6.32855469 42.45352539 5.23144531 42.11352539 C5.23144531 41.12352539 5.23144531 40.13352539 5.23144531 39.11352539 C4.62671387 39.09894287 4.02198242 39.08436035 3.39892578 39.06933594 C0.63415266 38.99443351 -2.12946826 38.89791466 -4.89355469 38.80102539 C-5.84488281 38.7784668 -6.79621094 38.7559082 -7.77636719 38.73266602 C-13.13898798 38.52784369 -17.14663901 38.12814026 -21.76855469 35.11352539 C-24.95597478 31.50111595 -25.22766103 28.1573346 -25.05761719 23.51977539 C-24.30425116 17.24851226 -22.34949836 11.57391791 -17.76855469 7.11352539 C-11.88068665 2.6704663 -7.46930644 -0.02007878 0 0 Z " fill="#093280" transform="translate(468.7685546875,144.886474609375)"/>
<path d="M0 0 C19.8 0 39.6 0 60 0 C58 10 58 10 55 20 C43.78 20 32.56 20 21 20 C20.67 21.98 20.34 23.96 20 26 C30.89 26 41.78 26 53 26 C52 33 52 33 49 44 C37.45 44 25.9 44 14 44 C13.67 46.64 13.34 49.28 13 52 C12.34 54.31 11.68 56.62 11 59 C2.75 59 -5.5 59 -14 59 C-12.87488772 49.99910176 -12.87488772 49.99910176 -12.08984375 46.93359375 C-11.90832764 46.21526367 -11.72681152 45.49693359 -11.53979492 44.75683594 C-11.3410376 43.99145508 -11.14228027 43.22607422 -10.9375 42.4375 C-10.72778564 41.61411133 -10.51807129 40.79072266 -10.30200195 39.94238281 C-9.54032506 36.96011037 -8.77024462 33.98007113 -8 31 C-7.66063778 29.68184702 -7.32145486 28.36364786 -6.98242188 27.04541016 C-4.66304753 18.02815956 -2.3325382 9.01387644 0 0 Z " fill="#0D3682" transform="translate(14,146)"/>
<path d="M0 0 C1.12820758 0.00042423 2.25641516 0.00084846 3.41881084 0.00128555 C32.09171568 0.01225239 60.76460918 0.03213837 89.4375 0.0625 C88.48020084 1.18838014 87.52162105 2.3131715 86.5625 3.4375 C86.02882813 4.06398438 85.49515625 4.69046875 84.9453125 5.3359375 C83.82317993 6.62086651 82.64378025 7.85621975 81.4375 9.0625 C78.81784564 9.22454949 76.30914701 9.26282641 73.69165039 9.2094574 C72.89216256 9.20098547 72.09267473 9.19251355 71.26896 9.1837849 C68.65823399 9.15336341 66.04799633 9.10837261 63.4375 9.0625 C61.72615427 9.03889607 60.01479945 9.01594271 58.30343628 8.99363899 C52.65902183 8.91539902 47.01511268 8.81359558 41.37109375 8.71118164 C39.21673814 8.673265 37.06238015 8.63548314 34.90802002 8.5978241 C29.1053078 8.49596063 23.3026333 8.39208452 17.49996567 8.2877152 C12.62109449 8.20015182 7.74220559 8.11359894 2.86331654 8.02703851 C-8.67643489 7.82228759 -20.21615628 7.61590294 -31.75585938 7.40844727 C-43.56728689 7.19613166 -55.37875812 6.98639425 -67.19025517 6.77798563 C-77.40425458 6.59767965 -87.6182253 6.41580669 -97.83217525 6.23272032 C-103.89942429 6.12397371 -109.96668131 6.01575037 -116.03396606 5.90901375 C-138.60651021 5.511315 -161.17509986 5.09679159 -183.74033451 4.39004612 C-192.96253595 4.10208042 -202.1807488 3.89120456 -211.40695 3.80213928 C-213.71487128 3.77973278 -216.0227155 3.75295126 -218.33058167 3.72546387 C-224.04022789 3.65817207 -229.74993405 3.59693704 -235.45965576 3.53643799 C-241.13851652 3.476065 -246.81732905 3.41259991 -252.49609375 3.34375 C-253.27348278 3.33436401 -254.05087181 3.32497803 -254.85181808 3.31530762 C-269.09964755 3.13678638 -283.32708817 2.69668761 -297.5625 2.0625 C-297.5625 1.7325 -297.5625 1.4025 -297.5625 1.0625 C-270.93757348 0.88365368 -244.31256984 0.71851724 -217.6875 0.5625 C-216.16837438 0.55357719 -216.16837438 0.55357719 -214.61855936 0.54447412 C-143.07877877 0.12520946 -71.54095941 -0.02771035 0 0 Z " fill="#0D3682" transform="translate(365.5625,116.9375)"/>
<path d="M0 0 C4.44739413 -0.07449251 8.8944519 -0.12876257 13.34228516 -0.16479492 C14.85341727 -0.17982543 16.36450618 -0.20025564 17.87548828 -0.22631836 C20.05512187 -0.26295689 22.23417575 -0.27978338 24.4140625 -0.29296875 C25.7232666 -0.3086792 27.0324707 -0.32438965 28.38134766 -0.34057617 C32.24866211 0.0234033 34.67336493 1.04858416 38 3 C38.05437607 4.58294782 38.09296271 6.16644256 38.125 7.75 C38.14820313 8.63171875 38.17140625 9.5134375 38.1953125 10.421875 C37.98793119 13.15930835 37.45643319 14.69398079 36 17 C33.875 18.75 33.875 18.75 32 20 C32.495 20.350625 32.99 20.70125 33.5 21.0625 C35.83626308 24.08017315 35.44061086 26.28627993 35 30 C33.33168327 33.27484396 32.12943803 35.38873218 28.86450195 37.15576172 C25.17018912 38.24456542 21.66855368 38.24851894 17.85546875 38.1953125 C17.08568192 38.1924826 16.31589508 38.18965271 15.52278137 38.18673706 C13.07752575 38.17559157 10.63264388 38.15049781 8.1875 38.125 C6.52409385 38.1149629 4.86068193 38.10583833 3.19726562 38.09765625 C-0.86863237 38.07567073 -4.93425294 38.04118014 -9 38 C-8.48203891 33.58445486 -7.94105046 29.27146992 -6.9140625 24.94140625 C-6.70523437 24.06033203 -6.49640625 23.17925781 -6.28125 22.27148438 C-6.0646875 21.37751953 -5.848125 20.48355469 -5.625 19.5625 C-5.41617187 18.67240234 -5.20734375 17.78230469 -4.9921875 16.86523438 C-3.61823166 11.13064428 -1.9630618 5.56030882 0 0 Z " fill="#0F3884" transform="translate(406,146)"/>
<path d="M0 0 C4.62640153 -0.09901748 9.25218387 -0.17153649 13.87939453 -0.21972656 C15.45274604 -0.2398188 17.02602308 -0.26709799 18.59912109 -0.30175781 C20.86314272 -0.35038494 23.12617573 -0.37299135 25.390625 -0.390625 C26.09181458 -0.41127014 26.79300415 -0.43191528 27.51544189 -0.45318604 C30.93953236 -0.45475255 32.6929841 -0.23566606 35.44458008 1.87646484 C38.20680044 5.64758283 37.55143159 9.53199018 37 14 C35.97515942 17.6894261 35.14733819 19.34902798 31.796875 21.25 C29.55597764 22.26474597 27.31651727 23.17440684 25 24 C25.5775 24.84304687 26.155 25.68609375 26.75 26.5546875 C27.50024193 27.66129435 28.25022874 28.76807419 29 29.875 C30.11375 31.51082031 30.11375 31.51082031 31.25 33.1796875 C33 36 33 36 33 38 C21.03658197 39.19900626 21.03658197 39.19900626 16 38 C12.73013151 35.13951283 11.23970984 32.13236613 10 28 C10 27.34 10 26.68 10 26 C9.34 26 8.68 26 8 26 C7.855625 27.2375 7.71125 28.475 7.5625 29.75 C7.2271044 32.62481941 6.70982076 35.16071698 6 38 C1.05 38 -3.9 38 -9 38 C-6.61725184 25.15963489 -3.38695943 12.60948069 0 0 Z " fill="#0F3784" transform="translate(227,146)"/>
<path d="M0 0 C8.58 0 17.16 0 26 0 C26 12.54 26 25.08 26 38 C21.05 38 16.1 38 11 38 C11 36.35 11 34.7 11 33 C6.71 33 2.42 33 -2 33 C-2.99 35.475 -2.99 35.475 -4 38 C-9.28 38 -14.56 38 -20 38 C-18.50476889 33.51430667 -17.16007259 30.20910084 -14.8828125 26.19140625 C-14.27566406 25.11439453 -13.66851562 24.03738281 -13.04296875 22.92773438 C-12.41003906 21.81720703 -11.77710938 20.70667969 -11.125 19.5625 C-10.49980469 18.45583984 -9.87460937 17.34917969 -9.23046875 16.20898438 C-6.17001399 10.79657337 -3.084883 5.39854525 0 0 Z " fill="#0E3683" transform="translate(367,146)"/>
<path d="M0 0 C2.61376953 -0.34057617 2.61376953 -0.34057617 5.8828125 -0.29296875 C7.45893311 -0.28172974 7.45893311 -0.28172974 9.06689453 -0.27026367 C10.40606934 -0.24295166 11.74524414 -0.21563965 13.125 -0.1875 C17.37375 -0.125625 21.6225 -0.06375 26 0 C26 12.54 26 25.08 26 38 C21.05 38 16.1 38 11 38 C11 36.02 11 34.04 11 32 C9.06177404 32.03305502 7.12414332 32.10249905 5.1875 32.1875 C4.10855469 32.22230469 3.02960938 32.25710937 1.91796875 32.29296875 C0.47357422 32.64294922 0.47357422 32.64294922 -1 33 C-1.4434375 33.8353125 -1.886875 34.670625 -2.34375 35.53125 C-4 38 -4 38 -5.81713867 38.40942383 C-8.12483272 38.49234575 -10.38166861 38.43545245 -12.6875 38.3125 C-13.48478516 38.28994141 -14.28207031 38.26738281 -15.10351562 38.24414062 C-17.06981334 38.18526944 -19.03514491 38.09558755 -21 38 C-17.1227101 29.76739816 -12.72946769 21.85399706 -8.25 13.9375 C-7.67096924 12.91390381 -7.09193848 11.89030762 -6.49536133 10.83569336 C-2.28327203 3.42490805 -2.28327203 3.42490805 0 0 Z " fill="#0C3582" transform="translate(91,146)"/>
<path d="M0 0 C1.39456452 0.00667256 2.78911118 0.01863093 4.18359375 0.03515625 C4.89451172 0.03966797 5.60542969 0.04417969 6.33789062 0.04882812 C8.09899388 0.06064761 9.86005411 0.07858362 11.62109375 0.09765625 C10.63109375 4.71765625 9.64109375 9.33765625 8.62109375 14.09765625 C11.26109375 14.09765625 13.90109375 14.09765625 16.62109375 14.09765625 C16.74226563 13.4221875 16.8634375 12.74671875 16.98828125 12.05078125 C17.15585937 11.15875 17.3234375 10.26671875 17.49609375 9.34765625 C17.65851563 8.4659375 17.8209375 7.58421875 17.98828125 6.67578125 C18.62109375 4.09765625 18.62109375 4.09765625 20.62109375 0.09765625 C25.24109375 0.09765625 29.86109375 0.09765625 34.62109375 0.09765625 C34.0692325 6.35415059 32.9788001 12.02746822 31.18359375 18.03515625 C29.51152305 23.806901 27.99436394 29.51402565 26.98046875 35.4453125 C26.62109375 37.09765625 26.62109375 37.09765625 25.62109375 38.09765625 C23.2679582 38.17037366 20.91275707 38.18136493 18.55859375 38.16015625 C17.26824219 38.15113281 15.97789062 38.14210937 14.6484375 38.1328125 C13.64941406 38.12121094 12.65039062 38.10960937 11.62109375 38.09765625 C11.76340183 36.68063112 11.91010121 35.26404665 12.05859375 33.84765625 C12.18041016 32.66429687 12.18041016 32.66429687 12.3046875 31.45703125 C12.62109375 29.09765625 12.62109375 29.09765625 13.62109375 25.09765625 C10.65109375 25.09765625 7.68109375 25.09765625 4.62109375 25.09765625 C3.96109375 29.38765625 3.30109375 33.67765625 2.62109375 38.09765625 C-2.32890625 38.09765625 -7.27890625 38.09765625 -12.37890625 38.09765625 C-11.72386278 30.95586283 -10.07165419 24.11670409 -8.36767578 17.15893555 C-7.87443881 15.14188706 -7.3899206 13.122877 -6.90625 11.10351562 C-4.24048154 0.12255727 -4.24048154 0.12255727 0 0 Z " fill="#0F3884" transform="translate(317.37890625,145.90234375)"/>
<path d="M0 0 C11.88 0 23.76 0 36 0 C35.34 3.96 34.68 7.92 34 12 C23.605 12.495 23.605 12.495 13 13 C12.67 13.99 12.34 14.98 12 16 C18.6 16 25.2 16 32 16 C31.67 18.97 31.34 21.94 31 25 C23.74 25 16.48 25 9 25 C9 25.99 9 26.98 9 28 C15.6 28 22.2 28 29 28 C28 37 28 37 27 38 C24.40640678 38.08851529 21.83960309 38.11525945 19.24609375 38.09765625 C18.47064713 38.0962413 17.6952005 38.09482635 16.89625549 38.09336853 C14.40996506 38.08775345 11.9237634 38.07519846 9.4375 38.0625 C7.75586067 38.05748694 6.07421994 38.0529237 4.39257812 38.04882812 C0.26168434 38.03777913 -3.86914276 38.02050445 -8 38 C-7.52623153 29.5216472 -5.56799533 21.57039851 -3.4375 13.375 C-2.303125 8.96125 -1.16875 4.5475 0 0 Z " fill="#113985" transform="translate(272,146)"/>
<path d="M0 0 C1.25619141 0.01353516 2.51238281 0.02707031 3.80664062 0.04101562 C6.89237279 0.07621409 9.97721024 0.12545695 13.0625 0.1875 C12.75480293 2.00082154 12.44120936 3.81314345 12.125 5.625 C11.95097656 6.63433594 11.77695313 7.64367187 11.59765625 8.68359375 C11.0625 11.1875 11.0625 11.1875 10.0625 12.1875 C8.5737814 12.27419432 7.081055 12.29453494 5.58984375 12.28515625 C4.69072266 12.28193359 3.79160156 12.27871094 2.86523438 12.27539062 C1.91970703 12.26701172 0.97417969 12.25863281 0 12.25 C-0.94939453 12.24548828 -1.89878906 12.24097656 -2.87695312 12.23632812 C-5.23053065 12.2245011 -7.58398477 12.20802025 -9.9375 12.1875 C-9.9375 13.5075 -9.9375 14.8275 -9.9375 16.1875 C-8.97328125 16.14109375 -8.0090625 16.0946875 -7.015625 16.046875 C-5.75234375 16.01078125 -4.4890625 15.9746875 -3.1875 15.9375 C-1.93453125 15.89109375 -0.6815625 15.8446875 0.609375 15.796875 C4.0625 16.1875 4.0625 16.1875 6.48046875 17.96875 C8.38589535 20.641052 8.68004254 22.76179145 8.52734375 26.0234375 C7.49590909 30.82524256 4.48193149 34.76806851 1.0625 38.1875 C-1.91845703 38.41455078 -1.91845703 38.41455078 -5.6953125 38.3828125 C-6.35836395 38.3799826 -7.02141541 38.37715271 -7.70455933 38.37423706 C-9.82405583 38.36303435 -11.94313104 38.33793051 -14.0625 38.3125 C-15.49869182 38.30247028 -16.93489025 38.29334441 -18.37109375 38.28515625 C-21.89336628 38.263095 -25.41539203 38.22856494 -28.9375 38.1875 C-28.62967504 36.54078588 -28.31610766 34.89514424 -28 33.25 C-27.82597656 32.33347656 -27.65195313 31.41695312 -27.47265625 30.47265625 C-26.9375 28.1875 -26.9375 28.1875 -25.9375 27.1875 C-23.07872091 26.95048761 -20.23866703 26.76530818 -17.375 26.625 C-16.56869141 26.58181641 -15.76238281 26.53863281 -14.93164062 26.49414062 C-12.93381195 26.38774738 -10.9356793 26.28709112 -8.9375 26.1875 C-8.9375 25.8575 -8.9375 25.5275 -8.9375 25.1875 C-9.82953125 25.15011719 -10.7215625 25.11273438 -11.640625 25.07421875 C-12.81109375 25.00847656 -13.9815625 24.94273437 -15.1875 24.875 C-16.34765625 24.81699219 -17.5078125 24.75898438 -18.703125 24.69921875 C-22.11858699 24.15884976 -23.62811217 23.7429243 -25.9375 21.1875 C-26.95103588 16.79784114 -26.75780834 12.2056037 -25.0546875 8.015625 C-19.15622014 -1.12504627 -9.81131858 -0.20065098 0 0 Z " fill="#0E3784" transform="translate(150.9375,145.8125)"/>
<path d="M0 0 C11.22 0 22.44 0 34 0 C33.30260025 4.88179827 32.64344024 8.50793002 31 13 C27.7 13 24.4 13 21 13 C20.87753906 14.134375 20.75507813 15.26875 20.62890625 16.4375 C20.05293264 21.04528886 19.04247653 25.49419463 17.9375 30 C17.75123047 30.77472656 17.56496094 31.54945313 17.37304688 32.34765625 C16.91923822 34.23270759 16.46017508 36.1164927 16 38 C10.72 38 5.44 38 0 38 C0.62057594 34.95737041 1.24629883 31.91595177 1.875 28.875 C2.04902344 28.0190625 2.22304687 27.163125 2.40234375 26.28125 C3.34611684 21.73715732 4.4086859 17.37252973 6 13 C3.03 13 0.06 13 -3 13 C-2.49042339 7.98916329 -1.91507725 4.78769313 0 0 Z " fill="#103883" transform="translate(169,146)"/>
<path d="M0 0 C8.25 0 16.5 0 25 0 C25 1.98 25 3.96 25 6 C24.34 6 23.68 6 23 6 C23 18.87 23 31.74 23 45 C22.34 45 21.68 45 21 45 C19.625 43.6015625 19.625 43.6015625 18 41.625 C10.89229225 32.73197785 10.89229225 32.73197785 2 26 C2 19.4 2 12.8 2 6 C1.34 6 0.68 6 0 6 C0 4.02 0 2.04 0 0 Z " fill="#083280" transform="translate(369,0)"/>
<path d="M0 0 C16.83 0 33.66 0 51 0 C51 12.21 51 24.42 51 37 C48.69 37 46.38 37 44 37 C44 27.1 44 17.2 44 7 C31.46 7 18.92 7 6 7 C6 16.57 6 26.14 6 36 C4.02 36 2.04 36 0 36 C0 24.12 0 12.24 0 0 Z " fill="#0B3482" transform="translate(320,76)"/>
<path d="M0 0 C1.5202541 0.00128403 1.5202541 0.00128403 3.0712204 0.00259399 C14.52667062 0.01306534 25.98208676 0.03136176 37.4375 0.0625 C37.4375 0.3925 37.4375 0.7225 37.4375 1.0625 C11.6975 1.3925 -14.0425 1.7225 -40.5625 2.0625 C-40.2325 2.7225 -39.9025 3.3825 -39.5625 4.0625 C-31.9725 4.3925 -24.3825 4.7225 -16.5625 5.0625 C-16.5625 5.3925 -16.5625 5.7225 -16.5625 6.0625 C-35.52866146 6.12061181 -54.48321799 6.01207656 -73.44726562 5.69018555 C-77.29812922 5.62524236 -81.14904792 5.56529671 -85 5.50585938 C-97.6709008 5.30206318 -110.33504302 5.02492802 -123.00098228 4.62521172 C-135.85304004 4.21988181 -148.70097321 3.93548239 -161.55859375 3.78125 C-162.35618984 3.7716519 -163.15378593 3.76205379 -163.97555161 3.75216484 C-170.47019881 3.67521366 -176.96491802 3.60525491 -183.45965576 3.53643799 C-189.13851652 3.476065 -194.81732905 3.41259991 -200.49609375 3.34375 C-201.27348278 3.33436401 -202.05087181 3.32497803 -202.85181808 3.31530762 C-217.09964755 3.13678638 -231.32708817 2.69668761 -245.5625 2.0625 C-245.5625 1.7325 -245.5625 1.4025 -245.5625 1.0625 C-216.77086322 0.89058067 -187.97919591 0.72421441 -159.1875 0.5625 C-158.12958205 0.55655146 -157.07166409 0.55060292 -155.98168802 0.54447412 C-51.27835967 -0.04365044 -51.27835967 -0.04365044 0 0 Z " fill="#385A98" transform="translate(313.5625,116.9375)"/>
<path d="M0 0 C16.76769689 -0.02334562 33.53538852 -0.04098737 50.30309772 -0.05181217 C58.08838252 -0.05697158 65.87365723 -0.06400755 73.65893555 -0.07543945 C80.44345153 -0.0853971 87.22796021 -0.09185601 94.0124833 -0.09408849 C97.60584332 -0.09539376 101.19918245 -0.09846802 104.79253578 -0.10573006 C108.800909 -0.11376535 112.80924571 -0.11399044 116.81762695 -0.11352539 C118.0130864 -0.11712067 119.20854584 -0.12071594 120.44023132 -0.12442017 C122.07455612 -0.12235817 122.07455612 -0.12235817 123.74189758 -0.12025452 C124.69042256 -0.12117631 125.63894754 -0.1220981 126.61621571 -0.12304783 C129 0 129 0 132 1 C133.62719482 1.08143855 135.25751719 1.1075302 136.88671875 1.09765625 C137.82451172 1.09443359 138.76230469 1.09121094 139.72851562 1.08789062 C141.19321289 1.07532227 141.19321289 1.07532227 142.6875 1.0625 C144.16959961 1.05573242 144.16959961 1.05573242 145.68164062 1.04882812 C148.12115474 1.03704303 150.56054689 1.02059011 153 1 C153 1.66 153 2.32 153 3 C149.37 3 145.74 3 142 3 C142 3.66 142 4.32 142 5 C141.34 5 140.68 5 140 5 C140 4.34 140 3.68 140 3 C138.73542969 3.01740234 138.73542969 3.01740234 137.4453125 3.03515625 C136.34960938 3.04417969 135.25390625 3.05320313 134.125 3.0625 C132.48917969 3.07990234 132.48917969 3.07990234 130.8203125 3.09765625 C128 3 128 3 126 2 C126 3.65 126 5.3 126 7 C125.34 7.33 124.68 7.66 124 8 C123.34 8.99 122.68 9.98 122 11 C122.875 5.25 122.875 5.25 124 3 C122.0085944 2.61866701 120.00720923 2.28674418 118 2 C117.67 2.33 117.34 2.66 117 3 C115.00043389 3.04165763 112.99956611 3.04165763 111 3 C108.36423317 3 105.51486589 4.26840265 103 5 C103 4.01 103 3.02 103 2 C102.34 2.165 101.68 2.33 101 2.5 C97.26065515 3.12322414 93.7931513 3.06117986 90 3 C89.01 3 88.02 3 87 3 C85.33333333 3 83.66666667 3 82 3 C81.814375 4.1446875 81.814375 4.1446875 81.625 5.3125 C81 8 81 8 79 11 C78.34 11 77.68 11 77 11 C77.4640625 10.13375 77.4640625 10.13375 77.9375 9.25 C78.92871384 7.15095893 79.47548801 5.24925862 80 3 C79.38511719 3.02320313 78.77023437 3.04640625 78.13671875 3.0703125 C76.92435547 3.09738281 76.92435547 3.09738281 75.6875 3.125 C74.88699219 3.14820313 74.08648437 3.17140625 73.26171875 3.1953125 C71 3 71 3 68 1 C68 1.66 68 2.32 68 3 C65.69 3.66 63.38 4.32 61 5 C61 4.34 61 3.68 61 3 C59.906875 3.020625 58.81375 3.04125 57.6875 3.0625 C54 3 54 3 51 2 C50.67 2.66 50.34 3.32 50 4 C49.21625 3.979375 48.4325 3.95875 47.625 3.9375 C45.01885039 3.81315937 45.01885039 3.81315937 43 5 C43 4.34 43 3.68 43 3 C40.36 3 37.72 3 35 3 C35 2.67 35 2.34 35 2 C23.45 1.67 11.9 1.34 0 1 C0 0.67 0 0.34 0 0 Z " fill="#052F7F" transform="translate(234,189)"/>
<path d="M0 0 C2.12438339 -0.08078641 4.2496323 -0.13909141 6.375 -0.1875 C7.55835938 -0.22230469 8.74171875 -0.25710937 9.9609375 -0.29296875 C11.46527344 -0.14794922 11.46527344 -0.14794922 13 0 C13.66 0.99 14.32 1.98 15 3 C15.33 2.67 15.66 2.34 16 2 C17.66617115 1.95936168 19.33388095 1.957279 21 2 C21 1.34 21 0.68 21 0 C26.94 0.99 26.94 0.99 33 2 C32.24872886 5.75635569 31.75994274 7.83210307 30 11 C29.4225 10.814375 28.845 10.62875 28.25 10.4375 C25.76855951 9.95499768 24.39011444 10.28296567 22 11 C19 11 16 11 13 11 C11.875 7.25 11.875 7.25 13 5 C12.01 5 11.02 5 10 5 C9.67 6.98 9.34 8.96 9 11 C7.68 11.33 6.36 11.66 5 12 C5 11.01 5 10.02 5 9 C4.46375 9.33 3.9275 9.66 3.375 10 C0.4608939 11.22699204 -1.86867708 11.14233286 -5 11 C-5 10.34 -5 9.68 -5 9 C-4.34 8.67 -3.68 8.34 -3 8 C-3.33 7.01 -3.66 6.02 -4 5 C-3.34 4.01 -2.68 3.02 -2 2 C0.5625 1.875 0.5625 1.875 3 2 C3.33 1.67 3.66 1.34 4 1 C2.68 0.67 1.36 0.34 0 0 Z " fill="#2F4B89" transform="translate(281,190)"/>
<path d="M0 0 C7.26 0 14.52 0 22 0 C17.68667663 5.0322106 13.41241777 9.77014323 8.75 14.4375 C8.12609375 15.07365234 7.5021875 15.70980469 6.859375 16.36523438 C5.9621875 17.26532227 5.9621875 17.26532227 5.046875 18.18359375 C4.50901367 18.72556396 3.97115234 19.26753418 3.41699219 19.82592773 C2 21 2 21 0 21 C0 14.07 0 7.14 0 0 Z " fill="#E9ECF2" transform="translate(237,83)"/>
<path d="M0 0 C7.26 0 14.52 0 22 0 C15.25781022 7.86588808 15.25781022 7.86588808 12.60546875 10.23828125 C12.04279297 10.74810547 11.48011719 11.25792969 10.90039062 11.78320312 C10.33513672 12.28787109 9.76988281 12.79253906 9.1875 13.3125 C5.07274894 16.7334663 5.07274894 16.7334663 2 21 C1.34 21 0.68 21 0 21 C0 14.07 0 7.14 0 0 Z " fill="#E8EBF2" transform="translate(149,83)"/>
<path d="M0 0 C0.66 0.33 1.32 0.66 2 1 C1.02416992 2.48168945 1.02416992 2.48168945 -1 4 C-3.87082157 4.26163168 -6.51986493 4.34888634 -9.38671875 4.29296875 C-10.20372757 4.28872391 -11.02073639 4.28447906 -11.86250305 4.28010559 C-14.47117107 4.26331691 -17.07906562 4.22566519 -19.6875 4.1875 C-21.45636905 4.17245337 -23.22525021 4.15876492 -24.99414062 4.14648438 C-29.32996456 4.11596473 -33.6641169 4.05724638 -38 4 C-38 15.55 -38 27.1 -38 39 C-25.13 39 -12.26 39 1 39 C1.33 38.01 1.66 37.02 2 36 C4.64 37.32 7.28 38.64 10 40 C10 40.33 10 40.66 10 41 C-6.83 41 -23.66 41 -41 41 C-41 40.34 -41 39.68 -41 39 C-40.34 39 -39.68 39 -39 39 C-39 27.12 -39 15.24 -39 3 C-36.35226563 2.95101562 -33.70453125 2.90203125 -30.9765625 2.8515625 C-28.4182357 2.79758543 -25.86000421 2.74026515 -23.30175781 2.68261719 C-21.52090527 2.64428435 -19.73997416 2.60943911 -17.95898438 2.578125 C-15.40205766 2.53256729 -12.8456739 2.47455893 -10.2890625 2.4140625 C-9.49005524 2.40251129 -8.69104797 2.39096008 -7.86782837 2.37905884 C-3.46542788 2.42741056 -3.46542788 2.42741056 0 0 Z " fill="#3A5B9D" transform="translate(181,73)"/>
<path d="M0 0 C25.08 0 50.16 0 76 0 C75.34 0.33 74.68 0.66 74 1 C74 1.66 74 2.32 74 3 C73.01 3 72.02 3 71 3 C71 3.99 71 4.98 71 6 C70.34 6 69.68 6 69 6 C68.505 5.01 68.505 5.01 68 4 C67.01 3.67 66.02 3.34 65 3 C65 2.34 65 1.68 65 1 C64.01 1.66 63.02 2.32 62 3 C59.67612053 3.39387788 57.34206251 3.73486085 55 4 C55 3.01 55 2.02 55 1 C52.03 1 49.06 1 46 1 C45.67 1.66 45.34 2.32 45 3 C45 2.34 45 1.68 45 1 C44.13568359 1.47373047 44.13568359 1.47373047 43.25390625 1.95703125 C36.45621926 5.10258138 28.19646688 4.10714875 21 3 C20.34 2.67 19.68 2.34 19 2 C16.765028 2.54216107 16.765028 2.54216107 14.375 3.4375 C13.55773437 3.72496094 12.74046875 4.01242188 11.8984375 4.30859375 C11.27195312 4.53675781 10.64546875 4.76492187 10 5 C9.67 4.34 9.34 3.68 9 3 C8.01 3 7.02 3 6 3 C6 3.99 6 4.98 6 6 C5.34 6 4.68 6 4 6 C4 5.01 4 4.02 4 3 C3.01 2.67 2.02 2.34 1 2 C0.67 1.34 0.34 0.68 0 0 Z " fill="#072E7F" transform="translate(80,189)"/>
<path d="M0 0 C4.29 0 8.58 0 13 0 C13 0.66 13 1.32 13 2 C13.99 1.34 14.98 0.68 16 0 C18.6875 0.375 18.6875 0.375 21 1 C21.6875 2.75 21.6875 2.75 22 5 C21 7.25 21 7.25 19 9 C15.375 9.3125 15.375 9.3125 12 9 C11.67 8.67 11.34 8.34 11 8 C10.67 8.66 10.34 9.32 10 10 C8.68 10 7.36 10 6 10 C6 9.01 6 8.02 6 7 C5.01 7.66 4.02 8.32 3 9 C2.01 9 1.02 9 0 9 C0.33 7.02 0.66 5.04 1 3 C0.34 3 -0.32 3 -1 3 C-0.67 2.01 -0.34 1.02 0 0 Z " fill="#7383A6" transform="translate(202,192)"/>
<path d="M0 0 C0.70189453 0.01353516 1.40378906 0.02707031 2.12695312 0.04101562 C3.85579829 0.07629818 5.58424765 0.13010417 7.3125 0.1875 C6.69543764 3.55632695 5.83796921 6.13656158 4.3125 9.1875 C4.3125 10.1775 4.3125 11.1675 4.3125 12.1875 C0.3525 12.1875 -3.6075 12.1875 -7.6875 12.1875 C-8.0175 11.5275 -8.3475 10.8675 -8.6875 10.1875 C-9.6775 10.5175 -10.6675 10.8475 -11.6875 11.1875 C-11.08549331 3.84301839 -11.08549331 3.84301839 -9.625 1.4375 C-6.60134322 -0.51324631 -3.46999823 -0.12635848 0 0 Z " fill="#3C578E" transform="translate(269.6875,189.8125)"/>
<path d="M0 0 C3.96 0 7.92 0 12 0 C12 0.66 12 1.32 12 2 C13.65 1.67 15.3 1.34 17 1 C16.01 2.485 16.01 2.485 15 4 C14.83286431 6.62531524 14.83286431 6.62531524 15 9 C14.195625 8.979375 13.39125 8.95875 12.5625 8.9375 C10.06645115 8.70366379 10.06645115 8.70366379 9 10 C6.98035801 10.07244053 4.95832876 10.08377188 2.9375 10.0625 C1.83277344 10.05347656 0.72804688 10.04445312 -0.41015625 10.03515625 C-1.69212891 10.01775391 -1.69212891 10.01775391 -3 10 C-2.01 6.7 -1.02 3.4 0 0 Z " fill="#3C5889" transform="translate(362,192)"/>
<path d="M0 0 C1.35568336 0.00333092 1.35568336 0.00333092 2.73875427 0.00672913 C3.75973709 0.00680466 4.78071991 0.00688019 5.8326416 0.00695801 C6.94304306 0.01211929 8.05344452 0.01728058 9.19749451 0.02259827 C10.89336952 0.02472069 10.89336952 0.02472069 12.62350464 0.02688599 C16.25105891 0.03250433 19.8785525 0.04505994 23.50608826 0.05775452 C25.95856133 0.06276715 28.41103536 0.06733047 30.86351013 0.07142639 C36.89022371 0.08247971 42.91690165 0.09923568 48.94358826 0.12025452 C48.94358826 0.78025452 48.94358826 1.44025452 48.94358826 2.12025452 C35.7991469 3.29545051 22.69284455 3.23565726 9.50608826 3.18275452 C7.31012574 3.1777272 5.11416211 3.17316649 2.91819763 3.16908264 C-2.40669702 3.15817986 -7.73154899 3.14154026 -13.05641174 3.12025452 C-13.05641174 2.79025452 -13.05641174 2.46025452 -13.05641174 2.12025452 C-12.34613831 2.05966858 -11.63586487 1.99908264 -10.90406799 1.93666077 C-9.52541565 1.81097717 -9.52541565 1.81097717 -8.11891174 1.68275452 C-7.20238831 1.60154358 -6.28586487 1.52033264 -5.34156799 1.43666077 C-2.82982715 1.08888127 -2.46868375 0.14436329 0 0 Z " fill="#04327F" transform="translate(184.05641174316406,117.87974548339844)"/>
<path d="M0 0 C1.65 0 3.3 0 5 0 C5 0.99 5 1.98 5 3 C5.66 2.67 6.32 2.34 7 2 C8.99960012 1.960008 11.00047242 1.95653201 13 2 C13.6875 3.75 13.6875 3.75 14 6 C12.90625 8.125 12.90625 8.125 11 10 C8.08203125 10.390625 8.08203125 10.390625 4.8125 10.25 C3.72582031 10.21390625 2.63914062 10.1778125 1.51953125 10.140625 C0.68808594 10.09421875 -0.14335937 10.0478125 -1 10 C-0.67 8.02 -0.34 6.04 0 4 C-0.99 4.33 -1.98 4.66 -3 5 C-4.21869929 7.50447516 -4.21869929 7.50447516 -5 10 C-5.99 9.67 -6.98 9.34 -8 9 C-7.7215625 8.1028125 -7.7215625 8.1028125 -7.4375 7.1875 C-6.77906313 4.83591238 -6.77906313 4.83591238 -8 2 C-5.36 2 -2.72 2 0 2 C0 1.34 0 0.68 0 0 Z " fill="#314E85" transform="translate(332,191)"/>
<path d="M0 0 C15.51 0 31.02 0 47 0 C47 0.33 47 0.66 47 1 C45.96552734 1.05607422 45.96552734 1.05607422 44.91015625 1.11328125 C38.51353535 1.56078148 32.96929752 2.65649801 27 5 C27 4.34 27 3.68 27 3 C25.700625 3.12375 24.40125 3.2475 23.0625 3.375 C22.33160156 3.44460937 21.60070312 3.51421875 20.84765625 3.5859375 C20.23792969 3.72257813 19.62820313 3.85921875 19 4 C18.67 4.66 18.34 5.32 18 6 C18.66 6 19.32 6 20 6 C19.6875 8.375 19.6875 8.375 19 11 C18.01 11.66 17.02 12.32 16 13 C14.77403961 9.32211882 15.15689923 8.21550387 16 4 C10.72 3.67 5.44 3.34 0 3 C0 2.01 0 1.02 0 0 Z " fill="#083180" transform="translate(389,189)"/>
<path d="M0 0 C5.28 0.33 10.56 0.66 16 1 C15.67 3.64 15.34 6.28 15 9 C13.35 8.67 11.7 8.34 10 8 C9.67 8.66 9.34 9.32 9 10 C6.03 9.67 3.06 9.34 0 9 C0 6.03 0 3.06 0 0 Z " fill="#3F598C" transform="translate(164,192)"/>
<path d="M0 0 C11.375 0 11.375 0 16 1 C15.01 2.485 15.01 2.485 14 4 C14 5.32 14 6.64 14 8 C13 9 13 9 9.5 9.125 C6 9 6 9 5 8 C4.67 8.66 4.34 9.32 4 10 C2.35 10 0.7 10 -1 10 C-0.34 7.69 0.32 5.38 1 3 C0.34 3 -0.32 3 -1 3 C-0.67 2.01 -0.34 1.02 0 0 Z " fill="#4F638D" transform="translate(408,192)"/>
<path d="M0 0 C5.94 0.99 5.94 0.99 12 2 C11.24872886 5.75635569 10.75994274 7.83210307 9 11 C8.4225 10.814375 7.845 10.62875 7.25 10.4375 C4.74397932 9.9502182 3.42630459 10.31760183 1 11 C-3 11 -3 11 -5 10 C-4.67 8.35 -4.34 6.7 -4 5 C-3.01 5 -2.02 5 -1 5 C-0.67 5.66 -0.34 6.32 0 7 C0.33 5.68 0.66 4.36 1 3 C-0.98 3 -2.96 3 -5 3 C-5 2.67 -5 2.34 -5 2 C-3.35 2 -1.7 2 0 2 C0 1.34 0 0.68 0 0 Z " fill="#365487" transform="translate(302,190)"/>
<path d="M0 0 C0.495 0.99 0.495 0.99 1 2 C3.11327425 2.90725434 3.11327425 2.90725434 5.5625 3.625 C6.38878906 3.88539062 7.21507812 4.14578125 8.06640625 4.4140625 C8.70449219 4.60742188 9.34257813 4.80078125 10 5 C10 5.33 10 5.66 10 6 C-6.83 6 -23.66 6 -41 6 C-40.67 5.34 -40.34 4.68 -40 4 C-26.8 4 -13.6 4 0 4 C0 2.68 0 1.36 0 0 Z " fill="#4263A4" transform="translate(96,108)"/>
<path d="M0 0 C4.34163015 -0.0247636 8.6832226 -0.04289015 13.02490234 -0.05493164 C14.50114661 -0.05995288 15.97738592 -0.06677116 17.45361328 -0.07543945 C19.57846298 -0.08760189 21.70324678 -0.09325046 23.828125 -0.09765625 C25.1059082 -0.10289307 26.38369141 -0.10812988 27.70019531 -0.11352539 C30.3620936 -0.02194632 32.48309582 0.19891486 35 1 C35 1.66 35 2.32 35 3 C33.68 3 32.36 3 31 3 C30.34 4.32 29.68 5.64 29 7 C28.67 5.02 28.34 3.04 28 1 C26.35 1.33 24.7 1.66 23 2 C23 2.33 23 2.66 23 3 C14.99236706 4.20869931 6.9547587 4.80594522 -1 3 C-0.67 2.01 -0.34 1.02 0 0 Z " fill="#053284" transform="translate(157,189)"/>
<path d="M0 0 C15.51 0 31.02 0 47 0 C47 1.32 47 2.64 47 4 C46.01 4 45.02 4 44 4 C44 3.34 44 2.68 44 2 C42.80922852 2.01047363 41.61845703 2.02094727 40.39160156 2.03173828 C35.97105926 2.06795556 31.55053007 2.09090682 27.12988281 2.10986328 C25.21709996 2.1199169 23.30433245 2.13356173 21.39160156 2.15087891 C18.64123748 2.17515522 15.89107672 2.1864895 13.140625 2.1953125 C12.28631897 2.20563507 11.43201294 2.21595764 10.55181885 2.22659302 C9.35102692 2.22681961 9.35102692 2.22681961 8.12597656 2.22705078 C7.07340668 2.23371262 7.07340668 2.23371262 5.99957275 2.24050903 C4 2 4 2 0 0 Z " fill="#4E6BA1" transform="translate(464,145)"/>
<path d="M0 0 C2.97 0 5.94 0 9 0 C9 3.3 9 6.6 9 10 C2.84765625 10.09765625 2.84765625 10.09765625 1 10 C0 9 0 9 -0.09765625 6.93359375 C-0.06510417 4.62239583 -0.03255208 2.31119792 0 0 Z " fill="#365899" transform="translate(158,62)"/>
<path d="M0 0 C6.15234375 -0.09765625 6.15234375 -0.09765625 8 0 C9 1 9 1 9.1328125 2.8125 C9.13023437 3.534375 9.12765625 4.25625 9.125 5 C9.12757813 5.721875 9.13015625 6.44375 9.1328125 7.1875 C9 9 9 9 8 10 C5.32941149 10.14115161 2.67567762 10.04247107 0 10 C0 6.7 0 3.4 0 0 Z " fill="#1E438C" transform="translate(257,62)"/>
<path d="M0 0 C2.05078125 0.03255208 4.1015625 0.06510417 6.15234375 0.09765625 C6.15234375 3.39765625 6.15234375 6.69765625 6.15234375 10.09765625 C0 10.1953125 0 10.1953125 -1.84765625 10.09765625 C-2.84765625 9.09765625 -2.84765625 9.09765625 -2.98046875 7.28515625 C-2.97789062 6.56328125 -2.9753125 5.84140625 -2.97265625 5.09765625 C-2.97523438 4.37578125 -2.9778125 3.65390625 -2.98046875 2.91015625 C-2.79798679 0.41981421 -2.49538581 0.13189143 0 0 Z " fill="#1F438D" transform="translate(248.84765625,61.90234375)"/>
<path d="M0 0 C6.15234375 -0.09765625 6.15234375 -0.09765625 8 0 C9 1 9 1 9.1328125 2.8125 C9.13023437 3.534375 9.12765625 4.25625 9.125 5 C9.12757813 5.721875 9.13015625 6.44375 9.1328125 7.1875 C9 9 9 9 8 10 C5.32941149 10.14115161 2.67567762 10.04247107 0 10 C0 6.7 0 3.4 0 0 Z " fill="#1E448C" transform="translate(169,62)"/>
<path d="M0 0 C2.97 0 5.94 0 9 0 C9 2.97 9 5.94 9 9 C6.03 9 3.06 9 0 9 C0 6.03 0 3.06 0 0 Z " fill="#062F82" transform="translate(158,51)"/>
<path d="M0 0 C2.97 0 5.94 0 9 0 C9 2.97 9 5.94 9 9 C2.84765625 9.09765625 2.84765625 9.09765625 1 9 C0 8 0 8 -0.09765625 6.15234375 C-0.06510417 4.1015625 -0.03255208 2.05078125 0 0 Z " fill="#143E88" transform="translate(346,63)"/>
<path d="M0 0 C2.97 0 5.94 0 9 0 C9 2.97 9 5.94 9 9 C2.84765625 9.09765625 2.84765625 9.09765625 1 9 C0 8 0 8 -0.09765625 6.15234375 C-0.06510417 4.1015625 -0.03255208 2.05078125 0 0 Z " fill="#1A408C" transform="translate(335,63)"/>
<path d="M0 0 C2.05078125 0.03255208 4.1015625 0.06510417 6.15234375 0.09765625 C6.15234375 3.06765625 6.15234375 6.03765625 6.15234375 9.09765625 C3.18234375 9.09765625 0.21234375 9.09765625 -2.84765625 9.09765625 C-2.9453125 2.9453125 -2.9453125 2.9453125 -2.84765625 1.09765625 C-1.84765625 0.09765625 -1.84765625 0.09765625 0 0 Z " fill="#123B88" transform="translate(348.84765625,50.90234375)"/>
<path d="M0 0 C2.05078125 0.03255208 4.1015625 0.06510417 6.15234375 0.09765625 C6.15234375 3.06765625 6.15234375 6.03765625 6.15234375 9.09765625 C3.18234375 9.09765625 0.21234375 9.09765625 -2.84765625 9.09765625 C-2.9453125 2.9453125 -2.9453125 2.9453125 -2.84765625 1.09765625 C-1.84765625 0.09765625 -1.84765625 0.09765625 0 0 Z " fill="#053081" transform="translate(337.84765625,50.90234375)"/>
<path d="M0 0 C6.15234375 -0.09765625 6.15234375 -0.09765625 8 0 C9 1 9 1 9.09765625 2.84765625 C9.04882812 5.92382812 9.04882812 5.92382812 9 9 C6.03 9 3.06 9 0 9 C0 6.03 0 3.06 0 0 Z " fill="#103A87" transform="translate(257,51)"/>
<path d="M0 0 C2.05078125 0.03255208 4.1015625 0.06510417 6.15234375 0.09765625 C6.15234375 3.06765625 6.15234375 6.03765625 6.15234375 9.09765625 C3.18234375 9.09765625 0.21234375 9.09765625 -2.84765625 9.09765625 C-2.9453125 2.9453125 -2.9453125 2.9453125 -2.84765625 1.09765625 C-1.84765625 0.09765625 -1.84765625 0.09765625 0 0 Z " fill="#103B88" transform="translate(248.84765625,50.90234375)"/>
<path d="M0 0 C6.15234375 -0.09765625 6.15234375 -0.09765625 8 0 C9 1 9 1 9.09765625 2.84765625 C9.04882812 5.92382812 9.04882812 5.92382812 9 9 C6.03 9 3.06 9 0 9 C0 6.03 0 3.06 0 0 Z " fill="#123B87" transform="translate(169,51)"/>
<path d="M0 0 C2.97 0 5.94 0 9 0 C10.30892449 4.402746 10.30892449 4.402746 9.0625 6.8125 C5.76781888 8.70943762 2.75761536 8.18480076 -1 8 C-0.67 5.36 -0.34 2.72 0 0 Z " fill="#EEF0F6" transform="translate(239,157)"/>
<path d="M0 0 C0.33 0 0.66 0 1 0 C2.1736381 8.05686696 1.67968453 15.04579145 0 23 C-0.99 23 -1.98 23 -3 23 C-3.37125 21.6078125 -3.37125 21.6078125 -3.75 20.1875 C-5.06454245 16.83541675 -5.97963384 15.8122197 -9 14 C-6.69 13.34 -4.38 12.68 -2 12 C-1.34 8.04 -0.68 4.08 0 0 Z " fill="#E2E7EF" transform="translate(444,151)"/>
<path d="M0 0 C0.7425 0.2475 1.485 0.495 2.25 0.75 C2.9375 3.0625 2.9375 3.0625 3.25 5.75 C2.1875 7.5625 2.1875 7.5625 0.25 8.75 C-2.9375 8.9375 -2.9375 8.9375 -5.75 8.75 C-6.5 6.5 -6.5 6.5 -6.75 3.75 C-4.64876805 0.67896869 -3.78845323 -0.34440484 0 0 Z " fill="#ABAFB2" transform="translate(95.75,192.25)"/>
<path d="M0 0 C2.64 0 5.28 0 8 0 C9.25541557 3.76624671 8.37061958 5.37188934 7 9 C7.99 8.67 8.98 8.34 10 8 C10 8.66 10 9.32 10 10 C8.68 10 7.36 10 6 10 C6 9.01 6 8.02 6 7 C5.01 7.66 4.02 8.32 3 9 C2.01 9 1.02 9 0 9 C0.33 7.02 0.66 5.04 1 3 C0.34 3 -0.32 3 -1 3 C-0.67 2.01 -0.34 1.02 0 0 Z " fill="#4D6294" transform="translate(202,192)"/>
<path d="M0 0 C0.7425 0.2475 1.485 0.495 2.25 0.75 C2.9375 2.5 2.9375 2.5 3.25 4.75 C2.1875 7 2.1875 7 0.25 8.75 C-2.9375 9 -2.9375 9 -5.75 8.75 C-6.5 6.5 -6.5 6.5 -6.75 3.75 C-4.64876805 0.67896869 -3.78845323 -0.34440484 0 0 Z " fill="#BEC0C4" transform="translate(139.75,192.25)"/>
<path d="M0 0 C0.99 0 1.98 0 3 0 C2.34 2.97 1.68 5.94 1 9 C-0.32 9 -1.64 9 -3 9 C-3.33 8.34 -3.66 7.68 -4 7 C-4.33 7.66 -4.66 8.32 -5 9 C-5.99 9 -6.98 9 -8 9 C-7.67 6.69 -7.34 4.38 -7 2 C-3.25 0.875 -3.25 0.875 -1 2 C-0.67 1.34 -0.34 0.68 0 0 Z " fill="#E0E5EC" transform="translate(232,192)"/>
<path d="M0 0 C0.928125 0.0825 1.85625 0.165 2.8125 0.25 C3.5 2 3.5 2 3.8125 4.25 C2.75 6.5 2.75 6.5 0.8125 8.25 C-2.375 8.5 -2.375 8.5 -5.1875 8.25 C-5.875 6.5 -5.875 6.5 -6.1875 4.25 C-4.57120184 0.82725095 -3.82796192 0.30023231 0 0 Z " fill="#AFBCD1" transform="translate(342.1875,192.75)"/>
<path d="M0 0 C1.32 0 2.64 0 4 0 C4 0.66 4 1.32 4 2 C4.99 1.34 5.98 0.68 7 0 C7.99 0 8.98 0 10 0 C9.34 2.64 8.68 5.28 8 8 C6.35 7.67 4.7 7.34 3 7 C3 6.34 3 5.68 3 5 C2.34 5 1.68 5 1 5 C1 5.99 1 6.98 1 8 C0.01 8 -0.98 8 -2 8 C-1.34 5.36 -0.68 2.72 0 0 Z " fill="#E0E8EC" transform="translate(101,193)"/>
<path d="M0 0 C0.33 0 0.66 0 1 0 C1 2.64 1 5.28 1 8 C4.3 8 7.6 8 11 8 C11 8.99 11 9.98 11 11 C7.7 11 4.4 11 1 11 C1 13.64 1 16.28 1 19 C0.67 19 0.34 19 0 19 C0 16.36 0 13.72 0 11 C-2.64 11 -5.28 11 -8 11 C-8 10.01 -8 9.02 -8 8 C-5.36 8 -2.72 8 0 8 C0 5.36 0 2.72 0 0 Z " fill="#A2B2CF" transform="translate(344,52)"/>
<path d="M0 0 C0 0.33 0 0.66 0 1 C-1.134375 1.12375 -2.26875 1.2475 -3.4375 1.375 C-5.2009375 1.684375 -5.2009375 1.684375 -7 2 C-7.33 2.66 -7.66 3.32 -8 4 C-7.34 4 -6.68 4 -6 4 C-6.3125 6.375 -6.3125 6.375 -7 9 C-7.99 9.66 -8.98 10.32 -10 11 C-11.22596039 7.32211882 -10.84310077 6.21550387 -10 2 C-15.28 1.67 -20.56 1.34 -26 1 C-26 0.67 -26 0.34 -26 0 C-17.11021981 -1.12886098 -8.87461279 -1.29085277 0 0 Z " fill="#0D2F71" transform="translate(415,191)"/>
<path d="M0 0 C3.3 0 6.6 0 10 0 C10 1.65 10 3.3 10 5 C9 6 9 6 6.71484375 6.09765625 C5.34005859 6.08025391 5.34005859 6.08025391 3.9375 6.0625 C3.01839844 6.05347656 2.09929687 6.04445312 1.15234375 6.03515625 C0.44207031 6.02355469 -0.26820313 6.01195312 -1 6 C-0.67 4.02 -0.34 2.04 0 0 Z " fill="#F3F5F8" transform="translate(415,169)"/>
<path d="M0 0 C1.23234375 -0.01417969 2.4646875 -0.02835937 3.734375 -0.04296875 C7.05999008 0.17504379 9.27475759 0.75098029 12.25 2.1875 C12.25 2.5175 12.25 2.8475 12.25 3.1875 C2.35 3.1875 -7.55 3.1875 -17.75 3.1875 C-17.75 2.8575 -17.75 2.5275 -17.75 2.1875 C-17.03972656 2.12691406 -16.32945312 2.06632812 -15.59765625 2.00390625 C-14.21900391 1.87822266 -14.21900391 1.87822266 -12.8125 1.75 C-11.89597656 1.66878906 -10.97945312 1.58757812 -10.03515625 1.50390625 C-6.43535772 1.00547261 -4.07351345 0.02112818 0 0 Z " fill="#1E4489" transform="translate(188.75,117.8125)"/>
<path d="M0 0 C1.32 0 2.64 0 4 0 C4 0.66 4 1.32 4 2 C4.66 2 5.32 2 6 2 C6 1.34 6 0.68 6 0 C6.99 0 7.98 0 9 0 C8.47731534 2.76276177 7.89130413 5.3260876 7 8 C5.68 7.67 4.36 7.34 3 7 C3 6.34 3 5.68 3 5 C2.34 5 1.68 5 1 5 C1 5.99 1 6.98 1 8 C0.01 8 -0.98 8 -2 8 C-1.34 5.36 -0.68 2.72 0 0 Z " fill="#E2E9EE" transform="translate(348,193)"/>
<path d="M0 0 C1.32 0 2.64 0 4 0 C4 0.66 4 1.32 4 2 C4.66 2 5.32 2 6 2 C6 1.34 6 0.68 6 0 C6.99 0.33 7.98 0.66 9 1 C8.34 3.31 7.68 5.62 7 8 C5.68 8 4.36 8 3 8 C2.67 7.34 2.34 6.68 2 6 C1.67 6.66 1.34 7.32 1 8 C0.01 8 -0.98 8 -2 8 C-1.34 5.36 -0.68 2.72 0 0 Z " fill="#E9EEF1" transform="translate(145,193)"/>
<path d="M0 0 C2.64 0 5.28 0 8 0 C7.47731534 2.76276177 6.89130413 5.3260876 6 8 C5.01 8 4.02 8 3 8 C3 7.34 3 6.68 3 6 C2.34 6 1.68 6 1 6 C1 6.66 1 7.32 1 8 C0.01 8 -0.98 8 -2 8 C-1.34 5.36 -0.68 2.72 0 0 Z " fill="#E2E5E7" transform="translate(398,193)"/>
<path d="M0 0 C2.64 0 5.28 0 8 0 C7.47731534 2.76276177 6.89130413 5.3260876 6 8 C5.401875 7.814375 4.80375 7.62875 4.1875 7.4375 C1.83591238 6.77906313 1.83591238 6.77906313 -1 8 C-0.67 5.36 -0.34 2.72 0 0 Z " fill="#DBDEE1" transform="translate(259,193)"/>
<path d="M0 0 C2.31 0 4.62 0 7 0 C6.47731534 2.76276177 5.89130413 5.3260876 5 8 C4.4225 7.814375 3.845 7.62875 3.25 7.4375 C0.69606643 6.7761831 0.69606643 6.7761831 -3 8 C-2.01 5.36 -1.02 2.72 0 0 Z " fill="#E0E5E9" transform="translate(306,193)"/>
<path d="M0 0 C2.31 0 4.62 0 7 0 C6.67 2.64 6.34 5.28 6 8 C5.236875 7.814375 4.47375 7.62875 3.6875 7.4375 C0.91032625 6.77180827 0.91032625 6.77180827 -2 8 C-1.125 2.25 -1.125 2.25 0 0 Z " fill="#F1F3F6" transform="translate(173,193)"/>
<path d="M0 0 C0.99 0 1.98 0 3 0 C4.125 5.625 4.125 5.625 3 9 C0.36 9 -2.28 9 -5 9 C-4.42636089 5.12793601 -2.65894107 2.81534937 0 0 Z " fill="#E1E4E6" transform="translate(246,192)"/>
<path d="M0 0 C0 0.66 0 1.32 0 2 C-1.65 2.33 -3.3 2.66 -5 3 C-5.33 3.99 -5.66 4.98 -6 6 C-4.68 5.67 -3.36 5.34 -2 5 C-2.33 5.99 -2.66 6.98 -3 8 C-5.375 8.625 -5.375 8.625 -8 9 C-8.66 8.34 -9.32 7.68 -10 7 C-9.9375 4.5625 -9.9375 4.5625 -9 2 C-5.81738059 -0.58050222 -3.89040693 -1.5849806 0 0 Z " fill="#D7DFE9" transform="translate(133,193)"/>
<path d="M0 0 C0.99 0 1.98 0 3 0 C3 0.99 3 1.98 3 3 C3.99 3 4.98 3 6 3 C6 2.01 6 1.02 6 0 C6.99 0 7.98 0 9 0 C8.34 2.64 7.68 5.28 7 8 C6.01 8 5.02 8 4 8 C4 7.01 4 6.02 4 5 C3.01 5.99 2.02 6.98 1 8 C0.01 7.67 -0.98 7.34 -2 7 C-1.34 4.69 -0.68 2.38 0 0 Z " fill="#EBF0F4" transform="translate(80,193)"/>
<path d="M0 0 C2.64 0 5.28 0 8 0 C7.125 4.875 7.125 4.875 6 6 C4.33382885 6.04063832 2.66611905 6.042721 1 6 C1 6.66 1 7.32 1 8 C0.01 7.67 -0.98 7.34 -2 7 C-1.34 4.69 -0.68 2.38 0 0 Z " fill="#C8D0D8" transform="translate(380,193)"/>
<path d="M0 0 C2.625 -0.1875 2.625 -0.1875 5 0 C5 2.66666667 5 5.33333333 5 8 C2.29120665 9.35439668 -0.00933268 9.06501451 -3 9 C-3 8.34 -3 7.68 -3 7 C-2.34 6.67 -1.68 6.34 -1 6 C-1.33 5.01 -1.66 4.02 -2 3 C-1.34 2.01 -0.68 1.02 0 0 Z " fill="#E0E3E7" transform="translate(279,192)"/>
<path d="M0 0 C2.6875 0.3125 2.6875 0.3125 5 1 C4.01 2.485 4.01 2.485 3 4 C3 5.32 3 6.64 3 8 C2 9 2 9 -1.5625 9.0625 C-2.696875 9.041875 -3.83125 9.02125 -5 9 C-5 8.34 -5 7.68 -5 7 C-4.01 6.67 -3.02 6.34 -2 6 C-2.33 5.01 -2.66 4.02 -3 3 C-1.8125 1.4375 -1.8125 1.4375 0 0 Z " fill="#E2E7EC" transform="translate(419,192)"/>
<path d="M0 0 C3.3 0 6.6 0 10 0 C9.67 1.65 9.34 3.3 9 5 C5.7 5 2.4 5 -1 5 C-0.67 3.35 -0.34 1.7 0 0 Z " fill="#F8F9FB" transform="translate(418,157)"/>
<path d="M0 0 C2.64 0 5.28 0 8 0 C7.505 0.94875 7.01 1.8975 6.5 2.875 C4.85575631 5.72278166 4.85575631 5.72278166 5 8 C2.69 8 0.38 8 -2 8 C-1.47731534 5.23723823 -0.89130413 2.6739124 0 0 Z " fill="#EDEFEF" transform="translate(269,193)"/>
<path d="M0 0 C0.99 0 1.98 0 3 0 C2.67 1.98 2.34 3.96 2 6 C4.7839183 4.60804085 4.97898997 2.84424221 6 0 C6.99 0.33 7.98 0.66 9 1 C8.01 3.31 7.02 5.62 6 8 C3.69 8 1.38 8 -1 8 C-0.67 5.36 -0.34 2.72 0 0 Z " fill="#F1F2F8" transform="translate(182,193)"/>
<path d="M0 0 C0.763125 0.20625 1.52625 0.4125 2.3125 0.625 C1.9825 1.615 1.6525 2.605 1.3125 3.625 C-0.0075 3.625 -1.3275 3.625 -2.6875 3.625 C-3.0175 4.615 -3.3475 5.605 -3.6875 6.625 C-2.3675 6.295 -1.0475 5.965 0.3125 5.625 C0.3125 6.615 0.3125 7.605 0.3125 8.625 C-1.9975 8.625 -4.3075 8.625 -6.6875 8.625 C-6.375 5.25 -6.375 5.25 -5.6875 1.625 C-2.6875 -0.375 -2.6875 -0.375 0 0 Z " fill="#DCE4EC" transform="translate(197.6875,192.375)"/>
<path d="M0 0 C2.64 0 5.28 0 8 0 C8 0.66 8 1.32 8 2 C7.01 2.495 7.01 2.495 6 3 C6 4.65 6 6.3 6 8 C3.69 8 1.38 8 -1 8 C-0.67 5.36 -0.34 2.72 0 0 Z " fill="#F0F0F2" transform="translate(389,193)"/>
<path d="M0 0 C1.134375 0.020625 2.26875 0.04125 3.4375 0.0625 C2.7775 2.7025 2.1175 5.3425 1.4375 8.0625 C-0.8725 8.0625 -3.1825 8.0625 -5.5625 8.0625 C-4.54651535 0.07976343 -4.54651535 0.07976343 0 0 Z " fill="#EBEFF0" transform="translate(116.5625,192.9375)"/>
<path d="M0 0 C0.33 0 0.66 0 1 0 C1 3.96 1 7.92 1 12 C-1.31 12 -3.62 12 -6 12 C-4.43358249 7.69235185 -2.31663844 3.93828536 0 0 Z " fill="#F8F9FB" transform="translate(101,157)"/>
<path d="M0 0 C2.625 0.375 2.625 0.375 5 1 C5 1.66 5 2.32 5 3 C4.01 3.495 4.01 3.495 3 4 C3.2784375 4.9590625 3.2784375 4.9590625 3.5625 5.9375 C3.706875 6.618125 3.85125 7.29875 4 8 C3 9 3 9 -0.5625 9.0625 C-1.696875 9.041875 -2.83125 9.02125 -4 9 C-4 8.34 -4 7.68 -4 7 C-3.01 6.67 -2.02 6.34 -1 6 C-1.309375 5.071875 -1.309375 5.071875 -1.625 4.125 C-1.810625 3.073125 -1.810625 3.073125 -2 2 C-1.34 1.34 -0.68 0.68 0 0 Z " fill="#E5E8EC" transform="translate(157,192)"/>
<path d="M0 0 C1.98 0 3.96 0 6 0 C6.66 2.64 7.32 5.28 8 8 C7.01 8.33 6.02 8.66 5 9 C5.33 7.02 5.66 5.04 6 3 C5.01 3 4.02 3 3 3 C2.67 5.64 2.34 8.28 2 11 C0.57055055 8.64561267 -0.08661261 7.51967567 0.375 4.75 C0.58125 4.1725 0.7875 3.595 1 3 C-1.31 3 -3.62 3 -6 3 C-6 2.67 -6 2.34 -6 2 C-4.02 1.67 -2.04 1.34 0 1 C0 0.67 0 0.34 0 0 Z " fill="#3B5588" transform="translate(179,190)"/>
<path d="M0 0 C2.31 0 4.62 0 7 0 C6.34 2.64 5.68 5.28 5 8 C2.69 8 0.38 8 -2 8 C-1.34 5.36 -0.68 2.72 0 0 Z " fill="#DCE8EE" transform="translate(362,193)"/>
<path d="M0 0 C0.33 2.64 0.66 5.28 1 8 C-1.97 8 -4.94 8 -8 8 C-5.18918919 0 -5.18918919 0 0 0 Z " fill="#E8EDEF" transform="translate(321,193)"/>
<path d="M0 0 C2.64 0 5.28 0 8 0 C7.01 1.485 7.01 1.485 6 3 C5.83286431 5.62531524 5.83286431 5.62531524 6 8 C3.36 8 0.72 8 -2 8 C-1.67 7.236875 -1.34 6.47375 -1 5.6875 C0.17436686 3.00930865 0.17436686 3.00930865 0 0 Z " fill="#E5E9F0" transform="translate(371,193)"/>
<path d="M0 0 C7.26 0 14.52 0 22 0 C22.33 0.66 22.66 1.32 23 2 C14.99236706 3.20869931 6.9547587 3.80594522 -1 2 C-0.67 1.34 -0.34 0.68 0 0 Z " fill="#0A2B71" transform="translate(157,190)"/>
<path d="M0 0 C6.6 0 13.2 0 20 0 C20 0.33 20 0.66 20 1 C19.15695313 1.03738281 18.31390625 1.07476562 17.4453125 1.11328125 C15.80175781 1.21189453 15.80175781 1.21189453 14.125 1.3125 C13.03445312 1.37050781 11.94390625 1.42851562 10.8203125 1.48828125 C9.42425781 1.74158203 9.42425781 1.74158203 8 2 C7.01 3.485 7.01 3.485 6 5 C5.34 5 4.68 5 4 5 C3.67 6.98 3.34 8.96 3 11 C2.34 10.67 1.68 10.34 1 10 C1.309375 8.824375 1.309375 8.824375 1.625 7.625 C1.74875 6.75875 1.8725 5.8925 2 5 C1.34 4.34 0.68 3.68 0 3 C1.32 3 2.64 3 4 3 C4 2.34 4 1.68 4 1 C2.68 0.67 1.36 0.34 0 0 Z " fill="#234688" transform="translate(188,189)"/>
<path d="M0 0 C2.31 0.66 4.62 1.32 7 2 C7.33 1.34 7.66 0.68 8 0 C9.98 0.66 11.96 1.32 14 2 C13.67 2.66 13.34 3.32 13 4 C12.01 3.67 11.02 3.34 10 3 C10 3.66 10 4.32 10 5 C9.34 5 8.68 5 8 5 C8 4.34 8 3.68 8 3 C6.68 3 5.36 3 4 3 C3.34 5.64 2.68 8.28 2 11 C1.34 10.34 0.68 9.68 0 9 C0.375 6.375 0.375 6.375 1 4 C-0.65 3.67 -2.3 3.34 -4 3 C-2.68 2.67 -1.36 2.34 0 2 C0 1.34 0 0.68 0 0 Z " fill="#25427F" transform="translate(344,190)"/>
<path d="M0 0 C1.093125 0.0825 2.18625 0.165 3.3125 0.25 C3.3125 1.9 3.3125 3.55 3.3125 5.25 C2.6525 4.92 1.9925 4.59 1.3125 4.25 C1.3125 3.59 1.3125 2.93 1.3125 2.25 C0.3225 2.58 -0.6675 2.91 -1.6875 3.25 C-2.42073796 5.26508358 -2.42073796 5.26508358 -2.6875 7.25 C-2.0275 7.58 -1.3675 7.91 -0.6875 8.25 C-2.3375 8.25 -3.9875 8.25 -5.6875 8.25 C-6.375 6.5 -6.375 6.5 -6.6875 4.25 C-5.02756724 0.51515129 -4.13582103 0.28039465 0 0 Z " fill="#DCE2E9" transform="translate(299.6875,192.75)"/>
<path d="M0 0 C0.33 0 0.66 0 1 0 C1 3.63 1 7.26 1 11 C-1.31 11 -3.62 11 -6 11 C-5.18993474 9.35296694 -4.3768779 7.70740494 -3.5625 6.0625 C-3.11003906 5.14597656 -2.65757812 4.22945312 -2.19140625 3.28515625 C-1 1 -1 1 0 0 Z " fill="#F6F7F9" transform="translate(377,158)"/>
<path d="M0 0 C1.98 0 3.96 0 6 0 C6 2.31 6 4.62 6 7 C4.02 7 2.04 7 0 7 C0 4.69 0 2.38 0 0 Z " fill="#062F80" transform="translate(160,64)"/>
<path d="M0 0 C6.93 0 13.86 0 21 0 C21 0.66 21 1.32 21 2 C18.69 2.66 16.38 3.32 14 4 C14 3.01 14 2.02 14 1 C13.34 1.165 12.68 1.33 12 1.5 C8.26900206 2.12183299 4.78126622 2.06408926 1 2 C0.67 1.34 0.34 0.68 0 0 Z " fill="#072B78" transform="translate(323,190)"/>
<path d="M0 0 C0.78552246 0.01047363 1.57104492 0.02094727 2.38037109 0.03173828 C3.23115234 0.03818359 4.08193359 0.04462891 4.95849609 0.05126953 C6.29267578 0.07640625 6.29267578 0.07640625 7.65380859 0.10205078 C8.99958984 0.11558594 8.99958984 0.11558594 10.37255859 0.12939453 C12.59157445 0.15300108 14.81005937 0.18592768 17.02880859 0.22705078 C17.02880859 0.88705078 17.02880859 1.54705078 17.02880859 2.22705078 C12.53713031 3.42305979 8.29611066 3.14562118 3.71630859 2.78955078 C2.60545898 2.71124023 2.60545898 2.71124023 1.47216797 2.63134766 C-0.3427185 2.50254926 -2.15702466 2.36561816 -3.97119141 2.22705078 C-1.97119141 0.22705078 -1.97119141 0.22705078 0 0 Z " fill="#092B75" transform="translate(197.97119140625,189.77294921875)"/>
<path d="M0 0 C1 3 1 3 0 6 C5.94 6.99 5.94 6.99 12 8 C12 8.33 12 8.66 12 9 C6.72 9 1.44 9 -4 9 C-2 3 -2 3 0 0 Z " fill="#264891" transform="translate(351,175)"/>
<path d="M0 0 C1.65 0.33 3.3 0.66 5 1 C4.25 5.75 4.25 5.75 2 8 C-1.625 8.125 -1.625 8.125 -5 8 C-5 6.35 -5 4.7 -5 3 C-4.34 3 -3.68 3 -3 3 C-3 3.99 -3 4.98 -3 6 C-1.68 5.67 -0.36 5.34 1 5 C0.67 3.35 0.34 1.7 0 0 Z " fill="#E9EEF2" transform="translate(219,193)"/>
<path d="M0 0 C0.33 0.66 0.66 1.32 1 2 C5.62 2 10.24 2 15 2 C15 1.34 15 0.68 15 0 C15.66 0.33 16.32 0.66 17 1 C16.01 2.485 16.01 2.485 15 4 C12.04935852 4.2208564 9.31631769 4.28060989 6.375 4.1875 C5.57320313 4.17396484 4.77140625 4.16042969 3.9453125 4.14648438 C1.96325622 4.11109051 -0.01845551 4.05728234 -2 4 C-1.34 2.68 -0.68 1.36 0 0 Z " fill="#284993" transform="translate(72,180)"/>
<path d="M0 0 C3.63 0 7.26 0 11 0 C11 0.99 11 1.98 11 3 C5.39 3 -0.22 3 -6 3 C-6 2.67 -6 2.34 -6 2 C-4.02 1.67 -2.04 1.34 0 1 C0 0.67 0 0.34 0 0 Z " fill="#F2F4F6" transform="translate(131,170)"/>
<path d="M0 0 C3.63 0 7.26 0 11 0 C11 0.33 11 0.66 11 1 C8.69 1 6.38 1 4 1 C3.32326553 4.40320934 3.32326553 4.40320934 3 8 C3.66 8.66 4.32 9.32 5 10 C2.36 10 -0.28 10 -3 10 C-1.68 9.67 -0.36 9.34 1 9 C0.690625 7.824375 0.690625 7.824375 0.375 6.625 C0.25125 5.75875 0.1275 4.8925 0 4 C0.66 3.34 1.32 2.68 2 2 C1.34 1.34 0.68 0.68 0 0 Z " fill="#3B5485" transform="translate(376,192)"/>
<path d="M0 0 C3.3 0 6.6 0 10 0 C11.60031344 3.20062687 10.03173691 5.72271806 9 9 C11.31 9 13.62 9 16 9 C16 9.33 16 9.66 16 10 C13.36 10 10.72 10 8 10 C6.9673198 7.21176345 6.95490707 6.1322726 7.9375 3.25 C8.288125 2.5075 8.63875 1.765 9 1 C7.02 1.66 5.04 2.32 3 3 C3 2.34 3 1.68 3 1 C2.01 0.67 1.02 0.34 0 0 Z " fill="#536A93" transform="translate(102,192)"/>
<path d="M0 0 C3.63 0 7.26 0 11 0 C11 0.66 11 1.32 11 2 C10.34 2 9.68 2 9 2 C9 3.65 9 5.3 9 7 C6.69 6.67 4.38 6.34 2 6 C2 5.67 2 5.34 2 5 C3.65 5 5.3 5 7 5 C7 4.34 7 3.68 7 3 C4.69 3 2.38 3 0 3 C0 2.01 0 1.02 0 0 Z " fill="#2F4C81" transform="translate(113,190)"/>
<path d="M0 0 C4.95 0 9.9 0 15 0 C15 0.33 15 0.66 15 1 C12.69 1 10.38 1 8 1 C7.87625 1.94875 7.7525 2.8975 7.625 3.875 C7 7 7 7 5 9 C5 8.34 5 7.68 5 7 C3.68 6.67 2.36 6.34 1 6 C2.32 6 3.64 6 5 6 C5 5.34 5 4.68 5 4 C4.01 3.67 3.02 3.34 2 3 C3.65 3 5.3 3 7 3 C7 2.34 7 1.68 7 1 C4.69 1 2.38 1 0 1 C0 0.67 0 0.34 0 0 Z " fill="#6B7687" transform="translate(390,192)"/>
<path d="M0 0 C2.64 0 5.28 0 8 0 C8 0.66 8 1.32 8 2 C7.01 2 6.02 2 5 2 C4.67 3.98 4.34 5.96 4 8 C3.01 8 2.02 8 1 8 C1.33 6.02 1.66 4.04 2 2 C1.34 2 0.68 2 0 2 C0 1.34 0 0.68 0 0 Z " fill="#E2EAEF" transform="translate(286,193)"/>
<path d="M0 0 C2.97 0 5.94 0 9 0 C9 2.97 9 5.94 9 9 C8.67 9 8.34 9 8 9 C8 6.69 8 4.38 8 2 C6.02 2.66 4.04 3.32 2 4 C1.67 5.65 1.34 7.3 1 9 C0.67 9 0.34 9 0 9 C0 6.03 0 3.06 0 0 Z " fill="#234A91" transform="translate(158,51)"/>
<path d="M0 0 C2.64 0 5.28 0 8 0 C8 0.66 8 1.32 8 2 C7.01 2 6.02 2 5 2 C4.67 3.98 4.34 5.96 4 8 C3.01 8 2.02 8 1 8 C1.33 6.02 1.66 4.04 2 2 C1.34 2 0.68 2 0 2 C0 1.34 0 0.68 0 0 Z " fill="#E6ECF1" transform="translate(201,193)"/>
<path d="M0 0 C-0.99 1.485 -0.99 1.485 -2 3 C-2.57605248 4.38199747 -3.11703521 5.77905218 -3.625 7.1875 C-3.88539062 7.90292969 -4.14578125 8.61835938 -4.4140625 9.35546875 C-4.60742188 9.89816406 -4.80078125 10.44085938 -5 11 C-4.01 11.33 -3.02 11.66 -2 12 C-4.97 11.505 -4.97 11.505 -8 11 C-7.34 10.01 -6.68 9.02 -6 8 C-6.31730524 4.36060068 -6.31730524 4.36060068 -7 1 C-4.53721199 -0.231394 -2.7204945 -0.07159196 0 0 Z " fill="#274681" transform="translate(104,190)"/>
<path d="M0 0 C2.64 0 5.28 0 8 0 C8 0.66 8 1.32 8 2 C7.01 2 6.02 2 5 2 C4.67 3.98 4.34 5.96 4 8 C3.01 8 2.02 8 1 8 C1.33 6.02 1.66 4.04 2 2 C1.34 2 0.68 2 0 2 C0 1.34 0 0.68 0 0 Z " fill="#E7EEF1" transform="translate(407,193)"/>
<path d="M0 0 C3.96 0 7.92 0 12 0 C12 0.66 12 1.32 12 2 C11.01 2 10.02 2 9 2 C8.34 3.32 7.68 4.64 7 6 C6.34 5.01 5.68 4.02 5 3 C2.43717258 2.27034634 2.43717258 2.27034634 0 2 C0 1.34 0 0.68 0 0 Z " fill="#0D2E77" transform="translate(217,190)"/>
<path d="M0 0 C0 4.0521288 -1.50488362 5.09105379 -4.1875 8.0625 C-4.96480469 8.94035156 -5.74210937 9.81820312 -6.54296875 10.72265625 C-8.99164656 12.99225746 -10.84446143 14.00793903 -14 15 C-9.59156563 9.70987876 -4.92440206 4.81191572 0 0 Z " fill="#1F408C" transform="translate(282,60)"/>
<path d="M0 0 C1.65 0.33 3.3 0.66 5 1 C4.25 5.75 4.25 5.75 2 8 C-1.125 8.125 -1.125 8.125 -4 8 C-4 7.34 -4 6.68 -4 6 C-2.35 5.67 -0.7 5.34 1 5 C1.33 3.68 1.66 2.36 2 1 C1.34 0.67 0.68 0.34 0 0 Z " fill="#F3F7F8" transform="translate(94,193)"/>
<path d="M0 0 C2.64 0 5.28 0 8 0 C7.54625 0.391875 7.0925 0.78375 6.625 1.1875 C4.72357081 3.30832487 3.93795972 5.33042235 3 8 C2.01 7.67 1.02 7.34 0 7 C0.2784375 6.1028125 0.2784375 6.1028125 0.5625 5.1875 C1.22093687 2.83591238 1.22093687 2.83591238 0 0 Z " fill="#E4EBF1" transform="translate(324,193)"/>
<path d="M0 0 C0.99 0.33 1.98 0.66 3 1 C2.67 1.66 2.34 2.32 2 3 C2.66 3 3.32 3 4 3 C3.67 3.99 3.34 4.98 3 6 C-2.75 7 -2.75 7 -5 7 C-4.67 5.68 -4.34 4.36 -4 3 C-2.68 3 -1.36 3 0 3 C0 2.01 0 1.02 0 0 Z " fill="#1D3A77" transform="translate(199,192)"/>
<path d="M0 0 C2.31 0 4.62 0 7 0 C7 0.66 7 1.32 7 2 C6.01 2 5.02 2 4 2 C3.67 3.98 3.34 5.96 3 8 C2.01 8 1.02 8 0 8 C0 5.36 0 2.72 0 0 Z " fill="#ECF1F4" transform="translate(164,193)"/>
<path d="M0 0 C1.32 0 2.64 0 4 0 C4 0.66 4 1.32 4 2 C4.99 2.33 5.98 2.66 7 3 C6.01 3 5.02 3 4 3 C3.34 5.64 2.68 8.28 2 11 C2.66 11.33 3.32 11.66 4 12 C3.01 12 2.02 12 1 12 C0 9 0 9 0.5 6.5625 C1.01333512 3.93165749 0.83558658 2.50675973 0 0 Z " fill="#334E86" transform="translate(141,190)"/>
<path d="M0 0 C0.75988352 2.36408207 1.0820237 3.69013267 0.4375 6.125 C0.293125 6.74375 0.14875 7.3625 0 8 C0.66 8.66 1.32 9.32 2 10 C0.35 10 -1.3 10 -3 10 C-3.33 10.66 -3.66 11.32 -4 12 C-3.79375 10.88625 -3.5875 9.7725 -3.375 8.625 C-3.25125 7.42875 -3.1275 6.2325 -3 5 C-3.66 4.34 -4.32 3.68 -5 3 C-4.01 3 -3.02 3 -2 3 C-2 2.34 -2 1.68 -2 1 C-1.34 0.67 -0.68 0.34 0 0 Z " fill="#4B5B7E" transform="translate(156,189)"/>
<path d="M0 0 C0 0.33 0 0.66 0 1 C-4.455 1.495 -4.455 1.495 -9 2 C-9.33 3.65 -9.66 5.3 -10 7 C-10.33 7 -10.66 7 -11 7 C-11 5.02 -11 3.04 -11 1 C-12.65 1.66 -14.3 2.32 -16 3 C-16 2.01 -16 1.02 -16 0 C-10.27304317 -2.71276903 -5.87042768 -1.50821265 0 0 Z " fill="#3F578E" transform="translate(332,192)"/>
<path d="M0 0 C3.3 0 6.6 0 10 0 C10 5.88461538 10 5.88461538 7 9 C6.34 9 5.68 9 5 9 C5.309375 8.4225 5.61875 7.845 5.9375 7.25 C6.92583364 5.15705816 7.5168613 3.25464725 8 1 C5.36 1 2.72 1 0 1 C0 0.67 0 0.34 0 0 Z " fill="#092972" transform="translate(306,191)"/>
<path d="M0 0 C0 0.66 0 1.32 0 2 C0.66 2.66 1.32 3.32 2 4 C0.68 4 -0.64 4 -2 4 C-2 4.66 -2 5.32 -2 6 C-2.66 6 -3.32 6 -4 6 C-4 5.34 -4 4.68 -4 4 C-4.99 3.67 -5.98 3.34 -7 3 C-5.68 3 -4.36 3 -3 3 C-3 2.34 -3 1.68 -3 1 C-4.32 0.67 -5.64 0.34 -7 0 C-2.25 -1.125 -2.25 -1.125 0 0 Z " fill="#6F6F70" transform="translate(278,195)"/>
<path d="M0 0 C0.33 0.66 0.66 1.32 1 2 C1.66 2 2.32 2 3 2 C2.67 3.98 2.34 5.96 2 8 C2.66 8.33 3.32 8.66 4 9 C3.01 9 2.02 9 1 9 C1 8.01 1 7.02 1 6 C0.34 6 -0.32 6 -1 6 C-2.625 4 -2.625 4 -4 2 C-2.68 1.34 -1.36 0.68 0 0 Z " fill="#3C5485" transform="translate(285,193)"/>
<path d="M0 0 C0 0.66 0 1.32 0 2 C-2.31 2.66 -4.62 3.32 -7 4 C-7 3.34 -7 2.68 -7 2 C-9.31 2 -11.62 2 -14 2 C-14 1.67 -14 1.34 -14 1 C-9.23692563 0.04738513 -4.8333472 -0.08333357 0 0 Z " fill="#062772" transform="translate(302,190)"/>
<path d="M0 0 C2.97 0 5.94 0 9 0 C9 0.66 9 1.32 9 2 C8.01 2 7.02 2 6 2 C6 2.99 6 3.98 6 5 C5.34 5 4.68 5 4 5 C3.67 4.34 3.34 3.68 3 3 C2.01 2.67 1.02 2.34 0 2 C0 1.34 0 0.68 0 0 Z " fill="#0D3076" transform="translate(145,190)"/>
<path d="M0 0 C0.99 0 1.98 0 3 0 C3.33 1.65 3.66 3.3 4 5 C3.01 5.33 2.02 5.66 1 6 C0.34 5.67 -0.32 5.34 -1 5 C-0.67 3.35 -0.34 1.7 0 0 Z " fill="#7586A9" transform="translate(298,195)"/>
<path d="M0 0 C-0.33 0.66 -0.66 1.32 -1 2 C-2.175625 1.9690625 -2.175625 1.9690625 -3.375 1.9375 C-5.98114961 1.81315937 -5.98114961 1.81315937 -8 3 C-8 2.34 -8 1.68 -8 1 C-10.64 1 -13.28 1 -16 1 C-16 0.67 -16 0.34 -16 0 C-10.31302429 -0.91397824 -5.68697571 -0.91397824 0 0 Z " fill="#0A276D" transform="translate(285,191)"/>
<path d="M0 0 C2.05078125 0.03255208 4.1015625 0.06510417 6.15234375 0.09765625 C5.82234375 0.75765625 5.49234375 1.41765625 5.15234375 2.09765625 C2.08984375 2.72265625 2.08984375 2.72265625 -0.84765625 3.09765625 C-1.17765625 5.07765625 -1.50765625 7.05765625 -1.84765625 9.09765625 C-2.17765625 9.09765625 -2.50765625 9.09765625 -2.84765625 9.09765625 C-2.9453125 2.9453125 -2.9453125 2.9453125 -2.84765625 1.09765625 C-1.84765625 0.09765625 -1.84765625 0.09765625 0 0 Z " fill="#3E5EA0" transform="translate(337.84765625,50.90234375)"/>
<path d="M0 0 C1.65 0 3.3 0 5 0 C3.95125002 2.62187494 3.35068687 3.79371361 0.875 5.25 C0.25625 5.4975 -0.3625 5.745 -1 6 C-0.67 4.02 -0.34 2.04 0 0 Z " fill="#D3D3DA" transform="translate(172,195)"/>
<path d="M0 0 C2.31 0 4.62 0 7 0 C6.67 1.65 6.34 3.3 6 5 C4.68 4.67 3.36 4.34 2 4 C2.66 4 3.32 4 4 4 C4 3.34 4 2.68 4 2 C2.68 2 1.36 2 0 2 C0 1.34 0 0.68 0 0 Z " fill="#EEF0F2" transform="translate(381,193)"/>
<path d="M0 0 C1.98 0 3.96 0 6 0 C4.35 1.98 2.7 3.96 1 6 C0.34 5.01 -0.32 4.02 -1 3 C-0.67 2.01 -0.34 1.02 0 0 Z " fill="#14368B" transform="translate(449,117)"/>
<path d="M0 0 C0 3.74016583 -0.9341591 4.45276193 -3.375 7.1875 C-4.00148437 7.90292969 -4.62796875 8.61835937 -5.2734375 9.35546875 C-7 11 -7 11 -9 11 C-7.59155282 7.78475695 -5.89655214 5.67816132 -3.375 3.25 C-2.74335938 2.63640625 -2.11171875 2.0228125 -1.4609375 1.390625 C-0.73777344 0.70226563 -0.73777344 0.70226563 0 0 Z " fill="#10348A" transform="translate(192,63)"/>
<path d="M0 0 C0.99 0 1.98 0 3 0 C2.34 2.64 1.68 5.28 1 8 C0.01 7.67 -0.98 7.34 -2 7 C-1.34 4.69 -0.68 2.38 0 0 Z " fill="#F8FAFA" transform="translate(108,193)"/>
<path d="M0 0 C2 2 2 2 2.375 4.3125 C1.8869194 7.81041099 0.34685877 9.43312323 -2 12 C-1 3.42857143 -1 3.42857143 0 0 Z " fill="#355299" transform="translate(13,149)"/>
<path d="M0 0 C0.99 0.33 1.98 0.66 3 1 C1.515 4.465 1.515 4.465 0 8 C-0.66 7.67 -1.32 7.34 -2 7 C-1.34 4.69 -0.68 2.38 0 0 Z " fill="#E0E8EF" transform="translate(188,193)"/>
<path d="M0 0 C1.65 0 3.3 0 5 0 C5 1.32 5 2.64 5 4 C2.69 4 0.38 4 -2 4 C-1.34 2.68 -0.68 1.36 0 0 Z " fill="#EAF0F3" transform="translate(362,197)"/>
<path d="M0 0 C0.99 0.33 1.98 0.66 3 1 C2.34 3.31 1.68 5.62 1 8 C0.01 8 -0.98 8 -2 8 C-1.47731534 5.23723823 -0.89130413 2.6739124 0 0 Z " fill="#E2EBF1" transform="translate(333,193)"/>
<path d="M0 0 C2.31 0 4.62 0 7 0 C6.67 1.65 6.34 3.3 6 5 C5.34 4.67 4.68 4.34 4 4 C4 3.34 4 2.68 4 2 C2.68 2 1.36 2 0 2 C0 1.34 0 0.68 0 0 Z " fill="#F4F5F7" transform="translate(260,193)"/>
<path d="M0 0 C0.99 0.33 1.98 0.66 3 1 C1.515 4.465 1.515 4.465 0 8 C-0.66 8 -1.32 8 -2 8 C-1.125 2.25 -1.125 2.25 0 0 Z " fill="#E8EFF4" transform="translate(211,193)"/>
<path d="M0 0 C4.95 0 9.9 0 15 0 C15 0.99 15 1.98 15 3 C14.01 3 13.02 3 12 3 C12 2.34 12 1.68 12 1 C8.04 1 4.08 1 0 1 C0 0.67 0 0.34 0 0 Z " fill="#153A89" transform="translate(496,146)"/>
<path d="M0 0 C2.64 0 5.28 0 8 0 C8 0.66 8 1.32 8 2 C5.36 2.66 2.72 3.32 0 4 C0 2.68 0 1.36 0 0 Z " fill="#E7E6ED" transform="translate(389,193)"/>
<path d="M0 0 C2.31 0 4.62 0 7 0 C7 0.66 7 1.32 7 2 C5.68 2 4.36 2 3 2 C2.34 3.32 1.68 4.64 1 6 C0.67 4.02 0.34 2.04 0 0 Z " fill="#072C73" transform="translate(185,190)"/>
<path d="M0 0 C0.33 0 0.66 0 1 0 C1 3.63 1 7.26 1 11 C0.67 11 0.34 11 0 11 C-0.33 9.35 -0.66 7.7 -1 6 C-1.99 6.495 -1.99 6.495 -3 7 C-1.125 1.125 -1.125 1.125 0 0 Z " fill="#E4E8F0" transform="translate(101,157)"/>
<path d="M0 0 C2.02054804 1.64169528 4.02043058 3.30911778 6 5 C6 5.33 6 5.66 6 6 C4.02 6 2.04 6 0 6 C0 4.02 0 2.04 0 0 Z " fill="#1B4191" transform="translate(449,107)"/>
<path d="M0 0 C0.66 0.66 1.32 1.32 2 2 C1.625 4.125 1.625 4.125 1 6 C-0.65 5.67 -2.3 5.34 -4 5 C-2.68 3.35 -1.36 1.7 0 0 Z " fill="#1C3E91" transform="translate(126,42)"/>
<path d="M0 0 C0.66 0 1.32 0 2 0 C1.67 2.64 1.34 5.28 1 8 C-0.32 8 -1.64 8 -3 8 C-2.67 7.01 -2.34 6.02 -2 5 C-1.34 5 -0.68 5 0 5 C0 3.35 0 1.7 0 0 Z " fill="#193378" transform="translate(360,191)"/>
<path d="M0 0 C0.33 0 0.66 0 1 0 C1.33 2.31 1.66 4.62 2 7 C0.68 6.67 -0.64 6.34 -2 6 C-1.125 1.125 -1.125 1.125 0 0 Z " fill="#F4F9FB" transform="translate(135,194)"/>
<path d="M0 0 C2 2 2 2 2.125 4.625 C2.08375 5.40875 2.0425 6.1925 2 7 C1.34 7 0.68 7 0 7 C0 7.66 0 8.32 0 9 C-0.66 9 -1.32 9 -2 9 C-1.34 6.03 -0.68 3.06 0 0 Z " fill="#193F8C" transform="translate(8,170)"/>
<path d="M0 0 C0.33 0.66 0.66 1.32 1 2 C1.78375 1.79375 2.5675 1.5875 3.375 1.375 C4.674375 1.189375 4.674375 1.189375 6 1 C6.66 1.66 7.32 2.32 8 3 C6.56465159 3.2226746 5.12654475 3.42761906 3.6875 3.625 C2.88699219 3.74101562 2.08648437 3.85703125 1.26171875 3.9765625 C-1 4 -1 4 -4 2 C-2.68 1.34 -1.36 0.68 0 0 Z " fill="#496196" transform="translate(307,199)"/>
<path d="M0 0 C0 0.66 0 1.32 0 2 C-0.99 2 -1.98 2 -3 2 C-3 2.99 -3 3.98 -3 5 C-3.66 5 -4.32 5 -5 5 C-5 4.01 -5 3.02 -5 2 C-5.99 1.67 -6.98 1.34 -8 1 C-5.10765685 0.17361624 -3.11257569 0 0 0 Z " fill="#052C72" transform="translate(89,190)"/>
<path d="M0 0 C1.5 1 1.5 1 3 3 C3.27345479 5.71846235 3.13491285 8.25677199 3 11 C2.67 11 2.34 11 2 11 C0.80712589 7.12315913 0 4.08378077 0 0 Z " fill="#39559E" transform="translate(156,163)"/>
<path d="M0 0 C0.66 0.99 1.32 1.98 2 3 C1.34 3.66 0.68 4.32 0 5 C-1.02304948 6.65261839 -2.02616054 8.31791365 -3 10 C-3.66 9.67 -4.32 9.34 -5 9 C-3.35 6.03 -1.7 3.06 0 0 Z " fill="#294A8F" transform="translate(83,160)"/>
<path d="M0 0 C0.33 0.66 0.66 1.32 1 2 C2.97888961 2.72693904 4.97954558 3.39816251 7 4 C7 4.33 7 4.66 7 5 C4.36 5 1.72 5 -1 5 C-0.67 3.35 -0.34 1.7 0 0 Z " fill="#1A3F8E" transform="translate(96,108)"/>
<path d="M0 0 C0.66 0 1.32 0 2 0 C2.33 0.99 2.66 1.98 3 3 C3.66 3.66 4.32 4.32 5 5 C3.35 5 1.7 5 0 5 C-0.5625 3.0625 -0.5625 3.0625 -1 1 C-0.67 0.67 -0.34 0.34 0 0 Z " fill="#E5EBF1" transform="translate(294,196)"/>
<path d="M0 0 C2.64 0 5.28 0 8 0 C8.66 1.32 9.32 2.64 10 4 C9.01 4.33 8.02 4.66 7 5 C7 3.68 7 2.36 7 1 C4.69 1 2.38 1 0 1 C0 0.67 0 0.34 0 0 Z " fill="#0E3782" transform="translate(208,189)"/>
</svg>
