<?xml version="1.0" encoding="UTF-8"?>
<svg version="1.1" xmlns="http://www.w3.org/2000/svg" width="400" height="100">
<path d="M0 0 C132 0 264 0 400 0 C400 33 400 66 400 100 C268 100 136 100 0 100 C0 67 0 34 0 0 Z " fill="#FDFDFD" transform="translate(0,0)"/>
<path d="M0 0 C3 0.25 3 0.25 5 2.25 C5.5625 4.97705078 5.5625 4.97705078 6 8.4453125 C6.1640332 9.7122998 6.32806641 10.97928711 6.49707031 12.28466797 C6.66491739 13.6480869 6.83255719 15.01153136 7 16.375 C7.17470953 17.74765378 7.35016519 19.12021279 7.52636719 20.49267578 C8.02715579 24.41062043 8.51393673 28.33020221 9 32.25 C9.23370358 34.09904332 9.46796926 35.9480158 9.703125 37.796875 C10.14459359 41.28015163 10.57683349 44.76444431 11 48.25 C11.18175781 47.41855469 11.36351562 46.58710937 11.55078125 45.73046875 C11.92783203 44.10044922 11.92783203 44.10044922 12.3125 42.4375 C12.55613281 41.35855469 12.79976562 40.27960937 13.05078125 39.16796875 C14.46019722 34.83531966 14.46019722 34.83531966 17 33.25 C20.1015625 32.921875 20.1015625 32.921875 23.625 33 C25.37683594 33.02320312 25.37683594 33.02320312 27.1640625 33.046875 C30 33.25 30 33.25 31 34.25 C31 35.9 31 37.55 31 39.25 C27.7 39.91 24.4 40.57 21 41.25 C18.64272753 49.26472641 16.93715247 57.30546821 15.44628906 65.51855469 C15.28741211 66.3593457 15.12853516 67.20013672 14.96484375 68.06640625 C14.8268335 68.82381104 14.68882324 69.58121582 14.54663086 70.36157227 C14 72.25 14 72.25 12 74.25 C9.5 74.5 9.5 74.5 7 74.25 C4.07002591 71.32002591 4.31305456 67.97662577 3.9296875 64.0234375 C3.84373322 63.20179108 3.75777893 62.38014465 3.66921997 61.53359985 C3.48868001 59.79056857 3.31243764 58.04708766 3.14013672 56.30322266 C2.87801594 53.65546492 2.60231597 51.00940348 2.32421875 48.36328125 C2.1502294 46.66674977 1.97702777 44.97013729 1.8046875 43.2734375 C1.68285599 42.09797867 1.68285599 42.09797867 1.55856323 40.89877319 C1.07912132 35.99070707 0.92781639 31.18161214 1 26.25 C0.34 26.25 -0.32 26.25 -1 26.25 C-1.03867188 27.25740234 -1.03867188 27.25740234 -1.078125 28.28515625 C-1.52252145 36.11259376 -2.65523945 43.71831078 -4 51.4375 C-4.17821289 52.46560791 -4.35642578 53.49371582 -4.54003906 54.55297852 C-5.86580656 61.98161312 -5.86580656 61.98161312 -7 64.25 C-9.875 64.4375 -9.875 64.4375 -13 64.25 C-15.28789903 60.81815145 -15.44671102 58.89894838 -15.8515625 54.83203125 C-15.98046875 53.57841797 -16.109375 52.32480469 -16.2421875 51.03320312 C-16.36851563 49.72287109 -16.49484375 48.41253906 -16.625 47.0625 C-16.75965308 45.72713632 -16.89506108 44.39184854 -17.03125 43.05664062 C-17.36161045 39.78843192 -17.68420558 36.51964302 -18 33.25 C-18.38091797 35.12945312 -18.38091797 35.12945312 -18.76953125 37.046875 C-19.11664905 38.69802995 -19.46433514 40.34906551 -19.8125 42 C-19.97814453 42.825 -20.14378906 43.65 -20.31445312 44.5 C-21.9963192 52.36986392 -21.9963192 52.36986392 -25 55.25 C-27.5 55.8125 -27.5 55.8125 -30 55.25 C-32.46446521 52.31159918 -33.3257574 49.17655786 -34.375 45.5625 C-35.04307441 43.23033032 -35.04307441 43.23033032 -36 41.25 C-38.52372901 39.88921965 -38.52372901 39.88921965 -41 39.25 C-41.9375 37.25 -41.9375 37.25 -42 35.25 C-40 33.25 -40 33.25 -36.625 32.875 C-33 33.25 -33 33.25 -30.6875 35.0625 C-29.39166524 36.7422858 -28.1768103 38.48478455 -27 40.25 C-26.85900879 39.59402832 -26.71801758 38.93805664 -26.57275391 38.26220703 C-25.93116676 35.29808492 -25.27823484 32.33657595 -24.625 29.375 C-24.29242188 27.82619141 -24.29242188 27.82619141 -23.953125 26.24609375 C-23.73398437 25.25996094 -23.51484375 24.27382813 -23.2890625 23.2578125 C-23.09006348 22.34660645 -22.89106445 21.43540039 -22.68603516 20.49658203 C-22 18.25 -22 18.25 -20 16.25 C-17.20310036 15.89142312 -15.66296375 15.74022068 -13.38549805 17.49145508 C-11.68587544 19.64870295 -11.5067906 20.97986159 -11.26953125 23.69921875 C-11.18896484 24.54677734 -11.10839844 25.39433594 -11.02539062 26.26757812 C-10.95513672 27.14865234 -10.88488281 28.02972656 -10.8125 28.9375 C-10.73064453 29.83017578 -10.64878906 30.72285156 -10.56445312 31.64257812 C-10.36429896 33.84427398 -10.17663742 36.04631338 -10 38.25 C-9.87939209 37.3070105 -9.87939209 37.3070105 -9.75634766 36.3449707 C-8.85435028 29.31106391 -7.93354981 22.27978587 -7 15.25 C-6.84845459 14.09516113 -6.84845459 14.09516113 -6.69384766 12.91699219 C-6.45111789 11.08922376 -6.19508108 9.26323469 -5.9375 7.4375 C-5.80214844 6.46167969 -5.66679688 5.48585938 -5.52734375 4.48046875 C-4.68038987 0.89816751 -3.62484401 0.30207033 0 0 Z " fill="#FE7D31" transform="translate(67,18.75)"/>
<path d="M0 0 C2.64 0 5.28 0 8 0 C8 14.85 8 29.7 8 45 C5.36 45 2.72 45 0 45 C-0.33 44.34 -0.66 43.68 -1 43 C-1.680625 43.495 -2.36125 43.99 -3.0625 44.5 C-7.36641992 46.69774634 -10.90897091 46.45900639 -15.5625 45.4375 C-19.63733988 43.0343893 -22.88277757 39.23444487 -25 35 C-25.4914074 29.16755803 -25.83075678 23.82127447 -23.375 18.4375 C-19.11567902 14.06609162 -16.06108797 11.77173533 -9.875 11.5625 C-5.43346893 11.56941827 -4.88752283 12.08435787 -1 15 C-0.67 10.05 -0.34 5.1 0 0 Z " fill="#193444" transform="translate(228,32)"/>
<path d="M0 0 C5.108612 2.93365838 7.74434547 5.62067532 9.97265625 11.1328125 C9.97265625 12.1228125 9.97265625 13.1128125 9.97265625 14.1328125 C6.92287675 14.42052755 4.01091044 14.58312517 0.97265625 14.1328125 C-0.83984375 11.7578125 -0.83984375 11.7578125 -2.02734375 9.1328125 C-6.56880424 6.14608623 -11.80302766 6.489462 -17.02734375 7.1328125 C-20.48392854 9.17854636 -21.80587965 10.80061635 -24.02734375 14.1328125 C-24.65667569 19.09459804 -25.19099283 24.62007226 -23.046875 29.25 C-20.85435874 31.96197396 -18.37957185 34.17503304 -15.02734375 35.1328125 C-10.2106877 35.59894051 -8.01522962 35.65471447 -3.71484375 33.3828125 C-0.9949847 31.34915587 -0.9949847 31.34915587 0.34765625 28.8828125 C1.97265625 27.1328125 1.97265625 27.1328125 3.9296875 26.8828125 C5.94573345 26.8828125 7.96093079 27.00089608 9.97265625 27.1328125 C9.43440776 31.70792464 7.87079952 34.56586694 4.97265625 38.1328125 C-2.63637592 43.75294914 -8.52397424 45.07222604 -18.02734375 44.1328125 C-25.07114976 41.9095463 -29.22634136 37.28229137 -33.02734375 31.1328125 C-35.60263194 25.98223612 -34.89656635 16.08061087 -33.30859375 10.6953125 C-26.18725787 -2.16903618 -12.97974345 -6.54710164 0 0 Z " fill="#1C3646" transform="translate(276.02734375,33.8671875)"/>
<path d="M0 0 C3.8479858 1.63758415 6.20156159 4.09853728 8.9375 7.1875 C10 10 10 10 10 20 C2.41 20 -5.18 20 -13 20 C-11.23148964 23.18074165 -11.23148964 23.18074165 -9 26 C-4.76204729 26.46319957 -4.76204729 26.46319957 -1.1875 24.5 C2.26829583 22.13031143 5.93090046 22.76524426 10 23 C8.3908309 27.8275073 6.28285911 30.6571417 1.875 33.25 C-3.24668694 34.58609224 -8.32754318 35.0887787 -13.3203125 33.0546875 C-17.45784041 30.62713422 -19.90532512 28.40819639 -22 24 C-22.86554071 17.89793797 -23.40596218 11.10633861 -19.8125 5.8125 C-13.73364648 -0.26635352 -8.39550313 -1.18982627 0 0 Z " fill="#1F3948" transform="translate(175,44)"/>
<path d="M0 0 C3.20017705 1.17420945 5.27144286 2.86223608 7.13623047 5.77441406 C8.22787098 8.58713167 8.22607441 10.84470812 8.1953125 13.859375 C8.18886719 14.97441406 8.18242187 16.08945312 8.17578125 17.23828125 C8.15902344 18.39714844 8.14226562 19.55601563 8.125 20.75 C8.11597656 21.92433594 8.10695313 23.09867188 8.09765625 24.30859375 C8.07410063 27.20593536 8.04120652 30.10286441 8 33 C5.36 33 2.72 33 0 33 C-0.33 32.34 -0.66 31.68 -1 31 C-1.845625 31.495 -2.69125 31.99 -3.5625 32.5 C-7.46072096 34.20104187 -9.78806293 34.45127897 -14 34 C-17.98066095 32.42275698 -19.60667274 31.58999089 -22 28 C-22.5257966 23.34294441 -22.6934097 21.13917307 -20.25 17.125 C-14.4924974 13.36047907 -7.76709113 13 -1 13 C-1.66 11.35 -2.32 9.7 -3 8 C-6.41642759 7.74984127 -6.41642759 7.74984127 -10 8 C-10.99 9.485 -10.99 9.485 -12 11 C-13.9453125 11.29296875 -13.9453125 11.29296875 -16.125 11.1875 C-17.40375 11.125625 -18.6825 11.06375 -20 11 C-19.73212125 7.07111171 -19.47562903 5.45123779 -16.5625 2.6875 C-11.24469254 -0.81447076 -6.2628755 -0.59685367 0 0 Z " fill="#1E3847" transform="translate(311,44)"/>
<path d="M0 0 C8.58 0 17.16 0 26 0 C26 2.64 26 5.28 26 8 C20.06 8 14.12 8 8 8 C8 11.63 8 15.26 8 19 C13.28 19 18.56 19 24 19 C24 21.64 24 24.28 24 27 C18.72 27 13.44 27 8 27 C8 32.94 8 38.88 8 45 C5.36 45 2.72 45 0 45 C0 30.15 0 15.3 0 0 Z " fill="#153040" transform="translate(109,32)"/>
<path d="M0 0 C2.97 0 5.94 0 9 0 C9 14.85 9 29.7 9 45 C6.03 45 3.06 45 0 45 C0 30.15 0 15.3 0 0 Z " fill="#1F3847" transform="translate(339,32)"/>
<path d="M0 0 C2.97 0 5.94 0 9 0 C9 14.85 9 29.7 9 45 C6.03 45 3.06 45 0 45 C0 30.15 0 15.3 0 0 Z " fill="#243D4B" transform="translate(324,32)"/>
<path d="M0 0 C2.64 0 5.28 0 8 0 C8 14.85 8 29.7 8 45 C5.36 45 2.72 45 0 45 C0 30.15 0 15.3 0 0 Z " fill="#153041" transform="translate(190,32)"/>
<path d="M0 0 C2.97 0 5.94 0 9 0 C9 10.89 9 21.78 9 33 C6.03 33 3.06 33 0 33 C0 22.11 0 11.22 0 0 Z " fill="#223B4A" transform="translate(139,44)"/>
<path d="M0 0 C2.5 1.5 2.5 1.5 4 4 C4.59576179 9.36185611 4.44380876 12.62901196 1 17 C-2.12860495 18.56430248 -4.55602925 18.35627284 -8 18 C-10.71538955 15.84161344 -11.78632989 14.23796494 -12.37890625 10.8046875 C-12.56979511 7.07311817 -12.4068952 4.69511264 -10.5 1.4375 C-6.95397683 -0.60146332 -3.99298467 -0.78550518 0 0 Z " fill="#F8F9F9" transform="translate(224,52)"/>
<path d="M0 0 C1.32 0 2.64 0 4 0 C5.75 2 5.75 2 7 4 C7.66 2.68 8.32 1.36 9 0 C10.32 0 11.64 0 13 0 C13 4.29 13 8.58 13 13 C12.01 13 11.02 13 10 13 C9.67 11.35 9.34 9.7 9 8 C8.67 8.66 8.34 9.32 8 10 C7.01 10 6.02 10 5 10 C4.67 9.34 4.34 8.68 4 8 C3.67 9.65 3.34 11.3 3 13 C2.01 13 1.02 13 0 13 C0 8.71 0 4.42 0 0 Z " fill="#495A62" transform="translate(364,32)"/>
<path d="M0 0 C5.56818182 0.56818182 5.56818182 0.56818182 7 2 C7.1875 4.9375 7.1875 4.9375 7 8 C5 10 5 10 2 10.3125 C1.01 10.209375 0.02 10.10625 -1 10 C-3 7 -3 7 -2.75 4.4375 C-2 2 -2 2 0 0 Z " fill="#233B4A" transform="translate(141,31)"/>
<path d="M0 0 C0.25 2.3125 0.25 2.3125 0 5 C-1.5625 6.8125 -1.5625 6.8125 -4 8 C-7.6875 8.25 -7.6875 8.25 -11 8 C-12 7 -12 7 -12.0625 4.4375 C-12.041875 3.633125 -12.02125 2.82875 -12 2 C-7.8794254 0.00214565 -4.54805635 -0.17835515 0 0 Z " fill="#F3F4F4" transform="translate(310,63)"/>
<path d="M0 0 C2.375 1.3125 2.375 1.3125 4 3 C4 3.99 4 4.98 4 6 C-0.62 6 -5.24 6 -10 6 C-7.48158081 -0.29604796 -6.45428184 -0.51634255 0 0 Z " fill="#F6F6F6" transform="translate(172,51)"/>
<path d="M0 0 C3.3 0 6.6 0 10 0 C10 0.99 10 1.98 10 3 C9.01 3 8.02 3 7 3 C7 6.3 7 9.6 7 13 C6.01 13 5.02 13 4 13 C4 9.7 4 6.4 4 3 C2.68 3 1.36 3 0 3 C0 2.01 0 1.02 0 0 Z " fill="#354955" transform="translate(352,32)"/>
<path d="M0 0 C1.32 0 2.64 0 4 0 C4 3.96 4 7.92 4 12 C3.34 12 2.68 12 2 12 C2 9.69 2 7.38 2 5 C1.01 4.67 0.02 4.34 -1 4 C-0.67 2.68 -0.34 1.36 0 0 Z " fill="#233B47" transform="translate(373,32)"/>
<path d="M0 0 C1.32 0 2.64 0 4 0 C4.33 1.32 4.66 2.64 5 4 C4.01 4.33 3.02 4.66 2 5 C2 7.31 2 9.62 2 12 C1.34 12 0.68 12 0 12 C0 8.04 0 4.08 0 0 Z " fill="#223947" transform="translate(364,32)"/>
</svg>
